<svg width="209" height="61" viewBox="0 0 209 61" fill="none" xmlns="http://www.w3.org/2000/svg">
<path fill-rule="evenodd" clip-rule="evenodd" d="M1.04918 16.5154H16.2226C16.8127 16.5154 17.2848 16.9832 17.2848 17.5679V22.3757C17.2848 22.9605 16.8127 23.4283 16.2226 23.4283H13.0882V36.5133H16.2356C16.8127 36.5133 17.2979 36.981 17.2979 37.5658V42.3736C17.2979 42.9583 16.8258 43.4261 16.2356 43.4261H1.06226C0.472116 43.4261 0 42.9583 0 42.3736V37.5658C0 36.981 0.472116 36.5133 1.06226 36.5133H4.40646V23.4283H1.07539C0.485243 23.4283 0.0131272 22.9605 0.0131272 22.3757V17.5679C0.0131272 16.9832 0.485243 16.5154 1.07539 16.5154H1.04918ZM57.5592 43.8809C49.8348 43.8809 43.5267 39.268 43.5267 30.2761C43.5267 21.2842 49.8348 16.6714 57.5592 16.6714C65.2836 16.6714 71.5916 21.2842 71.5916 30.2761C71.5916 39.268 65.2836 43.8809 57.5592 43.8809ZM61.5853 30.2761C61.5853 25.3514 60.6935 22.8305 57.5592 22.8305C54.4248 22.8305 53.533 25.3514 53.533 30.2761C53.533 35.2009 54.4248 37.7217 57.5592 37.7217C60.6804 37.7217 61.5853 35.2009 61.5853 30.2761ZM31.8024 26.7417C29.232 26.0271 26.6223 25.8581 26.7272 23.8571C26.7665 23.1294 27.3436 22.3108 29.3107 22.3108C30.5435 22.3108 32.5893 22.7136 34.1893 23.7011C35.8286 24.7277 37.022 26.274 38.2154 26.274H41.153C42.0186 26.274 42.6743 25.0265 42.6743 24.1689V18.6075C42.6743 17.6199 42.0055 17.2951 41.2711 17.3081L38.399 17.347C36.5105 17.373 37.363 18.8544 36.5368 19.1662C34.3729 19.9718 34.386 16.8663 28.6419 16.8013C22.1502 16.7233 18.3208 20.4656 18.4126 24.7537C18.5307 30.1462 22.6486 32.1343 27.7501 33.7845C30.2943 34.6031 34.4647 35.0189 34.3466 37.033C34.3073 37.7607 33.7303 38.5793 31.7631 38.5923C30.5304 38.5923 28.4845 38.1895 26.8845 37.2019C25.2452 36.1754 24.0519 34.6291 22.8584 34.6291H19.9208C19.0552 34.6291 18.3995 35.8766 18.3995 36.7342V42.2956C18.3995 43.2832 19.0684 43.608 19.8028 43.595L22.6748 43.556C24.5633 43.53 23.7109 42.0487 24.5502 41.7369C26.7141 40.9312 26.701 44.0368 32.4451 44.1018C38.9367 44.1798 42.7661 40.4375 42.6743 36.1494C42.5563 30.7569 38.4646 28.6259 31.8024 26.7677V26.7417ZM53.3363 7.6275C52.5495 8.53709 51.4085 9.35571 49.9922 10.0834C51.002 11.4997 51.8806 12.994 52.6151 14.5663H51.2642C50.5823 13.189 49.7823 11.8636 48.8774 10.6161C48.143 10.928 47.3561 11.2139 46.5168 11.4737C45.5857 11.7596 44.5759 12.0195 43.5267 12.2404C43.7497 12.8771 43.9727 13.5268 44.1694 14.2155L44.2743 14.5663H43.0022C42.7923 13.8516 42.5694 13.15 42.3202 12.4743C40.117 12.8511 37.8745 13.046 35.645 13.072V14.5793H34.4253V13.072C32.1828 13.046 29.9533 12.8511 27.7501 12.4743C27.5009 13.163 27.2649 13.8646 27.0682 14.5793H25.7961C25.8223 14.4624 25.8616 14.3454 25.901 14.2285C26.0977 13.5528 26.3207 12.8901 26.5436 12.2534C25.4289 12.0325 24.3404 11.7466 23.265 11.3958C22.5699 11.1749 21.8748 10.915 21.1929 10.6291C20.3273 11.8116 19.5667 13.059 18.911 14.3584L18.8061 14.5793H17.4553C18.1897 13.007 19.0684 11.5127 20.0782 10.0964C18.6618 9.3687 17.5209 8.55008 16.734 7.6405C14.2947 9.6026 12.1833 11.9415 10.4784 14.5793H9.03585C14.3603 5.84732 24.0256 0 35.0286 0C46.0316 0 55.6969 5.86031 61.0214 14.5793H59.5919C57.9001 11.9545 55.7887 9.61559 53.3363 7.6405V7.6275ZM27.1862 2.26096C27.7108 2.78073 28.4845 3.24851 29.4287 3.62534C30.95 4.23606 32.9041 4.59989 35.0417 4.59989C37.022 4.59989 38.8449 4.28803 40.3006 3.75528C41.4022 3.35246 42.294 2.8457 42.8841 2.26096C40.3793 1.55928 37.7564 1.19545 35.0286 1.19545C32.3008 1.19545 29.6779 1.57228 27.1731 2.26096H27.1862ZM26.9895 3.67731C26.5829 3.39145 26.2157 3.04061 25.901 2.65078C22.9502 3.62534 20.1831 5.05468 17.6782 6.88684C18.3995 7.69247 19.4618 8.44613 20.7995 9.10882C22.5962 6.83487 24.6945 4.97672 26.9895 3.67731ZM30.4517 5.2366C29.9533 5.10666 29.455 4.93774 28.9697 4.74283C28.7074 4.63887 28.4452 4.52193 28.196 4.39199C25.8747 5.58744 23.7633 7.38062 21.9536 9.61559C22.4781 9.83649 23.042 10.0314 23.6322 10.2263C24.6682 10.5642 25.7829 10.85 26.9632 11.0839C27.9468 8.62805 29.1271 6.62696 30.4517 5.22361V5.2366ZM34.4253 5.79534C33.5729 5.76936 32.7205 5.6784 31.868 5.53546C30.491 6.7699 29.2321 8.75799 28.1829 11.3048C30.1238 11.6297 32.2221 11.8116 34.4122 11.8376V5.78235L34.4253 5.79534ZM38.2023 5.54846C37.363 5.69139 36.4974 5.78235 35.645 5.80834V11.8636C37.7302 11.8376 39.8154 11.6557 41.8743 11.3308C40.8252 8.78397 39.5793 6.79588 38.1892 5.56145L38.2023 5.54846ZM41.8743 4.39199C41.5071 4.5739 41.1268 4.72983 40.7203 4.88576C40.3662 5.0157 39.999 5.13265 39.6187 5.2366C40.9301 6.63996 42.1104 8.64104 43.1071 11.0969C44.1431 10.889 45.1661 10.6291 46.1759 10.3303C46.8447 10.1224 47.4873 9.88847 48.1299 9.62859C46.307 7.38062 44.1956 5.60043 41.8874 4.40498L41.8743 4.39199ZM44.1562 2.65078C43.8415 3.04061 43.4743 3.39145 43.0677 3.67731C45.3627 4.98971 47.4611 6.83487 49.2577 9.10882C50.5954 8.44613 51.6577 7.70547 52.379 6.88684C49.8872 5.04169 47.107 3.61234 44.1694 2.63779L44.1562 2.65078ZM53.3363 52.0152C52.5495 51.1056 51.4085 50.2869 49.9922 49.5593C51.002 48.1429 51.8806 46.6486 52.6151 45.0893H51.2642C50.5823 46.4667 49.7823 47.7921 48.8774 49.0395C48.1037 48.7147 47.3168 48.4288 46.5168 48.1819C45.5332 47.8831 44.5365 47.6232 43.5267 47.4153C43.7497 46.7786 43.9727 46.1289 44.1694 45.4402L44.2743 45.0893H43.0022C42.7923 45.804 42.5694 46.5057 42.3202 47.1814C40.117 46.8045 37.8745 46.6096 35.645 46.5836V45.0763H34.4253V46.5836C32.1828 46.6096 29.9533 46.8045 27.7501 47.1814C27.5009 46.4927 27.2649 45.791 27.0682 45.0893H25.7961C25.8223 45.2063 25.8616 45.3232 25.901 45.4402C26.0977 46.1159 26.3207 46.7786 26.5436 47.4153C25.3764 47.6492 24.2748 47.948 23.265 48.2729C22.5306 48.5068 21.8486 48.7666 21.1929 49.0395C20.3273 47.8571 19.5667 46.6096 18.911 45.2972L18.8061 45.0763H17.4553C18.1897 46.6486 19.0684 48.1429 20.0782 49.5463C18.6618 50.274 17.5209 51.0926 16.734 52.0022C14.2947 50.0401 12.1833 47.7011 10.4784 45.0633H9.03585C14.3603 53.7953 24.0256 59.6427 35.0286 59.6427C46.0316 59.6427 55.6969 53.7823 61.0214 45.0633H59.5919C57.9001 47.6881 55.7887 50.0271 53.3363 52.0022V52.0152ZM27.1862 57.3817C27.7108 56.8619 28.4845 56.3941 29.4287 56.0173C30.95 55.4066 32.9041 55.0428 35.0417 55.0428C37.022 55.0428 38.8449 55.3546 40.3006 55.8874C41.4022 56.2902 42.294 56.797 42.8841 57.3817C40.3793 58.0834 37.7564 58.4472 35.0286 58.4472C32.3008 58.4472 29.6779 58.0704 27.1731 57.3817H27.1862ZM26.9895 55.9653C26.5829 56.2512 26.2157 56.6021 25.901 56.9919C22.9502 56.0173 20.17 54.588 17.6782 52.7428C18.3995 51.9372 19.4618 51.1835 20.7995 50.5208C22.5962 52.7948 24.6945 54.6529 26.9895 55.9524V55.9653ZM30.4517 54.4061C29.9533 54.536 29.455 54.7049 28.9697 54.8998C28.7074 55.0038 28.4452 55.1207 28.196 55.2507C25.8747 54.0552 23.7633 52.275 21.9536 50.0271C22.4781 49.8062 23.042 49.6113 23.6322 49.4163C24.6682 49.0785 25.7829 48.7926 26.9632 48.5587C27.9468 51.0146 29.1271 53.0157 30.4517 54.4191V54.4061ZM34.4253 53.8343C33.5336 53.8603 32.6811 53.9513 31.868 54.0942C30.491 52.8598 29.2321 50.8717 28.1829 48.3249C30.2419 48 32.3271 47.8181 34.4122 47.7921V53.8473L34.4253 53.8343ZM38.2023 54.0942C37.363 53.9513 36.4974 53.8603 35.645 53.8343V47.7791C37.8351 47.8051 39.9465 48 41.8743 48.3119C40.8252 50.8587 39.5793 52.8468 38.1892 54.0812L38.2023 54.0942ZM41.8743 55.2377C41.494 55.0558 41.1137 54.8868 40.7203 54.7439C40.3662 54.614 39.999 54.497 39.6187 54.3931C40.9301 52.9897 42.1104 50.9886 43.1071 48.5328C44.1956 48.7537 45.2185 49.0135 46.1759 49.3124C46.8709 49.5333 47.5266 49.7672 48.1299 50.0141C46.307 52.262 44.1956 54.0422 41.8874 55.2377H41.8743ZM44.1562 56.9919C43.8415 56.6021 43.4743 56.2512 43.0677 55.9653C45.3627 54.6529 47.4611 52.8078 49.2577 50.5338C50.5954 51.1965 51.6577 51.9372 52.379 52.7558C49.8872 54.601 47.107 56.0303 44.1694 57.0049L44.1562 56.9919Z" fill="#023020"/>
<path fill-rule="evenodd" clip-rule="evenodd" d="M93.1386 15.9566H91.473V4.57386H93.1386V15.9566ZM96.627 15.9566H95.0664V7.35458H96.5614V8.32914C96.8893 7.93931 97.2434 7.65345 97.6368 7.48452C98.0565 7.30261 98.5155 7.21165 98.9876 7.21165C100.129 7.21165 100.994 7.54949 101.61 8.19919C102.227 8.8489 102.528 9.81046 102.528 11.0449V15.9436H100.955V11.3827C100.955 10.4732 100.784 9.79746 100.443 9.35566C100.102 8.91387 99.5646 8.69297 98.8564 8.69297C98.0827 8.69297 97.5188 8.95285 97.1647 9.47261C96.8106 9.99237 96.6401 10.85 96.6401 12.0454V15.9566H96.627ZM104.876 15.9566V8.75794H103.643V7.35458H104.876V4.57386H106.437V7.35458H107.669V8.75794H106.437V15.9566H104.876ZM115.551 10.837C115.354 10.1223 115.013 9.57656 114.541 9.18674C114.069 8.79692 113.492 8.60201 112.823 8.60201C112.154 8.60201 111.551 8.79692 111.04 9.19974C110.541 9.60255 110.187 10.1483 110.004 10.837H115.551ZM109.951 12.2273C110.082 12.942 110.41 13.5268 110.935 13.9815C111.459 14.4233 112.076 14.6442 112.797 14.6442C113.309 14.6442 113.781 14.5143 114.2 14.2804C114.62 14.0335 114.961 13.6957 115.21 13.2409H116.967C116.574 14.1894 116.01 14.9301 115.289 15.4369C114.567 15.9436 113.741 16.1905 112.784 16.1905C112.181 16.1905 111.577 16.0866 111.027 15.8527C110.476 15.6188 109.991 15.268 109.584 14.8392C108.758 13.9685 108.299 12.8381 108.286 11.6426C108.286 11.0319 108.391 10.4732 108.6 9.9404C108.81 9.40764 109.112 8.93986 109.518 8.49806C109.951 8.03027 110.436 7.67943 110.974 7.43255C111.525 7.19865 112.115 7.08171 112.758 7.08171C113.518 7.08171 114.227 7.26362 114.882 7.61446C115.538 7.9653 116.076 8.45908 116.508 9.08279C116.758 9.47261 116.954 9.90141 117.072 10.3692C117.19 10.837 117.256 11.3697 117.256 11.9675V12.2144H109.951V12.2273ZM120.194 15.9566H118.633V7.35458H120.102V8.34213C120.364 7.9653 120.653 7.67943 120.994 7.49752C121.335 7.3156 121.715 7.21165 122.161 7.21165V8.8359C121.466 8.88788 120.954 9.09578 120.653 9.44662C120.351 9.79746 120.194 10.3822 120.194 11.1748V15.9566ZM124.849 15.9566H123.289V7.35458H124.797V8.32914C125.125 7.93931 125.479 7.65345 125.872 7.48452C126.292 7.30261 126.751 7.21165 127.21 7.21165C128.351 7.21165 129.216 7.54949 129.833 8.19919C130.436 8.86189 130.738 9.81046 130.738 11.0449V15.9436H129.164V11.3827C129.164 10.4732 128.993 9.79746 128.652 9.35566C128.311 8.91387 127.774 8.69297 127.066 8.69297C126.292 8.69297 125.728 8.95285 125.374 9.47261C125.02 9.99237 124.849 10.85 124.849 12.0454V15.9566ZM133.754 11.6036C133.754 12.4742 134.042 13.2019 134.633 13.7996C135.223 14.3974 135.918 14.6832 136.77 14.6832C137.544 14.6832 138.213 14.3844 138.803 13.7996C139.393 13.2019 139.682 12.5132 139.682 11.7206C139.682 10.876 139.393 10.1483 138.816 9.55058C138.239 8.95285 137.544 8.65399 136.744 8.65399C135.944 8.65399 135.223 8.93986 134.646 9.51159C134.069 10.0833 133.767 10.785 133.767 11.6166L133.754 11.6036ZM139.59 15.9566V14.9041C139.209 15.3069 138.764 15.6188 138.252 15.8397C137.754 16.0476 137.229 16.1515 136.678 16.1515C135.38 16.1515 134.292 15.7227 133.426 14.8521C132.56 13.9945 132.128 12.903 132.128 11.6166C132.128 11.0059 132.233 10.4342 132.456 9.88842C132.665 9.34267 132.98 8.86189 133.374 8.45908C133.806 8.00428 134.292 7.66644 134.803 7.45853C135.367 7.23764 135.97 7.12069 136.573 7.13368C137.164 7.13368 137.714 7.23764 138.213 7.44554C138.711 7.65344 139.17 7.9653 139.577 8.39411V7.35458H141.164V15.9566H139.577H139.59ZM143.511 15.9566V8.75794H142.278V7.35458H143.511V4.57386H145.072V7.35458H146.304V8.75794H145.072V15.9566H143.511ZM148.98 6.34105H147.432V4.56086H148.98V6.34105ZM147.432 15.9566V7.35458H148.98V15.9566H147.432ZM151.957 11.6426C151.957 12.5002 152.232 13.2149 152.783 13.7996C153.334 14.3714 154.016 14.6572 154.842 14.6572C155.668 14.6572 156.324 14.3714 156.861 13.7866C157.412 13.2149 157.675 12.4872 157.675 11.6296C157.675 10.772 157.399 10.0443 156.861 9.47261C156.311 8.90087 155.642 8.615 154.829 8.615C154.016 8.615 153.334 8.90087 152.796 9.48561C152.245 10.0573 151.97 10.785 151.97 11.6426H151.957ZM150.33 11.6686C150.33 11.0579 150.435 10.4861 150.645 9.96638C150.855 9.43363 151.17 8.95285 151.563 8.53704C151.996 8.06925 152.494 7.71842 153.045 7.47153C153.583 7.22464 154.16 7.0947 154.75 7.0947C155.38 7.0947 155.97 7.21165 156.507 7.43255C157.058 7.65344 157.543 7.99129 157.976 8.42009C158.396 8.8489 158.737 9.34267 158.96 9.88842C159.196 10.4342 159.301 10.9929 159.301 11.5647C159.301 12.1364 159.196 12.7211 158.986 13.2799C158.776 13.8386 158.475 14.3324 158.094 14.7482C157.648 15.229 157.15 15.5928 156.612 15.8397C156.075 16.0866 155.471 16.2165 154.855 16.2165C154.239 16.2165 153.635 16.0996 153.098 15.8787C152.547 15.6448 152.062 15.3069 151.655 14.8781C151.249 14.4493 150.921 13.9556 150.698 13.4098C150.475 12.8641 150.357 12.2793 150.357 11.6946L150.33 11.6686ZM162.199 15.9566H160.638V7.35458H162.147V8.32914C162.474 7.93931 162.829 7.65345 163.222 7.48452C163.642 7.30261 164.101 7.21165 164.56 7.21165C165.701 7.21165 166.566 7.54949 167.183 8.19919C167.786 8.86189 168.101 9.81046 168.101 11.0449V15.9436H166.527V11.3827C166.527 10.4732 166.356 9.79746 166.015 9.35566C165.674 8.91387 165.137 8.69297 164.428 8.69297C163.642 8.69297 163.091 8.95285 162.737 9.47261C162.383 9.99237 162.212 10.85 162.212 12.0454V15.9566H162.199ZM171.091 11.6036C171.091 12.4742 171.379 13.2019 171.969 13.7996C172.52 14.3844 173.294 14.6962 174.107 14.6832C174.881 14.6832 175.549 14.3844 176.14 13.7996C176.717 13.2019 177.018 12.5132 177.018 11.7206C177.031 10.915 176.717 10.1353 176.153 9.55058C175.576 8.95285 174.881 8.65399 174.081 8.65399C173.281 8.65399 172.559 8.93986 171.982 9.51159C171.405 10.0573 171.091 10.824 171.104 11.6166L171.091 11.6036ZM176.94 15.9566V14.9041C176.546 15.3199 176.087 15.6318 175.602 15.8397C175.104 16.0476 174.566 16.1645 174.028 16.1515C172.73 16.1515 171.641 15.7227 170.776 14.8521C169.91 13.9945 169.478 12.903 169.478 11.6166C169.478 11.0059 169.582 10.4342 169.805 9.88842C170.028 9.34267 170.33 8.86189 170.723 8.45908C171.156 8.00428 171.641 7.66644 172.153 7.45853C172.717 7.23764 173.32 7.12069 173.923 7.13368C174.513 7.13368 175.064 7.23764 175.563 7.44554C176.061 7.65344 176.52 7.9653 176.927 8.39411V7.35458H178.5V15.9566H176.927H176.94ZM180.323 15.9566V4.57386H181.871V15.9566H180.323ZM92.6927 30.549C92.6927 31.1467 92.7976 31.7054 92.9943 32.2382C93.191 32.7709 93.4795 33.2257 93.8598 33.6025C94.2533 34.0184 94.7123 34.3302 95.2238 34.5511C95.7352 34.772 96.2598 34.889 96.7975 34.889C97.9909 34.889 98.9745 34.4731 99.7745 33.6285C100.574 32.7839 100.968 31.7444 100.968 30.51C100.968 29.9902 100.876 29.4834 100.679 29.0027C100.483 28.5219 100.194 28.0671 99.84 27.6903C99.4466 27.2615 98.9745 26.9106 98.4368 26.6637C97.9122 26.4428 97.3483 26.3259 96.7844 26.3259C96.2467 26.3259 95.7221 26.4298 95.2369 26.6247C94.7517 26.8327 94.3188 27.1185 93.9385 27.5083C93.5451 27.9112 93.2304 28.3919 93.0205 28.9117C92.7976 29.4445 92.6927 29.9902 92.6927 30.536V30.549ZM90.9616 30.536C90.9616 29.7303 91.119 28.9767 91.4206 28.262C91.7353 27.5343 92.1943 26.8846 92.7582 26.3259C93.2959 25.8061 93.9254 25.3773 94.6205 25.0915C95.3156 24.8056 96.0631 24.6626 96.8237 24.6756C97.6237 24.6756 98.3712 24.8186 99.0663 25.0915C99.7744 25.3773 100.404 25.8061 100.955 26.3389C101.545 26.9106 101.978 27.5473 102.266 28.249C102.555 28.9507 102.712 29.7173 102.712 30.523C102.712 31.3286 102.581 32.0693 102.332 32.7579C102.083 33.4336 101.689 34.0573 101.204 34.5901C100.601 35.2268 99.945 35.7076 99.2105 36.0324C98.463 36.3573 97.6499 36.5262 96.8237 36.5132C95.9975 36.5132 95.1844 36.3573 94.4369 36.0194C93.6894 35.6816 93.0205 35.1748 92.4697 34.5511C91.9845 34.0184 91.6042 33.3946 91.355 32.719C91.1058 32.0173 90.9747 31.2636 90.9747 30.523L90.9616 30.536ZM105.702 36.2923H104.142V27.6903H105.61V28.6778C105.873 28.301 106.161 28.0151 106.502 27.8332C106.843 27.6513 107.223 27.5473 107.669 27.5473V29.1716C106.974 29.2236 106.463 29.4315 106.161 29.7823C105.86 30.1461 105.702 30.7179 105.702 31.5105V36.2923ZM108.928 36.981H110.594C110.83 37.3838 111.145 37.6827 111.551 37.9036C111.945 38.1115 112.391 38.2284 112.889 38.2284C113.768 38.2284 114.476 37.9685 115.013 37.4358C115.551 36.916 115.813 36.2144 115.813 35.3438V35.2398C115.433 35.6426 114.987 35.9545 114.476 36.1754C113.977 36.3833 113.44 36.5002 112.902 36.5002C111.604 36.5002 110.515 36.0714 109.65 35.2008C108.784 34.3432 108.351 33.2517 108.351 31.9653C108.351 31.3546 108.456 30.7828 108.679 30.2371C108.902 29.6913 109.204 29.2236 109.597 28.8077C110.03 28.353 110.515 28.0151 111.027 27.8072C111.591 27.5863 112.194 27.4694 112.797 27.4824C113.387 27.4824 113.925 27.5863 114.436 27.7942C114.935 28.0021 115.394 28.314 115.826 28.7428V27.7033H117.387V34.876C117.387 36.3703 116.994 37.5397 116.207 38.3974C115.42 39.242 114.345 39.6708 112.968 39.6708C111.971 39.6708 111.118 39.4369 110.41 38.9691C109.702 38.5013 109.204 37.8516 108.902 36.994L108.928 36.981ZM109.977 31.9393C109.977 32.8099 110.266 33.5376 110.856 34.1353C111.407 34.72 112.181 35.0319 112.994 35.0189C113.768 35.0189 114.436 34.72 115.027 34.1353C115.617 33.5376 115.905 32.8489 115.905 32.0563C115.905 31.2116 115.617 30.484 115.04 29.8863C114.463 29.2885 113.768 28.9897 112.968 28.9897C112.168 28.9897 111.446 29.2755 110.869 29.8473C110.292 30.393 109.977 31.1597 109.991 31.9523L109.977 31.9393ZM120.39 31.9393C120.39 32.8099 120.679 33.5376 121.269 34.1353C121.859 34.733 122.554 35.0189 123.407 35.0189C124.18 35.0189 124.849 34.72 125.439 34.1353C126.03 33.5376 126.318 32.8489 126.318 32.0563C126.318 31.2116 126.029 30.484 125.452 29.8863C124.875 29.2885 124.18 28.9897 123.38 28.9897C122.58 28.9897 121.859 29.2755 121.282 29.8473C120.705 30.393 120.39 31.1597 120.403 31.9523L120.39 31.9393ZM126.226 36.2923V35.2398C125.846 35.6426 125.4 35.9545 124.889 36.1754C124.39 36.3833 123.852 36.5002 123.315 36.5002C122.016 36.5002 120.928 36.0714 120.062 35.2008C119.197 34.3432 118.764 33.2517 118.764 31.9653C118.764 31.3546 118.869 30.7828 119.092 30.2371C119.302 29.6913 119.617 29.2236 120.01 28.8077C120.443 28.353 120.928 28.0151 121.439 27.8072C122.003 27.5863 122.607 27.4694 123.21 27.4824C123.813 27.4824 124.351 27.5863 124.849 27.7942C125.348 28.0021 125.807 28.314 126.213 28.7428V27.7033H127.8V36.3053H126.213L126.226 36.2923ZM131.183 36.2923H129.623V27.6903H131.131V28.6648C131.459 28.275 131.813 27.9891 132.206 27.8202C132.626 27.6383 133.085 27.5473 133.544 27.5473C134.685 27.5473 135.551 27.8852 136.167 28.5349C136.77 29.1976 137.085 30.1461 137.085 31.3806V36.2793H135.511V31.7184C135.511 30.8088 135.341 30.1201 135 29.6913C134.659 29.2495 134.121 29.0286 133.413 29.0286C132.639 29.0286 132.075 29.2885 131.721 29.8083C131.367 30.3281 131.197 31.1857 131.197 32.3811V36.2923H131.183ZM140.442 26.6897H138.895V24.9095H140.442V26.6897ZM138.895 36.2923V27.6903H140.442V36.2923H138.895ZM147.55 36.2923H141.557V35.0449L145.754 29.0936H142.068V27.6903H147.327V29.2755L143.406 34.837H147.563V36.2923H147.55ZM150.003 31.9393C150.003 32.8099 150.291 33.5376 150.881 34.1353C151.432 34.72 152.206 35.0319 153.019 35.0189C153.793 35.0189 154.462 34.72 155.052 34.1353C155.642 33.5376 155.93 32.8489 155.93 32.0563C155.93 31.2116 155.642 30.484 155.065 29.8863C154.488 29.2885 153.793 28.9897 152.993 28.9897C152.193 28.9897 151.471 29.2755 150.894 29.8473C150.317 30.393 150.003 31.1597 150.016 31.9523L150.003 31.9393ZM155.839 36.2923V35.2398C155.445 35.6556 154.986 35.9675 154.501 36.1754C154.003 36.3833 153.465 36.5002 152.927 36.5002C151.629 36.5002 150.54 36.0714 149.675 35.2008C148.809 34.3432 148.376 33.2517 148.376 31.9653C148.376 31.3546 148.481 30.7828 148.704 30.2371C148.927 29.6913 149.229 29.2236 149.622 28.8077C150.055 28.353 150.54 28.0151 151.052 27.8072C151.616 27.5863 152.219 27.4694 152.822 27.4824C153.412 27.4824 153.963 27.5863 154.462 27.7942C154.96 28.0021 155.419 28.314 155.825 28.7428V27.7033H157.399V36.3053H155.825L155.839 36.2923ZM159.76 36.2923V29.0936H158.527V27.6903H159.76V24.9095H161.307V27.6903H162.54V29.0936H161.307V36.2923H159.76ZM165.228 26.6897H163.681V24.9095H165.228V26.6897ZM163.681 36.2923V27.6903H165.228V36.2923H163.681ZM168.205 31.9913C168.205 32.8489 168.481 33.5636 169.032 34.1353C169.582 34.707 170.264 34.9929 171.091 34.9929C171.917 34.9929 172.573 34.707 173.11 34.1223C173.661 33.5506 173.923 32.8229 173.923 31.9653C173.923 31.1077 173.648 30.38 173.11 29.8083C172.559 29.2366 171.891 28.9507 171.078 28.9507C170.264 28.9507 169.582 29.2365 169.032 29.8213C168.481 30.393 168.205 31.1207 168.205 31.9913ZM166.579 32.0043C166.579 31.3936 166.684 30.8218 166.894 30.2891C167.104 29.7563 167.405 29.2885 167.812 28.8597C168.245 28.3919 168.743 28.0411 169.294 27.7942C169.832 27.5473 170.409 27.4174 170.999 27.4174C171.628 27.4174 172.218 27.5343 172.756 27.7552C173.307 27.9891 173.805 28.327 174.225 28.7428C174.658 29.1716 174.986 29.6654 175.209 30.2111C175.445 30.7569 175.55 31.3156 175.55 31.8873C175.55 32.4591 175.445 33.0438 175.222 33.6025C175.012 34.1613 174.71 34.6551 174.33 35.0709C173.884 35.5517 173.399 35.9155 172.848 36.1624C172.297 36.4093 171.707 36.5392 171.091 36.5392C170.487 36.5392 169.884 36.4352 169.333 36.2014C168.783 35.9675 168.297 35.6296 167.891 35.2008C167.065 34.3432 166.605 33.1997 166.592 32.0043H166.579ZM178.448 36.2923H176.887V27.6903H178.382V28.6648C178.71 28.275 179.064 27.9891 179.458 27.8202C179.851 27.6513 180.297 27.5473 180.808 27.5473C181.949 27.5473 182.815 27.8852 183.431 28.5349C184.035 29.1976 184.336 30.1461 184.336 31.3806V36.2793H182.762V31.7184C182.762 30.8088 182.592 30.1201 182.251 29.6913C181.91 29.2625 181.372 29.0286 180.664 29.0286C179.89 29.0286 179.326 29.2885 178.972 29.8083C178.618 30.3281 178.448 31.1857 178.448 32.3811V36.2923ZM192.782 36.2923H191.221V29.0286H190.185V27.6903H191.169V27.4304C191.169 26.5468 191.418 25.8841 191.916 25.4423C192.415 25.0005 193.149 24.7796 194.133 24.7796V26.2089H194.002C193.543 26.2089 193.215 26.3129 193.005 26.5208C192.795 26.7287 192.703 27.0795 192.703 27.5733V27.7033H194.133V29.0416H192.769V36.3053L192.782 36.2923ZM196.401 31.9913C196.401 32.8489 196.677 33.5636 197.228 34.1353C197.778 34.707 198.46 34.9929 199.287 34.9929C200.06 35.0059 200.795 34.694 201.306 34.1223C201.857 33.5506 202.119 32.8229 202.119 31.9653C202.119 31.1077 201.844 30.38 201.306 29.8083C200.755 29.2366 200.087 28.9507 199.273 28.9507C198.46 28.9507 197.778 29.2365 197.228 29.8213C196.677 30.393 196.401 31.1207 196.401 31.9913ZM194.775 32.0043C194.775 31.3936 194.88 30.8218 195.09 30.2891C195.3 29.7563 195.615 29.2755 196.008 28.8597C196.441 28.3919 196.939 28.0411 197.49 27.7942C198.028 27.5473 198.605 27.4174 199.195 27.4174C199.824 27.4174 200.414 27.5343 200.952 27.7552C201.49 27.9761 201.975 28.314 202.421 28.7428C202.841 29.1716 203.182 29.6654 203.405 30.2111C203.641 30.7569 203.746 31.3156 203.746 31.8873C203.746 32.4591 203.641 33.0438 203.431 33.6025C203.221 34.1613 202.919 34.6551 202.539 35.0709C202.119 35.5257 201.621 35.9025 201.057 36.1624C200.506 36.4093 199.916 36.5392 199.3 36.5392C198.683 36.5392 198.08 36.4223 197.542 36.2014C196.992 35.9675 196.506 35.6296 196.1 35.2008C195.693 34.772 195.379 34.2912 195.142 33.7325C194.906 33.1737 194.801 32.602 194.801 32.0173L194.775 32.0043ZM206.657 36.2923H205.096V27.6903H206.565V28.6778C206.827 28.301 207.116 28.0151 207.457 27.8332C207.798 27.6513 208.178 27.5473 208.624 27.5473V29.1716C207.929 29.2236 207.431 29.4315 207.116 29.7823C206.814 30.1461 206.657 30.7179 206.657 31.5105V36.2923ZM90.8698 53.3535H92.3648C92.3911 53.9382 92.5615 54.419 92.8894 54.7698C93.2173 55.1207 93.6369 55.3026 94.1615 55.3026C94.7385 55.3026 95.1975 55.1207 95.5385 54.7698C95.8795 54.419 96.0631 53.9512 96.0631 53.3535C96.0631 52.8337 95.9319 52.4439 95.6828 52.1581C95.4336 51.8722 94.8959 51.6123 94.0959 51.3654C94.0303 51.3524 93.9516 51.3264 93.8861 51.3134C92.9287 51.0536 92.2205 50.6377 91.8009 50.053C91.6042 49.8061 91.4599 49.5333 91.355 49.2344C91.2632 48.9355 91.2108 48.6237 91.2108 48.3118C91.2108 47.3373 91.4992 46.5446 92.0894 45.9469C92.6795 45.3492 93.4402 45.0503 94.3844 45.0503C95.2631 45.0503 95.9713 45.3232 96.5089 45.8559C97.0466 46.4017 97.3483 47.1423 97.4008 48.0779H95.8401C95.8139 47.6231 95.6565 47.2593 95.3811 46.9734C95.1057 46.6876 94.7123 46.5446 94.3189 46.5576C93.8599 46.5576 93.4926 46.7135 93.2041 47.0254C92.9156 47.3373 92.7714 47.7401 92.7714 48.2209C92.7714 48.3898 92.7976 48.5587 92.8501 48.7016C92.9025 48.8576 92.9812 48.9875 93.0992 49.1304C93.3222 49.3903 93.8074 49.6242 94.5549 49.8191C94.8959 49.9101 95.1582 49.988 95.3418 50.053C96.1024 50.3389 96.6795 50.7417 97.0729 51.2745C97.4663 51.8072 97.663 52.4569 97.663 53.2106C97.663 54.3151 97.3483 55.1987 96.7188 55.8743C96.0893 56.55 95.25 56.8749 94.2139 56.8749C93.2303 56.8749 92.4435 56.55 91.8271 55.9133C91.2108 55.2766 90.9091 54.419 90.896 53.3665L90.8698 53.3535ZM99.604 56.641V49.4423H98.3712V48.0389H99.604V45.2582H101.165V48.0389H102.397V49.4423H101.165V56.641H99.604ZM104.692 52.288C104.692 53.1586 104.981 53.8863 105.571 54.484C106.122 55.0687 106.896 55.3806 107.709 55.3676C108.469 55.3676 109.151 55.0687 109.741 54.484C110.318 53.8863 110.62 53.1976 110.62 52.4049C110.62 51.5603 110.332 50.8327 109.755 50.2349C109.177 49.6372 108.482 49.3383 107.682 49.3383C106.882 49.3383 106.161 49.6242 105.584 50.1959C105.007 50.7417 104.692 51.5083 104.705 52.301L104.692 52.288ZM110.541 56.641V55.5885C110.148 56.0043 109.689 56.3161 109.204 56.524C108.705 56.7319 108.168 56.8489 107.63 56.8489C106.332 56.8489 105.243 56.4201 104.378 55.5495C103.512 54.6919 103.079 53.6134 103.079 52.314C103.079 51.7033 103.184 51.1315 103.407 50.5858C103.63 50.04 103.932 49.5722 104.325 49.1564C104.758 48.7016 105.243 48.3638 105.755 48.1559C106.319 47.935 106.922 47.818 107.525 47.831C108.115 47.831 108.666 47.935 109.164 48.1429C109.663 48.3508 110.122 48.6756 110.528 49.0915V48.0519H112.102V56.654H110.528L110.541 56.641ZM115.499 56.641H113.938V48.0389H115.433V49.0135C115.761 48.6237 116.115 48.3378 116.508 48.1559C116.902 47.974 117.348 47.883 117.859 47.883C119 47.883 119.866 48.2209 120.482 48.8706C121.099 49.5203 121.4 50.4818 121.4 51.7163V56.615H119.826V52.0541C119.826 51.1445 119.656 50.4558 119.315 50.027C118.974 49.5982 118.436 49.3643 117.728 49.3643C116.954 49.3643 116.39 49.6242 116.036 50.144C115.682 50.6637 115.512 51.5213 115.512 52.7168V56.628L115.499 56.641ZM124.39 52.288C124.39 53.1586 124.679 53.8863 125.269 54.484C125.82 55.0687 126.593 55.3806 127.407 55.3676C128.18 55.3676 128.849 55.0687 129.439 54.484C130.029 53.8863 130.318 53.1976 130.318 52.4049C130.318 51.5603 130.029 50.8327 129.452 50.2349C128.875 49.6372 128.18 49.3383 127.38 49.3383C126.58 49.3383 125.859 49.6242 125.282 50.1959C124.705 50.7417 124.39 51.5083 124.403 52.301L124.39 52.288ZM130.226 56.641V55.5885C129.846 55.9913 129.4 56.3031 128.888 56.524C128.39 56.7319 127.852 56.8489 127.315 56.8489C126.016 56.8489 124.928 56.4201 124.062 55.5495C123.197 54.6919 122.764 53.6134 122.764 52.314C122.764 51.7033 122.869 51.1315 123.092 50.5858C123.302 50.04 123.616 49.5722 124.01 49.1564C124.443 48.7016 124.928 48.3638 125.439 48.1559C126.003 47.935 126.607 47.818 127.21 47.831C127.8 47.831 128.338 47.935 128.849 48.1429C129.347 48.3508 129.82 48.6756 130.239 49.0915V45.2712H131.8V56.654H130.226V56.641ZM134.803 52.288C134.803 53.1586 135.092 53.8863 135.682 54.484C136.272 55.0817 136.967 55.3676 137.819 55.3676C138.593 55.3676 139.262 55.0687 139.852 54.484C140.442 53.8863 140.731 53.1976 140.731 52.4049C140.731 51.5603 140.442 50.8327 139.865 50.2349C139.288 49.6372 138.593 49.3383 137.793 49.3383C136.993 49.3383 136.272 49.6242 135.695 50.1959C135.118 50.7417 134.803 51.5083 134.816 52.301L134.803 52.288ZM140.639 56.641V55.5885C140.246 56.0043 139.787 56.3161 139.301 56.524C138.803 56.7319 138.265 56.8489 137.728 56.8489C136.429 56.8489 135.341 56.4201 134.475 55.5495C133.61 54.6919 133.177 53.6134 133.177 52.314C133.177 51.7033 133.282 51.1315 133.505 50.5858C133.715 50.04 134.029 49.5722 134.423 49.1564C134.855 48.7016 135.341 48.3638 135.852 48.1559C136.416 47.935 137.019 47.818 137.623 47.831C138.213 47.831 138.764 47.935 139.262 48.1429C139.76 48.3508 140.219 48.6756 140.626 49.0915V48.0519H142.2V56.654H140.626L140.639 56.641ZM145.622 56.641H144.062V48.0389H145.531V49.0265C145.793 48.6497 146.081 48.3638 146.422 48.1819C146.763 48 147.144 47.896 147.59 47.896V49.5073C146.895 49.5592 146.383 49.7671 146.081 50.118C145.78 50.4688 145.622 51.0536 145.622 51.8462V56.628V56.641ZM149.885 52.288C149.885 53.1586 150.173 53.8863 150.763 54.484C151.353 55.0817 152.048 55.3676 152.901 55.3676C153.675 55.3676 154.344 55.0687 154.934 54.484C155.524 53.8863 155.812 53.1976 155.812 52.4049C155.825 51.5993 155.511 50.8197 154.947 50.2349C154.37 49.6372 153.675 49.3383 152.875 49.3383C152.075 49.3383 151.353 49.6242 150.776 50.1959C150.199 50.7417 149.885 51.5083 149.898 52.301L149.885 52.288ZM155.721 56.641V55.5885C155.34 55.9783 154.894 56.3031 154.383 56.524C153.884 56.7319 153.347 56.8489 152.809 56.8489C151.511 56.8489 150.422 56.4201 149.557 55.5495C148.691 54.6919 148.258 53.6134 148.258 52.314C148.258 51.7033 148.363 51.1315 148.586 50.5858C148.796 50.04 149.111 49.5722 149.504 49.1564C149.937 48.7016 150.422 48.3638 150.934 48.1559C151.498 47.935 152.101 47.818 152.704 47.831C153.294 47.831 153.845 47.935 154.344 48.1429C154.842 48.3508 155.314 48.6756 155.734 49.0915V45.2712H157.294V56.654H155.707L155.721 56.641ZM160.665 47.0254H159.117V45.2452H160.665V47.0254ZM159.117 56.641V48.0389H160.665V56.641H159.117ZM167.773 56.641H161.779V55.3936L165.976 49.4553H162.291V48.0519H167.55V49.6372L163.629 55.1987H167.786V56.654L167.773 56.641ZM170.225 52.288C170.225 53.1586 170.514 53.8863 171.104 54.484C171.655 55.0687 172.428 55.3806 173.241 55.3676C174.002 55.3676 174.684 55.0687 175.274 54.484C175.864 53.8863 176.153 53.1976 176.153 52.4049C176.153 51.5603 175.864 50.8327 175.287 50.2349C174.71 49.6372 174.015 49.3383 173.215 49.3383C172.415 49.3383 171.694 49.6242 171.117 50.1959C170.54 50.7417 170.225 51.5083 170.238 52.301L170.225 52.288ZM176.061 56.641V55.5885C175.668 56.0043 175.209 56.3161 174.723 56.524C174.225 56.7319 173.687 56.8489 173.15 56.8489C171.851 56.8489 170.763 56.4201 169.897 55.5495C169.032 54.6919 168.599 53.6134 168.599 52.314C168.599 51.7033 168.704 51.1315 168.927 50.5858C169.137 50.053 169.451 49.5722 169.845 49.1564C170.278 48.7016 170.763 48.3638 171.274 48.1559C171.838 47.935 172.441 47.818 173.045 47.831C173.635 47.831 174.186 47.935 174.684 48.1429C175.182 48.3508 175.641 48.6756 176.048 49.0915V48.0519H177.622V56.654H176.048L176.061 56.641ZM179.982 56.641V49.4423H178.749V48.0389H179.982V45.2582H181.543V48.0389H182.776V49.4423H181.543V56.641H179.982ZM185.451 47.0254H183.903V45.2452H185.451V47.0254ZM183.903 56.641V48.0389H185.451V56.641H183.903ZM188.428 52.327C188.428 53.1846 188.703 53.8993 189.254 54.471C189.805 55.0427 190.487 55.3286 191.313 55.3286C192.139 55.3286 192.795 55.0427 193.333 54.458C193.883 53.8863 194.146 53.1586 194.146 52.301C194.146 51.4434 193.87 50.7157 193.333 50.144C192.782 49.5722 192.113 49.2864 191.287 49.2864C190.513 49.2734 189.766 49.5852 189.254 50.157C188.703 50.7417 188.428 51.4564 188.428 52.327ZM186.802 52.34C186.802 51.7292 186.907 51.1575 187.116 50.6248C187.326 50.092 187.628 49.6242 188.034 49.1954C188.467 48.7276 188.966 48.3768 189.516 48.1299C190.054 47.883 190.631 47.7531 191.221 47.7531C191.851 47.7531 192.441 47.87 192.979 48.0909C194.08 48.5717 194.959 49.4423 195.431 50.5468C195.667 51.0925 195.772 51.6513 195.772 52.223C195.772 52.7948 195.667 53.3795 195.444 53.9382C195.221 54.497 194.933 54.9907 194.552 55.4066C194.133 55.8743 193.634 56.2382 193.07 56.4981C192.52 56.7449 191.929 56.8749 191.313 56.8749C190.697 56.8749 190.093 56.7579 189.556 56.537C189.005 56.3031 188.52 55.9653 188.113 55.5365C187.707 55.1077 187.392 54.6269 187.156 54.0682C186.92 53.5094 186.815 52.9377 186.815 52.353L186.802 52.34ZM198.67 56.641H197.11V48.0389H198.605V49.0135C198.933 48.6237 199.287 48.3378 199.68 48.1559C200.1 47.974 200.559 47.883 201.018 47.883C202.159 47.883 203.024 48.2209 203.641 48.8706C204.257 49.5203 204.559 50.4818 204.559 51.7163V56.615H202.985V52.0541C202.985 51.1445 202.814 50.4558 202.473 50.027C202.132 49.5982 201.595 49.3643 200.887 49.3643C200.113 49.3643 199.549 49.6242 199.195 50.144C198.841 50.6637 198.67 51.5213 198.67 52.7168V56.628V56.641ZM81.6372 0.766602H82.8306V60.6691H81.6372V0.766602Z" fill="#023020"/>
</svg>
