<svg width="157" height="69" viewBox="0 0 157 69" fill="none" xmlns="http://www.w3.org/2000/svg">
<path d="M6.78015 58.8762H0V55.9785H6.97688C10.0325 55.9785 12.0521 57.8756 12.0521 60.3185C12.0521 62.7614 10.0456 64.6845 6.97688 64.6845H3.37041V68.2709H0V61.7998H6.78015C8.24896 61.7998 8.68175 61.1501 8.68175 60.3315C8.68175 59.5129 8.24896 58.8892 6.78015 58.8892" fill="#023020"/>
<path d="M15.2521 68.2577V55.9653H26.4124V58.863H18.6094V60.5262H23.9207V63.4239H18.6094V65.36H26.4124V68.2577H15.2521Z" fill="#023020"/>
<path d="M30.0844 68.2577V55.9653H41.2448V58.863H33.4417V60.5262H38.753V63.4239H33.4417V68.2577H30.0713H30.0844Z" fill="#023020"/>
<path d="M55.7494 66.2568C54.2543 67.7901 52.2347 68.5048 50.202 68.5048C46.1365 68.5048 42.8842 65.7241 42.8842 62.1247C42.8842 58.5254 46.1365 55.7446 50.202 55.7446C52.2609 55.7446 54.2937 56.4723 55.7756 58.0056L53.0609 59.8767C52.3396 59.0711 51.3561 58.6423 50.1889 58.6423C48.1824 58.6423 46.3464 60.1886 46.3464 62.1247C46.3464 64.0608 48.1824 65.6071 50.1889 65.6071C51.3036 65.6071 52.3134 65.2043 53.0085 64.5156L55.7363 66.2568" fill="#023020"/>
<path d="M41.0613 33.4466H33.0746V39.047H27.7501V33.4466H19.4225L19.6061 33.3816C23.1995 31.4325 25.6256 27.7032 25.6256 23.4152C25.6256 22.6875 25.56 21.9728 25.4158 21.2842L30.4124 11.8765L41.0482 33.4336" fill="#023020"/>
<path d="M3.73755 23.5842C3.73755 18.2957 8.14398 13.9946 13.5865 13.9946C19.0289 13.9946 23.4354 18.2827 23.4354 23.5842C23.4354 28.0412 20.301 31.7965 16.0651 32.862V39.2161H10.7538V32.771C6.70141 31.5886 3.75066 27.9242 3.75066 23.5972" fill="#023020"/>
<path d="M1.36393 25.7412C1.45573 25.3514 1.56063 24.9746 1.67866 24.5847C1.67866 24.5847 1.69178 24.5457 1.74424 24.5328C1.82293 24.5328 1.80981 24.5847 1.80981 24.5847C1.87539 25.3514 2.01966 26.092 2.22949 26.8067C0.445926 37.9296 7.82933 46.6616 19.4487 46.6616C31.0681 46.6616 42.0317 38.4494 46.071 27.8202L51.343 22.9475L54.3855 26.2999C50.6479 40.2685 36.104 51.4824 21.6126 51.4824C7.12116 51.4824 -2.13762 39.9567 1.36393 25.7412ZM47.2512 23.5712C49.284 12.2534 41.8612 3.31348 30.0976 3.31348C22.6486 3.31348 15.1865 6.89984 9.80961 12.3963C9.23258 12.5912 8.68177 12.8251 8.14408 13.098C8.14408 13.098 8.0785 13.137 8.01293 13.072C7.96047 13.02 7.99982 12.9551 7.99982 12.9551C14.4915 5.21061 24.3928 0 34.268 0C47.8807 0 56.6674 9.91446 55.0937 22.6876L51.9462 19.2312L47.2512 23.5712Z" fill="#023020"/>
<path d="M56.8903 53.7173H58.582V54.1591H58.0181V55.4975H57.4673V54.1591H56.9034V53.7173H56.8903Z" fill="#023020"/>
<path d="M58.8312 53.7173H59.5656L59.841 54.7958L60.1164 53.7173H60.8509V55.4975H60.3918V54.1331L60.0377 55.4975H59.6181L59.2771 54.1331V55.4975H58.8181V53.7173H58.8312Z" fill="#023020"/>
<path d="M71.2348 35.8503V37.666H70.661V32.941C70.85 32.941 71.0503 32.9388 71.2618 32.9343C71.4733 32.9298 71.6848 32.9275 71.8963 32.9275C72.5173 32.9275 72.9628 33.067 73.2328 33.346C73.5073 33.6205 73.6445 33.9693 73.6445 34.3923C73.6445 34.8018 73.496 35.1528 73.199 35.4453C72.911 35.7333 72.4925 35.8773 71.9435 35.8773C71.6555 35.8773 71.4193 35.8683 71.2348 35.8503ZM71.9503 33.4675C71.8693 33.4675 71.6308 33.472 71.2348 33.481V35.3035C71.5183 35.326 71.7478 35.3373 71.9233 35.3373C72.2698 35.3373 72.542 35.254 72.74 35.0875C72.938 34.9165 73.037 34.6825 73.037 34.3855C73.037 34.093 72.9448 33.868 72.7603 33.7105C72.5803 33.5485 72.3103 33.4675 71.9503 33.4675ZM74.7817 37.666H74.2417V34.6285H74.7817V34.9863C74.9617 34.7118 75.216 34.5745 75.5445 34.5745C75.756 34.5745 75.9135 34.6128 76.017 34.6893L75.828 35.1955C75.6975 35.119 75.5602 35.0808 75.4162 35.0808C75.1417 35.0808 74.9302 35.2248 74.7817 35.5128V37.666ZM76.7787 37.288C76.4817 36.982 76.3332 36.6018 76.3332 36.1473C76.3332 35.6883 76.4817 35.3103 76.7787 35.0133C77.0802 34.7118 77.4717 34.561 77.9532 34.561C78.4347 34.561 78.8239 34.7118 79.1209 35.0133C79.4224 35.3103 79.5732 35.6883 79.5732 36.1473C79.5732 36.6063 79.4224 36.9865 79.1209 37.288C78.8239 37.585 78.4347 37.7335 77.9532 37.7335C77.4762 37.7335 77.0847 37.585 76.7787 37.288ZM77.2039 35.371C77.0059 35.569 76.9069 35.8278 76.9069 36.1473C76.9069 36.4668 77.0037 36.7255 77.1972 36.9235C77.3952 37.126 77.6472 37.2273 77.9532 37.2273C78.2592 37.2273 78.5089 37.1283 78.7024 36.9303C78.9004 36.7278 78.9994 36.4668 78.9994 36.1473C78.9994 35.8368 78.9004 35.578 78.7024 35.371C78.5089 35.1685 78.2592 35.0673 77.9532 35.0673C77.6472 35.0673 77.3974 35.1685 77.2039 35.371ZM84.8613 35.6748V37.666H84.3213V35.8233C84.3213 35.3283 84.1031 35.0808 83.6666 35.0808C83.4911 35.0808 83.3313 35.1213 83.1873 35.2023C83.0478 35.2788 82.9421 35.3845 82.8701 35.5195C82.8746 35.542 82.8768 35.614 82.8768 35.7355V37.666H82.3368V35.7085C82.3368 35.515 82.2783 35.362 82.1613 35.2495C82.0488 35.137 81.8913 35.0808 81.6888 35.0808C81.3513 35.0808 81.0858 35.218 80.8923 35.4925V37.666H80.3523V34.6285H80.8923V35.0133C81.0048 34.8828 81.1511 34.777 81.3311 34.696C81.5156 34.615 81.7046 34.5745 81.8981 34.5745C82.1276 34.5745 82.3233 34.6218 82.4853 34.7163C82.6473 34.8108 82.7576 34.939 82.8161 35.101C82.9286 34.939 83.0793 34.8108 83.2683 34.7163C83.4573 34.6218 83.6621 34.5745 83.8826 34.5745C84.5351 34.5745 84.8613 34.9413 84.8613 35.6748ZM86.0138 37.288C85.7168 36.982 85.5683 36.6018 85.5683 36.1473C85.5683 35.6883 85.7168 35.3103 86.0138 35.0133C86.3153 34.7118 86.7068 34.561 87.1883 34.561C87.6698 34.561 88.059 34.7118 88.356 35.0133C88.6575 35.3103 88.8083 35.6883 88.8083 36.1473C88.8083 36.6063 88.6575 36.9865 88.356 37.288C88.059 37.585 87.6698 37.7335 87.1883 37.7335C86.7113 37.7335 86.3198 37.585 86.0138 37.288ZM86.439 35.371C86.241 35.569 86.142 35.8278 86.142 36.1473C86.142 36.4668 86.2388 36.7255 86.4323 36.9235C86.6303 37.126 86.8823 37.2273 87.1883 37.2273C87.4943 37.2273 87.744 37.1283 87.9375 36.9303C88.1355 36.7278 88.2345 36.4668 88.2345 36.1473C88.2345 35.8368 88.1355 35.578 87.9375 35.371C87.744 35.1685 87.4943 35.0673 87.1883 35.0673C86.8823 35.0673 86.6325 35.1685 86.439 35.371ZM89.5199 36.5118V33.7848H90.0599V34.6285H91.1737V35.1348H90.0599V36.4578C90.0599 36.9618 90.2399 37.2138 90.5999 37.2138C90.7754 37.2138 90.9352 37.1575 91.0792 37.045L91.2479 37.4635C91.0364 37.6345 90.7777 37.72 90.4717 37.72C90.1432 37.72 89.9024 37.621 89.7494 37.423C89.5964 37.225 89.5199 36.9213 89.5199 36.5118ZM92.6556 37.666H92.1156V34.6285H92.6556V37.666ZM92.0481 33.4878C92.0481 33.3933 92.0818 33.3168 92.1493 33.2583C92.2168 33.1953 92.3001 33.1638 92.3991 33.1638C92.4936 33.1638 92.5723 33.1953 92.6353 33.2583C92.6983 33.3168 92.7298 33.3933 92.7298 33.4878C92.7298 33.5913 92.6983 33.6768 92.6353 33.7443C92.5723 33.8073 92.4936 33.8388 92.3991 33.8388C92.3001 33.8388 92.2168 33.8073 92.1493 33.7443C92.0818 33.6768 92.0481 33.5913 92.0481 33.4878ZM94.3132 37.666H93.7732V34.6285H94.3132V34.9998C94.4257 34.8738 94.572 34.7725 94.752 34.696C94.9365 34.615 95.121 34.5745 95.3055 34.5745C96.147 34.5745 96.5677 35.02 96.5677 35.911V37.666H96.0277V36.0123C96.0277 35.3913 95.742 35.0808 95.1705 35.0808C94.8285 35.0808 94.5427 35.2113 94.3132 35.4723V37.666ZM97.0593 38.1048C97.0593 37.8708 97.1448 37.675 97.3158 37.5175C97.4868 37.36 97.7253 37.2475 98.0313 37.18C97.9818 37.117 97.9571 37.0338 97.9571 36.9303C97.9571 36.8268 97.9841 36.7413 98.0381 36.6738C97.8221 36.5883 97.6533 36.4578 97.5318 36.2823C97.4148 36.1068 97.3563 35.9043 97.3563 35.6748C97.3563 35.3598 97.4688 35.0965 97.6938 34.885C97.9233 34.669 98.2248 34.561 98.5983 34.561C98.8863 34.561 99.1428 34.6353 99.3678 34.7838L100.259 34.5678L100.272 35.0065L99.6986 35.1483C99.7931 35.3058 99.8403 35.4813 99.8403 35.6748C99.8403 35.9853 99.7256 36.2463 99.4961 36.4578C99.2711 36.6648 98.9718 36.7683 98.5983 36.7683C98.4948 36.7683 98.4273 36.766 98.3958 36.7615C98.3733 36.8155 98.3621 36.8718 98.3621 36.9303C98.3621 37.0113 98.3823 37.0788 98.4228 37.1328C98.4318 37.1328 98.4588 37.1328 98.5038 37.1328C98.5533 37.1283 98.5871 37.126 98.6051 37.126C99.0776 37.126 99.4533 37.2115 99.7323 37.3825C100.011 37.549 100.151 37.7898 100.151 38.1048C100.151 38.4108 100.011 38.647 99.7323 38.8135C99.4533 38.9845 99.0776 39.07 98.6051 39.07C98.1281 39.07 97.7501 38.9868 97.4711 38.8203C97.1966 38.6583 97.0593 38.4198 97.0593 38.1048ZM99.6446 38.1048C99.6446 37.9383 99.5523 37.8055 99.3678 37.7065C99.1833 37.612 98.9291 37.5648 98.6051 37.5648C98.2811 37.5648 98.0268 37.612 97.8423 37.7065C97.6578 37.8055 97.5656 37.9383 97.5656 38.1048C97.5656 38.2713 97.6578 38.3995 97.8423 38.4895C98.0268 38.584 98.2811 38.6313 98.6051 38.6313C98.9291 38.6313 99.1833 38.5863 99.3678 38.4963C99.5523 38.4063 99.6446 38.2758 99.6446 38.1048ZM97.8626 35.6748C97.8626 35.8638 97.9301 36.0213 98.0651 36.1473C98.2046 36.2688 98.3823 36.3295 98.5983 36.3295C98.8143 36.3295 98.9898 36.2688 99.1248 36.1473C99.2643 36.0258 99.3341 35.8683 99.3341 35.6748C99.3341 35.4813 99.2666 35.3215 99.1316 35.1955C98.9921 35.065 98.8143 34.9998 98.5983 34.9998C98.3823 34.9998 98.2046 35.065 98.0651 35.1955C97.9301 35.3215 97.8626 35.4813 97.8626 35.6748ZM104.604 36.4578C104.604 36.3003 104.561 36.163 104.476 36.046C104.39 35.929 104.28 35.8345 104.145 35.7625C104.01 35.686 103.859 35.614 103.693 35.5465C103.531 35.479 103.367 35.407 103.2 35.3305C103.038 35.2495 102.89 35.1595 102.755 35.0605C102.62 34.9615 102.509 34.831 102.424 34.669C102.338 34.507 102.296 34.3203 102.296 34.1088C102.296 33.7623 102.424 33.4698 102.68 33.2313C102.941 32.9928 103.288 32.8735 103.72 32.8735C103.985 32.8735 104.235 32.9185 104.469 33.0085C104.703 33.0985 104.888 33.2178 105.023 33.3663L104.712 33.7983C104.456 33.5418 104.136 33.4135 103.754 33.4135C103.493 33.4135 103.286 33.4765 103.133 33.6025C102.98 33.7285 102.903 33.8973 102.903 34.1088C102.903 34.2663 102.946 34.4035 103.031 34.5205C103.117 34.6375 103.227 34.732 103.362 34.804C103.497 34.876 103.646 34.9458 103.808 35.0133C103.974 35.0763 104.138 35.146 104.3 35.2225C104.467 35.299 104.618 35.3868 104.753 35.4858C104.888 35.5803 104.998 35.7108 105.083 35.8773C105.169 36.0438 105.212 36.235 105.212 36.451C105.212 36.838 105.063 37.1485 104.766 37.3825C104.478 37.6165 104.114 37.7335 103.673 37.7335C103.362 37.7335 103.065 37.6705 102.782 37.5445C102.498 37.4185 102.298 37.2453 102.181 37.0248L102.512 36.6333C102.642 36.8043 102.815 36.9415 103.031 37.045C103.247 37.144 103.463 37.1935 103.679 37.1935C103.945 37.1935 104.165 37.1283 104.341 36.9978C104.516 36.8628 104.604 36.6828 104.604 36.4578ZM108.16 34.6285H108.7V37.666H108.16V37.234C107.877 37.567 107.519 37.7335 107.087 37.7335C106.731 37.7335 106.455 37.6255 106.257 37.4095C106.063 37.189 105.966 36.865 105.966 36.4375V34.6285H106.506V36.316C106.506 36.9235 106.767 37.2273 107.289 37.2273C107.451 37.2273 107.611 37.1868 107.769 37.1058C107.931 37.0203 108.061 36.91 108.16 36.775V34.6285ZM111.218 36.8425C111.218 36.7345 111.162 36.6445 111.049 36.5725C110.937 36.5005 110.8 36.442 110.638 36.397C110.48 36.3475 110.32 36.2913 110.158 36.2283C109.996 36.1653 109.859 36.0663 109.747 35.9313C109.634 35.7918 109.578 35.6208 109.578 35.4183C109.578 35.1618 109.672 34.9548 109.861 34.7973C110.05 34.6398 110.3 34.561 110.611 34.561C111.056 34.561 111.405 34.6803 111.657 34.9188L111.4 35.3305C111.175 35.1325 110.921 35.0335 110.638 35.0335C110.494 35.0335 110.377 35.0695 110.287 35.1415C110.197 35.2135 110.152 35.3035 110.152 35.4115C110.152 35.5285 110.208 35.6253 110.32 35.7018C110.433 35.7738 110.568 35.8345 110.725 35.884C110.887 35.929 111.049 35.983 111.211 36.046C111.373 36.1045 111.511 36.199 111.623 36.3295C111.736 36.46 111.792 36.622 111.792 36.8155C111.792 37.117 111.679 37.3465 111.454 37.504C111.234 37.657 110.955 37.7335 110.617 37.7335C110.379 37.7335 110.152 37.684 109.936 37.585C109.715 37.4815 109.569 37.3735 109.497 37.261L109.801 36.8763C109.891 36.9798 110.021 37.0698 110.192 37.1463C110.372 37.2228 110.534 37.261 110.678 37.261C110.836 37.261 110.964 37.225 111.063 37.153C111.166 37.0765 111.218 36.973 111.218 36.8425ZM112.512 36.5118V33.7848H113.052V34.6285H114.166V35.1348H113.052V36.4578C113.052 36.9618 113.232 37.2138 113.592 37.2138C113.768 37.2138 113.927 37.1575 114.071 37.045L114.24 37.4635C114.029 37.6345 113.77 37.72 113.464 37.72C113.135 37.72 112.895 37.621 112.742 37.423C112.589 37.225 112.512 36.9213 112.512 36.5118ZM115.121 35.2698L114.98 34.8378C115.281 34.6533 115.619 34.561 115.992 34.561C116.402 34.561 116.699 34.6623 116.883 34.8648C117.068 35.0673 117.16 35.38 117.16 35.803V37.666H116.647V37.2745C116.408 37.567 116.084 37.7133 115.675 37.7133C115.396 37.7133 115.171 37.63 115 37.4635C114.829 37.2925 114.743 37.063 114.743 36.775C114.743 36.478 114.849 36.244 115.061 36.073C115.272 35.8975 115.549 35.8098 115.891 35.8098C116.21 35.8098 116.462 35.875 116.647 36.0055C116.647 35.6635 116.6 35.4183 116.505 35.2698C116.411 35.1213 116.228 35.047 115.958 35.047C115.684 35.047 115.405 35.1213 115.121 35.2698ZM115.864 37.2273C116.165 37.2273 116.426 37.0968 116.647 36.8358V36.451C116.458 36.316 116.231 36.2485 115.965 36.2485C115.781 36.2485 115.625 36.2935 115.499 36.3835C115.378 36.469 115.317 36.5905 115.317 36.748C115.317 36.8965 115.364 37.0135 115.459 37.099C115.558 37.1845 115.693 37.2273 115.864 37.2273ZM118.753 37.666H118.213V34.6285H118.753V37.666ZM118.145 33.4878C118.145 33.3933 118.179 33.3168 118.246 33.2583C118.314 33.1953 118.397 33.1638 118.496 33.1638C118.591 33.1638 118.669 33.1953 118.732 33.2583C118.795 33.3168 118.827 33.3933 118.827 33.4878C118.827 33.5913 118.795 33.6768 118.732 33.7443C118.669 33.8073 118.591 33.8388 118.496 33.8388C118.397 33.8388 118.314 33.8073 118.246 33.7443C118.179 33.6768 118.145 33.5913 118.145 33.4878ZM120.41 37.666H119.87V34.6285H120.41V34.9998C120.523 34.8738 120.669 34.7725 120.849 34.696C121.033 34.615 121.218 34.5745 121.402 34.5745C122.244 34.5745 122.665 35.02 122.665 35.911V37.666H122.125V36.0123C122.125 35.3913 121.839 35.0808 121.267 35.0808C120.925 35.0808 120.64 35.2113 120.41 35.4723V37.666ZM123.737 35.2698L123.595 34.8378C123.896 34.6533 124.234 34.561 124.607 34.561C125.017 34.561 125.314 34.6623 125.498 34.8648C125.683 35.0673 125.775 35.38 125.775 35.803V37.666H125.262V37.2745C125.024 37.567 124.7 37.7133 124.29 37.7133C124.011 37.7133 123.786 37.63 123.615 37.4635C123.444 37.2925 123.359 37.063 123.359 36.775C123.359 36.478 123.464 36.244 123.676 36.073C123.887 35.8975 124.164 35.8098 124.506 35.8098C124.826 35.8098 125.078 35.875 125.262 36.0055C125.262 35.6635 125.215 35.4183 125.12 35.2698C125.026 35.1213 124.844 35.047 124.574 35.047C124.299 35.047 124.02 35.1213 123.737 35.2698ZM124.479 37.2273C124.781 37.2273 125.042 37.0968 125.262 36.8358V36.451C125.073 36.316 124.846 36.2485 124.58 36.2485C124.396 36.2485 124.241 36.2935 124.115 36.3835C123.993 36.469 123.932 36.5905 123.932 36.748C123.932 36.8965 123.98 37.0135 124.074 37.099C124.173 37.1845 124.308 37.2273 124.479 37.2273ZM126.679 37.3825V32.941H127.219V34.9188C127.332 34.8108 127.474 34.7253 127.645 34.6623C127.82 34.5948 127.993 34.561 128.164 34.561C128.61 34.561 128.961 34.7028 129.217 34.9863C129.478 35.2653 129.609 35.6365 129.609 36.1C129.609 36.5995 129.456 36.9978 129.15 37.2948C128.844 37.5873 128.434 37.7335 127.921 37.7335C127.413 37.7335 126.999 37.6165 126.679 37.3825ZM128.043 35.0673C127.885 35.0673 127.73 35.1055 127.577 35.182C127.424 35.2585 127.305 35.3508 127.219 35.4588V37.018C127.426 37.1575 127.669 37.2273 127.948 37.2273C128.268 37.2273 128.529 37.1283 128.731 36.9303C128.934 36.7323 129.035 36.469 129.035 36.1405C129.035 35.8075 128.945 35.5465 128.765 35.3575C128.585 35.164 128.344 35.0673 128.043 35.0673ZM130.384 36.856V32.941H130.924V36.613C130.924 37.0135 131.043 37.2138 131.282 37.2138C131.399 37.2138 131.527 37.1688 131.667 37.0788L131.788 37.4905C131.595 37.6435 131.356 37.72 131.073 37.72C130.614 37.72 130.384 37.432 130.384 36.856ZM134.738 36.91L134.907 37.3353C134.614 37.6008 134.234 37.7335 133.766 37.7335C133.271 37.7335 132.877 37.5895 132.585 37.3015C132.288 37.0135 132.139 36.6288 132.139 36.1473C132.139 35.6928 132.279 35.3148 132.558 35.0133C132.832 34.7118 133.215 34.561 133.705 34.561C134.11 34.561 134.446 34.6915 134.711 34.9525C134.981 35.209 135.116 35.542 135.116 35.9515C135.116 36.082 135.105 36.2035 135.082 36.316H132.747C132.769 36.5995 132.875 36.8223 133.064 36.9843C133.258 37.1463 133.505 37.2273 133.807 37.2273C134.203 37.2273 134.513 37.1215 134.738 36.91ZM133.678 35.0673C133.413 35.0673 133.192 35.1415 133.017 35.29C132.846 35.4385 132.745 35.6343 132.713 35.8773H134.556C134.542 35.6253 134.457 35.4273 134.299 35.2833C134.146 35.1393 133.939 35.0673 133.678 35.0673Z" fill="#023020"/>
<path d="M77.4641 49.0747H76.8904V44.3497H79.5566V44.8897H77.4641V46.5637H79.3541V47.1037H77.4641V49.0747ZM80.3516 48.6967C80.0546 48.3907 79.9061 48.0105 79.9061 47.556C79.9061 47.097 80.0546 46.719 80.3516 46.422C80.6531 46.1205 81.0446 45.9697 81.5261 45.9697C82.0076 45.9697 82.3968 46.1205 82.6938 46.422C82.9953 46.719 83.1461 47.097 83.1461 47.556C83.1461 48.015 82.9953 48.3952 82.6938 48.6967C82.3968 48.9937 82.0076 49.1422 81.5261 49.1422C81.0491 49.1422 80.6576 48.9937 80.3516 48.6967ZM80.7768 46.7797C80.5788 46.9777 80.4798 47.2365 80.4798 47.556C80.4798 47.8755 80.5766 48.1342 80.7701 48.3322C80.9681 48.5347 81.2201 48.636 81.5261 48.636C81.8321 48.636 82.0818 48.537 82.2753 48.339C82.4733 48.1365 82.5723 47.8755 82.5723 47.556C82.5723 47.2455 82.4733 46.9867 82.2753 46.7797C82.0818 46.5772 81.8321 46.476 81.5261 46.476C81.2201 46.476 80.9703 46.5772 80.7768 46.7797ZM84.4652 49.0747H83.9252V46.0372H84.4652V46.395C84.6452 46.1205 84.8995 45.9832 85.228 45.9832C85.4395 45.9832 85.597 46.0215 85.7005 46.098L85.5115 46.6042C85.381 46.5277 85.2437 46.4895 85.0997 46.4895C84.8252 46.4895 84.6137 46.6335 84.4652 46.9215V49.0747ZM88.6154 48.3187L88.7842 48.744C88.4917 49.0095 88.1114 49.1422 87.6434 49.1422C87.1484 49.1422 86.7547 48.9982 86.4622 48.7102C86.1652 48.4222 86.0167 48.0375 86.0167 47.556C86.0167 47.1015 86.1562 46.7235 86.4352 46.422C86.7097 46.1205 87.0922 45.9697 87.5827 45.9697C87.9877 45.9697 88.3229 46.1002 88.5884 46.3612C88.8584 46.6177 88.9934 46.9507 88.9934 47.3602C88.9934 47.4907 88.9822 47.6122 88.9597 47.7247H86.6242C86.6467 48.0082 86.7524 48.231 86.9414 48.393C87.1349 48.555 87.3824 48.636 87.6839 48.636C88.0799 48.636 88.3904 48.5302 88.6154 48.3187ZM87.5557 46.476C87.2902 46.476 87.0697 46.5502 86.8942 46.6987C86.7232 46.8472 86.6219 47.043 86.5904 47.286H88.4332C88.4197 47.034 88.3342 46.836 88.1767 46.692C88.0237 46.548 87.8167 46.476 87.5557 46.476ZM91.265 48.2512C91.265 48.1432 91.2087 48.0532 91.0962 47.9812C90.9837 47.9092 90.8465 47.8507 90.6845 47.8057C90.527 47.7562 90.3672 47.7 90.2052 47.637C90.0432 47.574 89.906 47.475 89.7935 47.34C89.681 47.2005 89.6247 47.0295 89.6247 46.827C89.6247 46.5705 89.7192 46.3635 89.9082 46.206C90.0972 46.0485 90.347 45.9697 90.6575 45.9697C91.103 45.9697 91.4517 46.089 91.7037 46.3275L91.4472 46.7392C91.2222 46.5412 90.968 46.4422 90.6845 46.4422C90.5405 46.4422 90.4235 46.4782 90.3335 46.5502C90.2435 46.6222 90.1985 46.7122 90.1985 46.8202C90.1985 46.9372 90.2547 47.034 90.3672 47.1105C90.4797 47.1825 90.6147 47.2432 90.7722 47.2927C90.9342 47.3377 91.0962 47.3917 91.2582 47.4547C91.4202 47.5132 91.5575 47.6077 91.67 47.7382C91.7825 47.8687 91.8387 48.0307 91.8387 48.2242C91.8387 48.5257 91.7262 48.7552 91.5012 48.9127C91.2807 49.0657 91.0017 49.1422 90.6642 49.1422C90.4257 49.1422 90.1985 49.0927 89.9825 48.9937C89.762 48.8902 89.6157 48.7822 89.5437 48.6697L89.8475 48.285C89.9375 48.3885 90.068 48.4785 90.239 48.555C90.419 48.6315 90.581 48.6697 90.725 48.6697C90.8825 48.6697 91.0107 48.6337 91.1097 48.5617C91.2132 48.4852 91.265 48.3817 91.265 48.2512ZM92.5589 47.9205V45.1935H93.0989V46.0372H94.2126V46.5435H93.0989V47.8665C93.0989 48.3705 93.2789 48.6225 93.6389 48.6225C93.8144 48.6225 93.9741 48.5662 94.1181 48.4537L94.2869 48.8722C94.0754 49.0432 93.8166 49.1287 93.5106 49.1287C93.1821 49.1287 92.9414 49.0297 92.7884 48.8317C92.6354 48.6337 92.5589 48.33 92.5589 47.9205ZM97.3186 49.0747H96.7449V44.3497H97.3254L99.1006 46.773L100.802 44.3497H101.348V49.0747H100.775V45.2542L99.1006 47.6032H99.0129L97.3186 45.2745V49.0747ZM102.702 46.6785L102.561 46.2465C102.862 46.062 103.2 45.9697 103.573 45.9697C103.983 45.9697 104.28 46.071 104.464 46.2735C104.649 46.476 104.741 46.7887 104.741 47.2117V49.0747H104.228V48.6832C103.989 48.9757 103.665 49.122 103.256 49.122C102.977 49.122 102.752 49.0387 102.581 48.8722C102.41 48.7012 102.324 48.4717 102.324 48.1837C102.324 47.8867 102.43 47.6527 102.642 47.4817C102.853 47.3062 103.13 47.2185 103.472 47.2185C103.791 47.2185 104.043 47.2837 104.228 47.4142C104.228 47.0722 104.181 46.827 104.086 46.6785C103.992 46.53 103.809 46.4557 103.539 46.4557C103.265 46.4557 102.986 46.53 102.702 46.6785ZM103.445 48.636C103.746 48.636 104.007 48.5055 104.228 48.2445V47.8597C104.039 47.7247 103.812 47.6572 103.546 47.6572C103.362 47.6572 103.206 47.7022 103.08 47.7922C102.959 47.8777 102.898 47.9992 102.898 48.1567C102.898 48.3052 102.945 48.4222 103.04 48.5077C103.139 48.5932 103.274 48.636 103.445 48.636ZM106.185 49.0747H105.645V46.0372H106.185V46.4085C106.298 46.2825 106.444 46.1812 106.624 46.1047C106.808 46.0237 106.993 45.9832 107.177 45.9832C108.019 45.9832 108.44 46.4287 108.44 47.3197V49.0747H107.9V47.421C107.9 46.8 107.614 46.4895 107.042 46.4895C106.7 46.4895 106.415 46.62 106.185 46.881V49.0747ZM109.512 46.6785L109.37 46.2465C109.672 46.062 110.009 45.9697 110.383 45.9697C110.792 45.9697 111.089 46.071 111.274 46.2735C111.458 46.476 111.55 46.7887 111.55 47.2117V49.0747H111.037V48.6832C110.799 48.9757 110.475 49.122 110.065 49.122C109.786 49.122 109.561 49.0387 109.39 48.8722C109.219 48.7012 109.134 48.4717 109.134 48.1837C109.134 47.8867 109.24 47.6527 109.451 47.4817C109.663 47.3062 109.939 47.2185 110.281 47.2185C110.601 47.2185 110.853 47.2837 111.037 47.4142C111.037 47.0722 110.99 46.827 110.896 46.6785C110.801 46.53 110.619 46.4557 110.349 46.4557C110.074 46.4557 109.795 46.53 109.512 46.6785ZM110.254 48.636C110.556 48.636 110.817 48.5055 111.037 48.2445V47.8597C110.848 47.7247 110.621 47.6572 110.356 47.6572C110.171 47.6572 110.016 47.7022 109.89 47.7922C109.768 47.8777 109.708 47.9992 109.708 48.1567C109.708 48.3052 109.755 48.4222 109.849 48.5077C109.948 48.5932 110.083 48.636 110.254 48.636ZM112.036 49.5135C112.036 49.2795 112.122 49.0837 112.293 48.9262C112.464 48.7687 112.702 48.6562 113.008 48.5887C112.959 48.5257 112.934 48.4425 112.934 48.339C112.934 48.2355 112.961 48.15 113.015 48.0825C112.799 47.997 112.63 47.8665 112.509 47.691C112.392 47.5155 112.333 47.313 112.333 47.0835C112.333 46.7685 112.446 46.5052 112.671 46.2937C112.9 46.0777 113.202 45.9697 113.575 45.9697C113.863 45.9697 114.12 46.044 114.345 46.1925L115.236 45.9765L115.249 46.4152L114.675 46.557C114.77 46.7145 114.817 46.89 114.817 47.0835C114.817 47.394 114.702 47.655 114.473 47.8665C114.248 48.0735 113.949 48.177 113.575 48.177C113.472 48.177 113.404 48.1747 113.373 48.1702C113.35 48.2242 113.339 48.2805 113.339 48.339C113.339 48.42 113.359 48.4875 113.4 48.5415C113.409 48.5415 113.436 48.5415 113.481 48.5415C113.53 48.537 113.564 48.5347 113.582 48.5347C114.054 48.5347 114.43 48.6202 114.709 48.7912C114.988 48.9577 115.128 49.1985 115.128 49.5135C115.128 49.8195 114.988 50.0557 114.709 50.2222C114.43 50.3932 114.054 50.4787 113.582 50.4787C113.105 50.4787 112.727 50.3955 112.448 50.229C112.173 50.067 112.036 49.8285 112.036 49.5135ZM114.621 49.5135C114.621 49.347 114.529 49.2142 114.345 49.1152C114.16 49.0207 113.906 48.9735 113.582 48.9735C113.258 48.9735 113.004 49.0207 112.819 49.1152C112.635 49.2142 112.542 49.347 112.542 49.5135C112.542 49.68 112.635 49.8082 112.819 49.8982C113.004 49.9927 113.258 50.04 113.582 50.04C113.906 50.04 114.16 49.995 114.345 49.905C114.529 49.815 114.621 49.6845 114.621 49.5135ZM112.839 47.0835C112.839 47.2725 112.907 47.43 113.042 47.556C113.181 47.6775 113.359 47.7382 113.575 47.7382C113.791 47.7382 113.967 47.6775 114.102 47.556C114.241 47.4345 114.311 47.277 114.311 47.0835C114.311 46.89 114.243 46.7302 114.108 46.6042C113.969 46.4737 113.791 46.4085 113.575 46.4085C113.359 46.4085 113.181 46.4737 113.042 46.6042C112.907 46.7302 112.839 46.89 112.839 47.0835ZM118.186 48.3187L118.355 48.744C118.062 49.0095 117.682 49.1422 117.214 49.1422C116.719 49.1422 116.325 48.9982 116.033 48.7102C115.736 48.4222 115.587 48.0375 115.587 47.556C115.587 47.1015 115.727 46.7235 116.006 46.422C116.28 46.1205 116.663 45.9697 117.153 45.9697C117.558 45.9697 117.894 46.1002 118.159 46.3612C118.429 46.6177 118.564 46.9507 118.564 47.3602C118.564 47.4907 118.553 47.6122 118.53 47.7247H116.195C116.217 48.0082 116.323 48.231 116.512 48.393C116.706 48.555 116.953 48.636 117.255 48.636C117.651 48.636 117.961 48.5302 118.186 48.3187ZM117.126 46.476C116.861 46.476 116.64 46.5502 116.465 46.6987C116.294 46.8472 116.193 47.043 116.161 47.286H118.004C117.99 47.034 117.905 46.836 117.747 46.692C117.594 46.548 117.387 46.476 117.126 46.476ZM123.806 47.0835V49.0747H123.266V47.232C123.266 46.737 123.048 46.4895 122.611 46.4895C122.436 46.4895 122.276 46.53 122.132 46.611C121.992 46.6875 121.887 46.7932 121.815 46.9282C121.819 46.9507 121.821 47.0227 121.821 47.1442V49.0747H121.281V47.1172C121.281 46.9237 121.223 46.7707 121.106 46.6582C120.993 46.5457 120.836 46.4895 120.633 46.4895C120.296 46.4895 120.03 46.6267 119.837 46.9012V49.0747H119.297V46.0372H119.837V46.422C119.949 46.2915 120.096 46.1857 120.276 46.1047C120.46 46.0237 120.649 45.9832 120.843 45.9832C121.072 45.9832 121.268 46.0305 121.43 46.125C121.592 46.2195 121.702 46.3477 121.761 46.5097C121.873 46.3477 122.024 46.2195 122.213 46.125C122.402 46.0305 122.607 45.9832 122.827 45.9832C123.48 45.9832 123.806 46.35 123.806 47.0835ZM127.111 48.3187L127.28 48.744C126.988 49.0095 126.607 49.1422 126.139 49.1422C125.644 49.1422 125.251 48.9982 124.958 48.7102C124.661 48.4222 124.513 48.0375 124.513 47.556C124.513 47.1015 124.652 46.7235 124.931 46.422C125.206 46.1205 125.588 45.9697 126.079 45.9697C126.484 45.9697 126.819 46.1002 127.084 46.3612C127.354 46.6177 127.489 46.9507 127.489 47.3602C127.489 47.4907 127.478 47.6122 127.456 47.7247H125.12C125.143 48.0082 125.248 48.231 125.437 48.393C125.631 48.555 125.878 48.636 126.18 48.636C126.576 48.636 126.886 48.5302 127.111 48.3187ZM126.052 46.476C125.786 46.476 125.566 46.5502 125.39 46.6987C125.219 46.8472 125.118 47.043 125.086 47.286H126.929C126.916 47.034 126.83 46.836 126.673 46.692C126.52 46.548 126.313 46.476 126.052 46.476ZM128.762 49.0747H128.222V46.0372H128.762V46.4085C128.875 46.2825 129.021 46.1812 129.201 46.1047C129.385 46.0237 129.57 45.9832 129.754 45.9832C130.596 45.9832 131.017 46.4287 131.017 47.3197V49.0747H130.477V47.421C130.477 46.8 130.191 46.4895 129.619 46.4895C129.277 46.4895 128.992 46.62 128.762 46.881V49.0747ZM131.859 47.9205V45.1935H132.399V46.0372H133.513V46.5435H132.399V47.8665C132.399 48.3705 132.579 48.6225 132.939 48.6225C133.115 48.6225 133.274 48.5662 133.418 48.4537L133.587 48.8722C133.376 49.0432 133.117 49.1287 132.811 49.1287C132.482 49.1287 132.242 49.0297 132.089 48.8317C131.936 48.6337 131.859 48.33 131.859 47.9205Z" fill="#023020"/>
<path d="M92.4506 57.4459H92.9973L92.0253 60.5104H91.5528L90.7968 58.5326C90.7608 58.4381 90.7226 58.3144 90.6821 58.1614C90.6416 58.3099 90.5988 58.4404 90.5538 58.5529L89.8181 60.5104H89.3726L88.3668 57.4459H88.9473L89.5413 59.3629C89.5503 59.3944 89.5616 59.4394 89.5751 59.4979C89.5931 59.5564 89.6088 59.6171 89.6223 59.6801C89.6403 59.7386 89.6516 59.7746 89.6561 59.7881C89.7371 59.5091 89.7798 59.3674 89.7843 59.3629L90.4728 57.4459H90.9386L91.6338 59.3561L91.7756 59.7949C91.8071 59.6419 91.8476 59.4866 91.8971 59.3291L92.4506 57.4459ZM97.2164 57.4459H97.7632L96.7912 60.5104H96.3187L95.5627 58.5326C95.5267 58.4381 95.4884 58.3144 95.4479 58.1614C95.4074 58.3099 95.3647 58.4404 95.3197 58.5529L94.5839 60.5104H94.1384L93.1327 57.4459H93.7132L94.3072 59.3629C94.3162 59.3944 94.3274 59.4394 94.3409 59.4979C94.3589 59.5564 94.3747 59.6171 94.3882 59.6801C94.4062 59.7386 94.4174 59.7746 94.4219 59.7881C94.5029 59.5091 94.5457 59.3674 94.5502 59.3629L95.2387 57.4459H95.7044L96.3997 59.3561L96.5414 59.7949C96.5729 59.6419 96.6134 59.4866 96.6629 59.3291L97.2164 57.4459ZM101.982 57.4459H102.529L101.557 60.5104H101.085L100.329 58.5326C100.293 58.4381 100.254 58.3144 100.214 58.1614C100.173 58.3099 100.131 58.4404 100.086 58.5529L99.3498 60.5104H98.9043L97.8986 57.4459H98.4791L99.0731 59.3629C99.0821 59.3944 99.0933 59.4394 99.1068 59.4979C99.1248 59.5564 99.1406 59.6171 99.1541 59.6801C99.1721 59.7386 99.1833 59.7746 99.1878 59.7881C99.2688 59.5091 99.3116 59.3674 99.3161 59.3629L100.005 57.4459H100.47L101.166 59.3561L101.307 59.7949C101.339 59.6419 101.379 59.4866 101.429 59.3291L101.982 57.4459ZM102.71 60.1189C102.71 60.0244 102.746 59.9411 102.818 59.8691C102.895 59.7971 102.987 59.7611 103.095 59.7611C103.19 59.7611 103.273 59.7971 103.345 59.8691C103.417 59.9411 103.453 60.0244 103.453 60.1189C103.453 60.2269 103.419 60.3191 103.352 60.3956C103.284 60.4676 103.199 60.5036 103.095 60.5036C102.987 60.5036 102.895 60.4676 102.818 60.3956C102.746 60.3191 102.71 60.2269 102.71 60.1189ZM104.816 61.8334H104.276V57.4459H104.816V57.8036C104.924 57.6776 105.073 57.5764 105.262 57.4999C105.451 57.4189 105.646 57.3784 105.849 57.3784C106.281 57.3784 106.621 57.5224 106.868 57.8104C107.125 58.0939 107.253 58.4629 107.253 58.9174C107.253 59.3809 107.107 59.7701 106.814 60.0851C106.526 60.3956 106.146 60.5509 105.673 60.5509C105.309 60.5509 105.023 60.4811 104.816 60.3416V61.8334ZM105.694 57.8846C105.334 57.8846 105.041 58.0241 104.816 58.3031V59.8084C105.055 59.9659 105.325 60.0446 105.626 60.0446C105.946 60.0446 106.2 59.9434 106.389 59.7409C106.582 59.5339 106.679 59.2661 106.679 58.9376C106.679 58.6181 106.591 58.3639 106.416 58.1749C106.24 57.9814 106 57.8846 105.694 57.8846ZM110.423 59.7274L110.592 60.1526C110.299 60.4181 109.919 60.5509 109.451 60.5509C108.956 60.5509 108.562 60.4069 108.27 60.1189C107.973 59.8309 107.824 59.4461 107.824 58.9646C107.824 58.5101 107.964 58.1321 108.243 57.8306C108.517 57.5291 108.9 57.3784 109.39 57.3784C109.795 57.3784 110.131 57.5089 110.396 57.7699C110.666 58.0264 110.801 58.3594 110.801 58.7689C110.801 58.8994 110.79 59.0209 110.767 59.1334H108.432C108.454 59.4169 108.56 59.6396 108.749 59.8016C108.943 59.9636 109.19 60.0446 109.492 60.0446C109.888 60.0446 110.198 59.9389 110.423 59.7274ZM109.363 57.8846C109.098 57.8846 108.877 57.9589 108.702 58.1074C108.531 58.2559 108.43 58.4516 108.398 58.6946H110.241C110.227 58.4426 110.142 58.2446 109.984 58.1006C109.831 57.9566 109.624 57.8846 109.363 57.8846ZM112.141 60.4834H111.601V56.9531C111.601 56.5391 111.693 56.2264 111.878 56.0149C112.062 55.7989 112.326 55.6909 112.668 55.6909C113.023 55.6909 113.293 55.7809 113.478 55.9609L113.289 56.3726C113.145 56.2556 112.967 56.1971 112.755 56.1971C112.346 56.1971 112.141 56.4694 112.141 57.0139V57.4459H113.154V57.9521H112.141V60.4834ZM116.038 59.6531L116.294 60.0446C116.033 60.3821 115.644 60.5509 115.127 60.5509C114.641 60.5509 114.247 60.4069 113.945 60.1189C113.648 59.8309 113.5 59.4461 113.5 58.9646C113.5 58.5191 113.646 58.1434 113.939 57.8374C114.231 57.5314 114.598 57.3784 115.039 57.3784C115.57 57.3784 115.968 57.5111 116.234 57.7766L115.984 58.2019C115.75 57.9904 115.46 57.8846 115.113 57.8846C114.83 57.8846 114.584 57.9881 114.377 58.1951C114.175 58.3976 114.074 58.6541 114.074 58.9646C114.074 59.2931 114.177 59.5541 114.384 59.7476C114.596 59.9456 114.857 60.0446 115.167 60.0446C115.518 60.0446 115.808 59.9141 116.038 59.6531ZM116.909 60.1189C116.909 60.0244 116.945 59.9411 117.017 59.8691C117.094 59.7971 117.186 59.7611 117.294 59.7611C117.388 59.7611 117.472 59.7971 117.544 59.8691C117.616 59.9411 117.652 60.0244 117.652 60.1189C117.652 60.2269 117.618 60.3191 117.55 60.3956C117.483 60.4676 117.397 60.5036 117.294 60.5036C117.186 60.5036 117.094 60.4676 117.017 60.3956C116.945 60.3191 116.909 60.2269 116.909 60.1189ZM118.718 60.1054C118.421 59.7994 118.272 59.4191 118.272 58.9646C118.272 58.5056 118.421 58.1276 118.718 57.8306C119.019 57.5291 119.411 57.3784 119.892 57.3784C120.374 57.3784 120.763 57.5291 121.06 57.8306C121.362 58.1276 121.512 58.5056 121.512 58.9646C121.512 59.4236 121.362 59.8039 121.06 60.1054C120.763 60.4024 120.374 60.5509 119.892 60.5509C119.415 60.5509 119.024 60.4024 118.718 60.1054ZM119.143 58.1884C118.945 58.3864 118.846 58.6451 118.846 58.9646C118.846 59.2841 118.943 59.5429 119.136 59.7409C119.334 59.9434 119.586 60.0446 119.892 60.0446C120.198 60.0446 120.448 59.9456 120.642 59.7476C120.84 59.5451 120.939 59.2841 120.939 58.9646C120.939 58.6541 120.84 58.3954 120.642 58.1884C120.448 57.9859 120.198 57.8846 119.892 57.8846C119.586 57.8846 119.337 57.9859 119.143 58.1884ZM122.831 60.4834H122.291V57.4459H122.831V57.8036C123.011 57.5291 123.266 57.3919 123.594 57.3919C123.806 57.3919 123.963 57.4301 124.067 57.5066L123.878 58.0129C123.747 57.9364 123.61 57.8981 123.466 57.8981C123.191 57.8981 122.98 58.0421 122.831 58.3301V60.4834ZM124.167 60.9221C124.167 60.6881 124.252 60.4924 124.423 60.3349C124.594 60.1774 124.833 60.0649 125.139 59.9974C125.089 59.9344 125.065 59.8511 125.065 59.7476C125.065 59.6441 125.092 59.5586 125.146 59.4911C124.93 59.4056 124.761 59.2751 124.639 59.0996C124.522 58.9241 124.464 58.7216 124.464 58.4921C124.464 58.1771 124.576 57.9139 124.801 57.7024C125.031 57.4864 125.332 57.3784 125.706 57.3784C125.994 57.3784 126.25 57.4526 126.475 57.6011L127.366 57.3851L127.38 57.8239L126.806 57.9656C126.901 58.1231 126.948 58.2986 126.948 58.4921C126.948 58.8026 126.833 59.0636 126.604 59.2751C126.379 59.4821 126.079 59.5856 125.706 59.5856C125.602 59.5856 125.535 59.5834 125.503 59.5789C125.481 59.6329 125.47 59.6891 125.47 59.7476C125.47 59.8286 125.49 59.8961 125.53 59.9501C125.539 59.9501 125.566 59.9501 125.611 59.9501C125.661 59.9456 125.695 59.9434 125.713 59.9434C126.185 59.9434 126.561 60.0289 126.84 60.1999C127.119 60.3664 127.258 60.6071 127.258 60.9221C127.258 61.2281 127.119 61.4644 126.84 61.6309C126.561 61.8019 126.185 61.8874 125.713 61.8874C125.236 61.8874 124.858 61.8041 124.579 61.6376C124.304 61.4756 124.167 61.2371 124.167 60.9221ZM126.752 60.9221C126.752 60.7556 126.66 60.6229 126.475 60.5239C126.291 60.4294 126.037 60.3821 125.713 60.3821C125.389 60.3821 125.134 60.4294 124.95 60.5239C124.765 60.6229 124.673 60.7556 124.673 60.9221C124.673 61.0886 124.765 61.2169 124.95 61.3069C125.134 61.4014 125.389 61.4486 125.713 61.4486C126.037 61.4486 126.291 61.4036 126.475 61.3136C126.66 61.2236 126.752 61.0931 126.752 60.9221ZM124.97 58.4921C124.97 58.6811 125.038 58.8386 125.173 58.9646C125.312 59.0861 125.49 59.1469 125.706 59.1469C125.922 59.1469 126.097 59.0861 126.232 58.9646C126.372 58.8431 126.442 58.6856 126.442 58.4921C126.442 58.2986 126.374 58.1389 126.239 58.0129C126.1 57.8824 125.922 57.8171 125.706 57.8171C125.49 57.8171 125.312 57.8824 125.173 58.0129C125.038 58.1389 124.97 58.2986 124.97 58.4921Z" fill="#023020"/>
<path d="M79.0267 12.0288V14.2373H78.3288V8.4903C78.5587 8.4903 78.8023 8.48757 79.0595 8.48209C79.3168 8.47662 79.574 8.47388 79.8313 8.47388C80.5866 8.47388 81.1285 8.64356 81.4569 8.9829C81.7907 9.31678 81.9577 9.74096 81.9577 10.2555C81.9577 10.7535 81.777 11.1804 81.4158 11.5362C81.0655 11.8865 80.5565 12.0617 79.8887 12.0617C79.5385 12.0617 79.2511 12.0507 79.0267 12.0288ZM79.897 9.13068C79.7984 9.13068 79.5084 9.13616 79.0267 9.1471V11.3638C79.3715 11.3912 79.6507 11.4049 79.8641 11.4049C80.2856 11.4049 80.6167 11.3036 80.8575 11.1011C81.0984 10.8931 81.2188 10.6085 81.2188 10.2472C81.2188 9.89148 81.1066 9.61781 80.8822 9.42624C80.6632 9.2292 80.3348 9.13068 79.897 9.13068ZM86.5526 14.2373H83.2276V8.4903H86.4705V9.1471H83.9254V11.0026H86.2242V11.6594H83.9254V13.5805H86.5526V14.2373ZM88.6478 14.2373H87.9499V8.4903H91.1929V9.1471H88.6478V11.1832H90.9466V11.84H88.6478V14.2373ZM96.43 13.1536L96.7092 13.679C96.5176 13.8761 96.2576 14.0321 95.9292 14.147C95.6008 14.2619 95.256 14.3194 94.8948 14.3194C94.0355 14.3194 93.3321 14.0512 92.7848 13.5148C92.2484 12.9675 91.9802 12.2505 91.9802 11.3638C91.9802 10.51 92.2375 9.80664 92.752 9.25383C93.2665 8.69008 93.9643 8.4082 94.8455 8.4082C95.5735 8.4082 96.1564 8.5943 96.5942 8.96648L96.274 9.49192C95.8909 9.20731 95.4175 9.065 94.8537 9.065C94.2298 9.065 93.718 9.27846 93.3184 9.70538C92.9189 10.1268 92.7191 10.6796 92.7191 11.3638C92.7191 12.048 92.9244 12.6035 93.3349 13.0304C93.7563 13.4519 94.2982 13.6626 94.9604 13.6626C95.5187 13.6626 96.0086 13.4929 96.43 13.1536ZM97.2285 15.945L96.7112 15.7562L99.4452 8.4082L99.9542 8.59703L97.2285 15.945ZM103.886 11.3638C103.886 12.2943 103.73 13.0168 103.418 13.5312C103.112 14.0457 102.652 14.303 102.039 14.303C101.421 14.303 100.95 14.0403 100.627 13.5148C100.315 12.9839 100.159 12.2669 100.159 11.3638C100.159 10.4662 100.312 9.75191 100.619 9.22099C100.931 8.69008 101.399 8.42462 102.023 8.42462C102.652 8.42462 103.117 8.69008 103.418 9.22099C103.73 9.74643 103.886 10.4607 103.886 11.3638ZM102.039 13.6872C102.439 13.6872 102.729 13.4957 102.909 13.1125C103.096 12.7294 103.189 12.1465 103.189 11.3638C103.189 10.5866 103.093 10.0064 102.901 9.62328C102.715 9.23468 102.422 9.04037 102.023 9.04037C101.246 9.04037 100.857 9.81485 100.857 11.3638C100.857 12.9128 101.251 13.6872 102.039 13.6872ZM108.455 10.5674C108.455 11.6238 108.184 12.4886 107.642 13.1618C107.111 13.8241 106.424 14.2099 105.581 14.3194L105.36 13.8022C106.011 13.6763 106.539 13.3971 106.944 12.9648C107.349 12.5324 107.596 11.9823 107.683 11.3145C107.426 11.7907 106.994 12.0288 106.386 12.0288C105.882 12.0288 105.472 11.8619 105.155 11.528C104.832 11.1887 104.67 10.7672 104.67 10.2637C104.67 9.7218 104.856 9.27846 105.228 8.93364C105.595 8.58335 106.019 8.4082 106.501 8.4082C107.119 8.4082 107.598 8.61072 107.938 9.01574C108.283 9.42077 108.455 9.938 108.455 10.5674ZM107.757 10.5674C107.757 10.146 107.65 9.79022 107.437 9.50013C107.223 9.21005 106.914 9.065 106.509 9.065C106.197 9.065 105.929 9.17994 105.705 9.40982C105.48 9.63423 105.368 9.90242 105.368 10.2144C105.368 10.5538 105.475 10.8384 105.688 11.0682C105.907 11.2981 106.194 11.4131 106.55 11.4131C106.846 11.4131 107.1 11.3337 107.314 11.175C107.527 11.0162 107.675 10.8137 107.757 10.5674ZM111.442 12.308H109.479V11.6922H111.442V12.308ZM114.083 14.3194C113.677 14.3194 113.322 14.2346 113.015 14.0649C112.714 13.8952 112.49 13.6517 112.342 13.3342L112.72 12.8662C112.851 13.118 113.037 13.315 113.278 13.4574C113.519 13.5942 113.779 13.6626 114.058 13.6626C114.403 13.6626 114.676 13.5668 114.879 13.3753C115.087 13.1837 115.191 12.9347 115.191 12.6281C115.191 12.3216 115.081 12.0781 114.862 11.8975C114.649 11.7168 114.367 11.6265 114.017 11.6265H113.565V10.9697H113.976C114.244 10.9697 114.474 10.8767 114.665 10.6906C114.868 10.5045 114.969 10.2664 114.969 9.97631C114.969 9.6917 114.884 9.47003 114.715 9.3113C114.55 9.1471 114.323 9.065 114.033 9.065C113.513 9.065 113.119 9.30309 112.851 9.77927L112.482 9.32772C112.613 9.03764 112.818 8.81323 113.097 8.6545C113.382 8.4903 113.71 8.4082 114.083 8.4082C114.564 8.4082 114.947 8.53956 115.232 8.80228C115.522 9.065 115.667 9.41803 115.667 9.86137C115.667 10.1788 115.59 10.458 115.437 10.6988C115.284 10.9396 115.062 11.1202 114.772 11.2407V11.2653C115.111 11.32 115.382 11.476 115.585 11.7333C115.787 11.9905 115.889 12.297 115.889 12.6528C115.889 13.1563 115.719 13.5613 115.38 13.8679C115.046 14.1689 114.613 14.3194 114.083 14.3194ZM117.056 10.0584L116.712 9.52476L118.091 8.45746H118.551V14.2373H117.894V9.40161L117.056 10.0584ZM122.113 12.308H120.151V11.6922H122.113V12.308ZM126.905 11.3638C126.905 12.2943 126.749 13.0168 126.437 13.5312C126.13 14.0457 125.671 14.303 125.058 14.303C124.439 14.303 123.968 14.0403 123.646 13.5148C123.334 12.9839 123.178 12.2669 123.178 11.3638C123.178 10.4662 123.331 9.75191 123.637 9.22099C123.949 8.69008 124.417 8.42462 125.041 8.42462C125.671 8.42462 126.136 8.69008 126.437 9.22099C126.749 9.74643 126.905 10.4607 126.905 11.3638ZM125.058 13.6872C125.457 13.6872 125.747 13.4957 125.928 13.1125C126.114 12.7294 126.207 12.1465 126.207 11.3638C126.207 10.5866 126.111 10.0064 125.92 9.62328C125.734 9.23468 125.441 9.04037 125.041 9.04037C124.264 9.04037 123.875 9.81485 123.875 11.3638C123.875 12.9128 124.27 13.6872 125.058 13.6872ZM131.539 11.3638C131.539 12.2943 131.383 13.0168 131.071 13.5312C130.765 14.0457 130.305 14.303 129.692 14.303C129.073 14.303 128.603 14.0403 128.28 13.5148C127.968 12.9839 127.812 12.2669 127.812 11.3638C127.812 10.4662 127.965 9.75191 128.271 9.22099C128.583 8.69008 129.051 8.42462 129.675 8.42462C130.305 8.42462 130.77 8.69008 131.071 9.22099C131.383 9.74643 131.539 10.4607 131.539 11.3638ZM129.692 13.6872C130.091 13.6872 130.381 13.4957 130.562 13.1125C130.748 12.7294 130.841 12.1465 130.841 11.3638C130.841 10.5866 130.745 10.0064 130.554 9.62328C130.368 9.23468 130.075 9.04037 129.675 9.04037C128.898 9.04037 128.51 9.81485 128.51 11.3638C128.51 12.9128 128.904 13.6872 129.692 13.6872ZM135.467 14.2373H134.81V12.8006H132.159V12.3326L134.539 8.4903H135.295L133.021 12.1438H134.81V10.5428H135.467V12.1438H136.264V12.8006H135.467V14.2373Z" fill="#023020"/>
</svg>
