<svg width="273" height="39" viewBox="0 0 273 39" fill="none" xmlns="http://www.w3.org/2000/svg">
<g clip-path="url(#clip0_3397_54)">
<path d="M268.958 12.4175C268.958 11.8656 269.158 11.4057 269.546 11.0246C269.948 10.6435 270.43 10.4464 270.992 10.4464C271.554 10.4464 272.023 10.6435 272.411 11.0377C272.799 11.4188 273 11.8918 273 12.4306C273 12.9693 272.799 13.4555 272.411 13.8497C272.023 14.2308 271.541 14.4279 270.992 14.4279C270.443 14.4279 269.948 14.2308 269.546 13.8497C269.158 13.4687 268.958 12.9956 268.958 12.4306V12.4175ZM270.979 10.8012C270.524 10.8012 270.135 10.9589 269.814 11.2743C269.493 11.5896 269.332 11.9707 269.332 12.4175C269.332 12.8642 269.493 13.2453 269.814 13.5606C270.135 13.876 270.524 14.0337 270.979 14.0337C271.434 14.0337 271.822 13.876 272.143 13.5606C272.465 13.2453 272.625 12.8642 272.625 12.4175C272.625 11.9707 272.465 11.5896 272.143 11.2743C271.822 10.9589 271.434 10.8012 270.979 10.8012ZM270.537 12.6408V13.5738H270.216V11.2348H270.925C271.514 11.2348 271.809 11.4714 271.809 11.9313C271.809 12.0889 271.755 12.2335 271.661 12.3517C271.554 12.47 271.42 12.562 271.246 12.6014L271.983 13.5869H271.594L270.912 12.654H270.524L270.537 12.6408ZM270.898 11.4582H270.537V12.4043H270.939C271.086 12.4043 271.22 12.3518 271.327 12.2598C271.434 12.1678 271.487 12.0495 271.487 11.9181C271.487 11.6159 271.287 11.4582 270.885 11.4582H270.898Z" fill="#B0A98F"/>
<path d="M83.6601 32.719V31.4838H86.6184V12.3518H84.1019C83.3924 12.3518 82.8168 12.4306 82.3885 12.6014C81.9602 12.7722 81.6121 13.0219 81.3712 13.3635C81.1302 13.7052 80.9295 14.152 80.7956 14.6907C80.6617 15.2426 80.5279 15.8996 80.4074 16.6749H79.1492L79.3633 10.8801C79.524 10.9063 79.7381 10.9326 79.9925 10.9589C80.2468 10.9852 80.5279 11.0115 80.8224 11.0377C81.1302 11.064 81.4247 11.0772 81.7192 11.1034C82.0137 11.1297 82.2814 11.1297 82.5357 11.1297H93.9135C94.1679 11.1297 94.4356 11.1297 94.73 11.1034C95.0245 11.0772 95.319 11.064 95.6135 11.0377C95.908 11.0115 96.1891 10.9852 96.4434 10.9589C96.7111 10.9326 96.9119 10.9063 97.0592 10.8801L97.3135 16.6749H96.0552C95.9348 15.8996 95.8009 15.2294 95.667 14.6907C95.5332 14.152 95.3324 13.7052 95.0915 13.3635C94.8371 13.0219 94.5025 12.7722 94.0742 12.6014C93.6458 12.4437 93.0702 12.3518 92.3608 12.3518H89.8443V31.4838H92.8025V32.719H83.6869H83.6601Z" fill="#B0A98F"/>
<path d="M116.388 32.7847C115.879 32.535 115.478 32.2197 115.157 31.8123C114.835 31.405 114.608 30.9451 114.447 30.4063C114.287 29.8676 114.179 29.3157 114.113 28.7375C114.072 28.3039 114.046 27.8177 114.032 27.2921C114.019 26.7665 113.965 26.1095 113.858 25.3474C113.791 24.7955 113.631 24.3224 113.376 23.9282C113.109 23.534 112.787 23.2187 112.386 22.9821C111.984 22.7456 111.529 22.5748 111.007 22.4565C110.485 22.3383 109.909 22.2857 109.28 22.2857H106.791V31.4838H109.615V32.719H100.754V31.4838H103.578V12.3518H100.754V11.1166H110.338C111.074 11.1166 111.877 11.1823 112.747 11.3137C113.617 11.4451 114.434 11.7079 115.21 12.0889C115.987 12.47 116.629 12.9956 117.138 13.6526C117.646 14.3096 117.914 15.1637 117.914 16.215C117.914 17.1348 117.767 17.9232 117.486 18.5802C117.205 19.2241 116.816 19.7628 116.308 20.1701C115.799 20.5775 115.197 20.906 114.501 21.1294C113.791 21.3528 113.028 21.4973 112.185 21.563V21.7207C112.399 21.747 112.653 21.7864 112.975 21.8652C113.296 21.9441 113.617 22.0361 113.965 22.1543C114.313 22.2726 114.661 22.4434 115.036 22.6536C115.398 22.8639 115.746 23.1135 116.053 23.4289C116.428 23.7968 116.709 24.2042 116.883 24.6509C117.057 25.0977 117.205 25.5708 117.298 26.0701C117.392 26.5694 117.446 27.1082 117.472 27.6863C117.499 28.2645 117.539 28.8821 117.593 29.5391C117.633 30.091 117.74 30.6166 117.927 31.1028C118.101 31.5889 118.383 31.8255 118.757 31.8255C119.052 31.8255 119.293 31.7072 119.467 31.4575C119.641 31.2079 119.788 30.9319 119.895 30.6297L121.06 31.0371C120.979 31.3393 120.846 31.6284 120.685 31.9043C120.511 32.1671 120.323 32.4036 120.083 32.5876C119.855 32.7716 119.574 32.9161 119.266 33.0344C118.945 33.1526 118.61 33.2052 118.262 33.2052C117.512 33.2052 116.883 33.0869 116.375 32.8373L116.388 32.7847ZM106.804 21.0505H109.294C110.043 21.0505 110.739 20.9586 111.382 20.7746C112.024 20.5906 112.573 20.3016 113.042 19.9205C113.51 19.5394 113.885 19.0401 114.139 18.4356C114.407 17.8312 114.527 17.0954 114.527 16.2281C114.527 15.3608 114.394 14.7433 114.139 14.2439C113.872 13.7446 113.55 13.3504 113.149 13.0745C112.747 12.7985 112.305 12.6014 111.81 12.5094C111.315 12.4043 110.833 12.3518 110.351 12.3518H106.804V21.0505Z" fill="#B0A98F"/>
<path d="M142.329 32.903C141.821 32.8635 141.125 32.8241 140.214 32.7847C139.304 32.7453 138.247 32.719 137.055 32.719H124.393V31.4838H127.217V12.3518H124.393V11.1166H139.746C139.96 11.1166 140.188 11.1166 140.415 11.1034C140.643 11.1034 140.87 11.0772 141.111 11.0509C141.339 11.0246 141.54 11.0115 141.714 10.9852L141.968 16.5435H140.71C140.522 15.558 140.295 14.7827 140.04 14.2177C139.773 13.6526 139.411 13.2321 138.929 12.9562C138.447 12.6803 137.818 12.5094 137.055 12.4437C136.292 12.378 135.315 12.3518 134.111 12.3518H130.43V20.6826H132.25C133.281 20.6826 134.07 20.6563 134.633 20.6169C135.195 20.5775 135.623 20.433 135.891 20.1833C136.159 19.9336 136.346 19.5526 136.426 19.027C136.507 18.5013 136.587 17.7655 136.681 16.8194H137.939V26.1358H136.681C136.614 25.1108 136.547 24.3093 136.453 23.7311C136.373 23.153 136.185 22.7325 135.904 22.4697C135.623 22.2069 135.208 22.0492 134.646 21.9966C134.097 21.9441 133.294 21.9178 132.277 21.9178H130.416V31.4838H134.351C135.73 31.4838 136.855 31.4575 137.711 31.405C138.568 31.3524 139.251 31.1947 139.759 30.9057C140.268 30.6297 140.616 30.1961 140.83 29.5916C141.044 29.0003 141.192 28.1594 141.299 27.095H142.557L142.343 32.903H142.329Z" fill="#B0A98F"/>
<path d="M151.806 32.811C151.083 32.5876 150.508 32.3905 150.066 32.2197C149.839 32.1146 149.624 32.0357 149.424 31.9832C149.223 31.9306 149.062 31.9043 148.942 31.9043C148.687 31.9043 148.54 32.0226 148.487 32.246C148.433 32.4693 148.393 32.7584 148.38 33.1132H147.121L147.349 26.3854H148.607C148.754 27.2264 148.969 27.9885 149.263 28.6718C149.558 29.3551 149.932 29.9333 150.401 30.4195C150.856 30.9057 151.405 31.2736 152.034 31.5364C152.663 31.7992 153.386 31.9175 154.202 31.9175C154.644 31.9175 155.126 31.878 155.661 31.7992C156.197 31.7204 156.692 31.5495 157.134 31.2867C157.576 31.0239 157.964 30.6691 158.272 30.2092C158.579 29.7493 158.727 29.1449 158.727 28.409C158.727 27.7126 158.553 27.0819 158.205 26.53C157.857 25.9781 157.428 25.4788 156.92 25.032C156.411 24.5852 155.849 24.2042 155.233 23.8625C154.617 23.5209 154.055 23.2318 153.533 22.9821C152.824 22.6274 152.101 22.2594 151.365 21.8521C150.628 21.4447 149.959 20.998 149.37 20.4987C148.768 19.9993 148.286 19.408 147.898 18.751C147.51 18.094 147.322 17.345 147.322 16.504C147.322 15.5842 147.469 14.7564 147.777 14.0337C148.085 13.311 148.513 12.7065 149.062 12.2072C149.624 11.7079 150.294 11.34 151.07 11.0772C151.86 10.8144 152.73 10.6961 153.694 10.6961C154.577 10.6961 155.327 10.7749 155.942 10.9458C156.558 11.1166 157.08 11.2611 157.495 11.4057C157.709 11.4845 157.897 11.5502 158.057 11.5896C158.231 11.629 158.365 11.6553 158.472 11.6553C158.767 11.6553 158.941 11.5371 159.008 11.3137C159.075 11.0903 159.115 10.8801 159.128 10.6961H160.386L160.453 16.1624H159.195C159.075 15.466 158.807 14.8484 158.419 14.3228C158.031 13.7972 157.576 13.3504 157.067 12.9956C156.558 12.6408 156.009 12.3649 155.42 12.1941C154.831 12.0233 154.283 11.9313 153.787 11.9313C153.372 11.9313 152.931 11.9707 152.462 12.0495C152.007 12.1284 151.579 12.2861 151.191 12.5094C150.802 12.7328 150.481 13.0613 150.227 13.4818C149.972 13.9023 149.852 14.4542 149.852 15.1375C149.852 15.7813 150.013 16.3595 150.361 16.8851C150.695 17.4107 151.124 17.8838 151.632 18.3042C152.141 18.7247 152.69 19.0927 153.279 19.4212C153.868 19.7497 154.417 20.0256 154.912 20.2753C155.608 20.6301 156.344 21.0111 157.134 21.4447C157.924 21.8784 158.646 22.3646 159.302 22.9296C159.958 23.4815 160.507 24.0991 160.935 24.7692C161.364 25.4394 161.578 26.1883 161.578 27.003C161.578 27.9885 161.404 28.8689 161.042 29.6311C160.681 30.3932 160.186 31.0371 159.53 31.5627C158.874 32.0883 158.111 32.4825 157.241 32.7716C156.357 33.0475 155.394 33.1921 154.323 33.1921C153.386 33.1921 152.543 33.0738 151.82 32.8504L151.806 32.811Z" fill="#B0A98F"/>
<path d="M164.938 32.719V31.4838H167.762V12.3518H164.938V11.1166H171.47L177.949 27.8966H177.975L184.039 11.1166H190.638V12.3518H187.814V31.4838H190.638V32.719H181.777V31.4838H184.601V14.0206L184.534 13.9286L177.681 32.719H176.423L169.261 14.1125L169.194 14.2045V31.4838H172.019V32.719H164.911H164.938Z" fill="#B0A98F"/>
<path d="M200.289 32.4036C199.018 31.9043 197.893 31.1947 196.916 30.2487C195.925 29.3026 195.136 28.1331 194.547 26.7402C193.958 25.3474 193.65 23.7706 193.65 22.0098C193.65 20.249 193.944 18.6459 194.547 17.2399C195.149 15.8339 195.939 14.6381 196.916 13.6789C197.893 12.7197 199.031 11.9707 200.289 11.4582C201.561 10.9458 202.859 10.683 204.198 10.683C205.536 10.683 206.848 10.9458 208.106 11.4582C209.378 11.9707 210.502 12.7197 211.48 13.6789C212.457 14.6381 213.26 15.8339 213.849 17.2399C214.451 18.6459 214.746 20.2358 214.746 22.0098C214.746 23.7837 214.451 25.3605 213.849 26.7402C213.246 28.1199 212.457 29.3026 211.48 30.2487C210.489 31.1947 209.365 31.9175 208.106 32.4036C206.835 32.903 205.536 33.1395 204.198 33.1395C202.859 33.1395 201.547 32.8898 200.289 32.4036ZM207.691 31.0633C208.588 30.4983 209.311 29.7493 209.847 28.8164C210.382 27.8834 210.743 26.8191 210.944 25.6365C211.145 24.4538 211.239 23.2449 211.239 22.0098C211.239 20.7746 211.145 19.5526 210.944 18.3568C210.743 17.1479 210.382 16.0704 209.847 15.1112C209.311 14.152 208.588 13.3767 207.691 12.7985C206.795 12.2072 205.63 11.9181 204.198 11.9181C202.766 11.9181 201.641 12.2072 200.731 12.7985C199.821 13.3898 199.098 14.152 198.562 15.1112C198.027 16.0704 197.666 17.1479 197.465 18.3568C197.264 19.5657 197.17 20.7746 197.17 22.0098C197.17 23.2449 197.264 24.4538 197.465 25.6365C197.666 26.8191 198.027 27.8834 198.549 28.8164C199.071 29.7493 199.794 30.4983 200.704 31.0633C201.614 31.6284 202.779 31.9175 204.211 31.9175C205.643 31.9175 206.795 31.6284 207.705 31.0633H207.691Z" fill="#B0A98F"/>
<path d="M217.851 32.719V31.4838H220.675V14.0206C220.675 13.3898 220.515 12.9431 220.194 12.7065C219.872 12.47 219.364 12.3518 218.694 12.3518H217.851V11.1166H223.513L235.212 27.2264V12.3518H232.388V11.1166H239.362V12.3518H236.725V32.719H235.4L222.201 14.4148V31.4838H225.026V32.719H217.864H217.851Z" fill="#B0A98F"/>
<path d="M247.38 32.719V31.4838H250.338V12.3518H247.822C247.112 12.3518 246.537 12.4306 246.108 12.6014C245.68 12.7722 245.332 13.0219 245.091 13.3635C244.85 13.7052 244.649 14.152 244.515 14.6907C244.381 15.2426 244.248 15.8996 244.127 16.6749H242.869L243.083 10.8801C243.244 10.9063 243.458 10.9326 243.712 10.9589C243.967 10.9852 244.248 11.0115 244.542 11.0377C244.85 11.064 245.144 11.0772 245.439 11.1034C245.733 11.1297 246.001 11.1297 246.255 11.1297H257.633C257.888 11.1297 258.155 11.1297 258.45 11.1034C258.744 11.0772 259.039 11.064 259.333 11.0377C259.628 11.0115 259.909 10.9852 260.163 10.9589C260.431 10.9326 260.632 10.9063 260.779 10.8801L261.033 16.6749H259.775C259.654 15.8996 259.521 15.2294 259.387 14.6907C259.253 14.152 259.052 13.7052 258.811 13.3635C258.557 13.0219 258.222 12.7722 257.794 12.6014C257.366 12.4437 256.79 12.3518 256.081 12.3518H253.564V31.4838H256.522V32.719H247.407H247.38Z" fill="#B0A98F"/>
<path d="M64.6659 39L49.5 8.05492L41.897 21.747L49.5 39H64.6659Z" fill="#B0A98F"/>
<path d="M0 39H15.1793L22.769 21.747L15.1793 8.05492L0 39Z" fill="#B0A98F"/>
<path d="M22.769 21.747L32.3398 39L41.8971 21.747L32.3398 0L22.769 21.747Z" fill="#B0A98F"/>
</g>
<defs>
<clipPath id="clip0_3397_54">
<rect width="273" height="39" fill="white"/>
</clipPath>
</defs>
</svg>
