<svg width="349" height="52" viewBox="0 0 349 52" fill="none" xmlns="http://www.w3.org/2000/svg">
<g clip-path="url(#clip0_3427_93498)">
<path d="M91.6585 41.4551H92.5075L90.1727 48.7657H89.485L87.4983 43.5232C87.3201 43.021 87.2097 42.7147 87.1757 42.6125C87.0399 43.0806 86.9295 43.404 86.8531 43.5742L84.9174 48.7657H84.2636L81.8525 41.4551H82.7439L84.374 46.5019L84.6797 47.5572C84.8579 46.987 84.9768 46.6381 85.0278 46.5019L86.8701 41.4551H87.5578L89.4256 46.4934L89.6209 47.0721L89.7991 47.5827C89.8161 47.4976 89.8756 47.2849 89.9774 46.9444L90.1388 46.4168L91.6585 41.4636V41.4551Z" fill="#9A937F"/>
<path d="M103.256 41.4551H104.105L101.77 48.7657H101.082L99.0958 43.5232C98.9175 43.021 98.8071 42.7147 98.7731 42.6125C98.6373 43.0806 98.5269 43.404 98.4505 43.5742L96.5148 48.7657H95.8611L93.4499 41.4551H94.3413L95.9714 46.5019L96.2771 47.5572C96.4554 46.987 96.5742 46.6381 96.6252 46.5019L98.4675 41.4551H99.1552L101.023 46.4934L101.218 47.0721L101.397 47.5827C101.414 47.4976 101.473 47.2849 101.575 46.9444L101.736 46.4168L103.256 41.4636V41.4551Z" fill="#9A937F"/>
<path d="M114.853 41.4551H115.702L113.367 48.7657H112.68L110.693 43.5232C110.515 43.021 110.404 42.7147 110.37 42.6125C110.235 43.0806 110.124 43.404 110.048 43.5742L108.112 48.7657H107.458L105.047 41.4551H105.939L107.569 46.5019L107.874 47.5572C108.053 46.987 108.172 46.6381 108.223 46.5019L110.065 41.4551H110.753L112.62 46.4934L112.816 47.0721L112.994 47.5827C113.011 47.4976 113.07 47.2849 113.172 46.9444L113.334 46.4168L114.853 41.4636V41.4551Z" fill="#9A937F"/>
<path d="M116.39 48.0597C116.39 47.898 116.449 47.7618 116.577 47.6512C116.696 47.5405 116.848 47.481 117.035 47.481C117.196 47.481 117.332 47.5405 117.443 47.6597C117.553 47.7788 117.612 47.915 117.612 48.0597C117.612 48.2299 117.553 48.3831 117.443 48.5107C117.332 48.6384 117.196 48.7065 117.035 48.7065C116.857 48.7065 116.704 48.6384 116.577 48.5107C116.458 48.3831 116.39 48.2299 116.39 48.0597Z" fill="#9A937F"/>
<path d="M119.71 47.9659V37.4468H120.542V42.3404C120.839 42.0425 121.212 41.7957 121.671 41.6C122.129 41.4042 122.588 41.3106 123.055 41.3106C124.107 41.3106 124.939 41.651 125.551 42.3234C126.171 42.9872 126.476 43.8638 126.476 44.9532C126.476 46.1276 126.111 47.0723 125.389 47.7787C124.668 48.4766 123.717 48.817 122.562 48.817C121.408 48.817 120.465 48.5361 119.718 47.9659H119.71ZM122.876 42.0936C122.426 42.0936 121.985 42.2042 121.552 42.4255C121.119 42.6468 120.779 42.9021 120.542 43.2V47.4042C121.127 47.8212 121.815 48.0255 122.605 48.0255C123.479 48.0255 124.192 47.7532 124.744 47.2085C125.313 46.6638 125.593 45.9404 125.593 45.0298C125.593 44.1191 125.347 43.4042 124.855 42.8851C124.362 42.3574 123.7 42.1021 122.868 42.1021L122.876 42.0936Z" fill="#9A937F"/>
<path d="M134.202 47.1488L134.474 47.7871C133.82 48.468 132.937 48.8169 131.816 48.8169C130.696 48.8169 129.745 48.4765 129.049 47.7871C128.344 47.1063 127.996 46.1957 127.996 45.0637C127.996 43.9318 128.318 43.0722 128.955 42.3659C129.609 41.6595 130.5 41.3105 131.647 41.3105C132.572 41.3105 133.353 41.6084 133.981 42.2042C134.601 42.7914 134.907 43.5744 134.907 44.5616C134.907 44.8169 134.89 45.0382 134.856 45.234H128.921C128.955 46.102 129.235 46.7829 129.77 47.2765C130.305 47.7701 131.001 48.0254 131.867 48.0254C132.869 48.0254 133.65 47.7276 134.202 47.1403V47.1488ZM131.562 42.0935C130.798 42.0935 130.169 42.3148 129.694 42.7659C129.218 43.2169 128.947 43.8042 128.87 44.5446H134.049C134.041 43.7871 133.812 43.1914 133.362 42.7488C132.912 42.3148 132.309 42.0935 131.553 42.0935H131.562Z" fill="#9A937F"/>
<path d="M136.808 46.8085V37.4468H137.64V46.3574C137.64 46.9276 137.717 47.3361 137.878 47.5915C138.04 47.8468 138.303 47.9744 138.676 47.9744C139.05 47.9744 139.372 47.8553 139.687 47.6255L139.899 48.2808C139.483 48.6042 138.973 48.7574 138.379 48.7574C137.335 48.7574 136.808 48.1021 136.808 46.8V46.8085Z" fill="#9A937F"/>
<path d="M146.835 47.1488L147.107 47.7871C146.453 48.468 145.57 48.8169 144.45 48.8169C143.329 48.8169 142.378 48.4765 141.682 47.7871C140.977 47.1063 140.629 46.1957 140.629 45.0637C140.629 43.9318 140.952 43.0722 141.588 42.3659C142.242 41.6595 143.134 41.3105 144.28 41.3105C145.205 41.3105 145.986 41.6084 146.615 42.2042C147.234 42.7914 147.54 43.5744 147.54 44.5616C147.54 44.8169 147.523 45.0382 147.489 45.234H141.554C141.588 46.102 141.869 46.7829 142.403 47.2765C142.938 47.7701 143.634 48.0254 144.5 48.0254C145.502 48.0254 146.283 47.7276 146.835 47.1403V47.1488ZM144.195 42.0935C143.431 42.0935 142.802 42.3148 142.327 42.7659C141.852 43.2169 141.58 43.8042 141.504 44.5446H146.682C146.674 43.7871 146.445 43.1914 145.995 42.7488C145.545 42.3148 144.942 42.0935 144.186 42.0935H144.195Z" fill="#9A937F"/>
<path d="M150.274 48.6723H149.442V41.4553H150.274V42.4681C150.571 42.1361 150.961 41.8638 151.437 41.651C151.912 41.4383 152.388 41.3276 152.872 41.3276C153.873 41.3276 154.629 41.5915 155.13 42.1106C155.631 42.6383 155.886 43.4468 155.886 44.5447V48.6638H155.054V44.7064C155.054 42.9787 154.264 42.1106 152.685 42.1106C152.226 42.1106 151.776 42.2127 151.343 42.4255C150.91 42.6383 150.554 42.9021 150.291 43.217V48.6723H150.274Z" fill="#9A937F"/>
<path d="M159.018 48.6723H158.186V37.4468H159.018V48.6723ZM162.78 41.4553H163.866L160.504 44.8425L164.163 48.6723H163.043L159.477 44.9021L162.771 41.4553H162.78Z" fill="#9A937F"/>
<path d="M168.519 48.8169C167.407 48.8169 166.507 48.468 165.802 47.7616C165.097 47.0552 164.749 46.1616 164.749 45.0637C164.749 43.9659 165.097 43.0722 165.802 42.3659C166.507 41.6595 167.415 41.3105 168.519 41.3105C169.623 41.3105 170.531 41.6595 171.236 42.3659C171.94 43.0722 172.288 43.9659 172.288 45.0637C172.288 46.1616 171.94 47.0552 171.236 47.7616C170.531 48.468 169.623 48.8169 168.519 48.8169ZM168.519 48.0254C169.385 48.0254 170.073 47.7531 170.599 47.2084C171.142 46.6552 171.414 45.9403 171.414 45.0637C171.414 44.1871 171.142 43.4893 170.599 42.9276C170.056 42.3744 169.359 42.0935 168.519 42.0935C167.678 42.0935 166.991 42.3744 166.439 42.9276C165.895 43.4808 165.624 44.1957 165.624 45.0637C165.624 45.9318 165.895 46.6382 166.439 47.1999C166.982 47.7531 167.678 48.0339 168.519 48.0339V48.0254Z" fill="#9A937F"/>
<path d="M173.766 48.0597C173.766 47.898 173.825 47.7618 173.952 47.6512C174.071 47.5405 174.224 47.481 174.411 47.481C174.572 47.481 174.708 47.5405 174.818 47.6597C174.929 47.7788 174.988 47.915 174.988 48.0597C174.988 48.2299 174.929 48.3831 174.818 48.5107C174.708 48.6384 174.572 48.7065 174.411 48.7065C174.233 48.7065 174.08 48.6384 173.952 48.5107C173.834 48.3831 173.766 48.2299 173.766 48.0597Z" fill="#9A937F"/>
<path d="M183.351 48.6723H182.519V47.6425C181.848 48.4085 181.025 48.8 180.04 48.8C178.97 48.8 178.121 48.4595 177.484 47.7872C176.848 47.1149 176.525 46.2127 176.525 45.0893C176.525 43.9659 176.89 43.0723 177.629 42.3659C178.376 41.6595 179.31 41.3106 180.447 41.3106C181.279 41.3106 181.976 41.5149 182.527 41.9319V37.4468H183.359V48.6723H183.351ZM180.201 48.0085C180.634 48.0085 181.067 47.8978 181.492 47.6851C181.916 47.4723 182.256 47.2 182.519 46.8681V42.7489C181.857 42.3149 181.169 42.0936 180.456 42.0936C179.59 42.0936 178.868 42.3744 178.282 42.9276C177.697 43.4723 177.399 44.1872 177.399 45.0638C177.399 45.9404 177.654 46.6808 178.163 47.2085C178.673 47.7447 179.352 48.0085 180.193 48.0085H180.201Z" fill="#9A937F"/>
<path d="M191.527 47.1488L191.798 47.7871C191.145 48.468 190.262 48.8169 189.141 48.8169C188.02 48.8169 187.07 48.4765 186.373 47.7871C185.669 47.1063 185.321 46.1957 185.321 45.0637C185.321 43.9318 185.643 43.0722 186.28 42.3659C186.934 41.6595 187.825 41.3105 188.971 41.3105C189.897 41.3105 190.678 41.6084 191.306 42.2042C191.926 42.7914 192.231 43.5744 192.231 44.5616C192.231 44.8169 192.214 45.0382 192.181 45.234H186.246C186.28 46.102 186.56 46.7829 187.095 47.2765C187.63 47.7701 188.326 48.0254 189.192 48.0254C190.194 48.0254 190.975 47.7276 191.527 47.1403V47.1488ZM188.886 42.0935C188.122 42.0935 187.494 42.3148 187.019 42.7659C186.543 43.2169 186.271 43.8042 186.195 44.5446H191.374C191.365 43.7871 191.136 43.1914 190.686 42.7488C190.236 42.3148 189.633 42.0935 188.878 42.0935H188.886Z" fill="#9A937F"/>
<path d="M197.758 46.7747C197.758 46.4427 197.623 46.1789 197.351 45.9747C197.079 45.7704 196.748 45.6087 196.358 45.4981C195.967 45.3789 195.577 45.2513 195.186 45.1066C194.795 44.9619 194.456 44.7321 194.184 44.4172C193.912 44.1023 193.777 43.7023 193.777 43.2257C193.777 42.647 193.989 42.1874 194.413 41.8385C194.838 41.4895 195.398 41.3193 196.094 41.3193C197.088 41.3193 197.835 41.5832 198.353 42.1193L197.996 42.7406C197.504 42.281 196.875 42.0513 196.111 42.0513C195.687 42.0513 195.339 42.1619 195.067 42.3832C194.795 42.6044 194.66 42.8768 194.66 43.2087C194.66 43.5406 194.795 43.83 195.067 44.0512C195.339 44.2725 195.67 44.4427 196.06 44.5619C196.451 44.681 196.842 44.8172 197.232 44.9534C197.623 45.0895 197.962 45.3108 198.234 45.6087C198.506 45.9066 198.641 46.2895 198.641 46.7491C198.641 47.4044 198.395 47.9066 197.911 48.2725C197.427 48.6385 196.808 48.8172 196.052 48.8172C195.585 48.8172 195.093 48.7066 194.583 48.4938C194.099 48.2895 193.768 48.0513 193.59 47.7704L194.057 47.2257C194.261 47.4725 194.566 47.6768 194.965 47.8385C195.381 48.0002 195.772 48.0768 196.145 48.0768C196.612 48.0768 197.003 47.9661 197.308 47.7364C197.614 47.5066 197.767 47.1917 197.767 46.7832L197.758 46.7747Z" fill="#9A937F"/>
<path d="M200.586 38.6468C200.586 38.4851 200.645 38.3574 200.764 38.2638C200.883 38.1702 201.019 38.1191 201.18 38.1191C201.316 38.1191 201.443 38.1702 201.554 38.2723C201.664 38.3745 201.723 38.5021 201.723 38.6468C201.723 38.8255 201.672 38.9702 201.571 39.0808C201.469 39.1915 201.341 39.2425 201.18 39.2425C201.01 39.2425 200.866 39.1915 200.756 39.0808C200.645 38.9702 200.586 38.834 200.586 38.6468ZM201.562 48.6723H200.73V41.4553H201.562V48.6723Z" fill="#9A937F"/>
<path d="M203.116 49.7276C203.116 49.1829 203.311 48.7233 203.693 48.3488C204.075 47.9744 204.618 47.7105 205.323 47.5659C205.162 47.3701 205.085 47.1403 205.085 46.8765C205.085 46.6127 205.179 46.3659 205.357 46.1531C204.89 45.9488 204.517 45.6425 204.253 45.2425C203.99 44.834 203.854 44.3744 203.854 43.8637C203.854 43.1233 204.118 42.5191 204.635 42.0339C205.162 41.5488 205.841 41.3105 206.699 41.3105C207.378 41.3105 207.981 41.4893 208.507 41.8552H208.524L210.57 41.3105V42.0935L209.118 42.4595C209.407 42.902 209.551 43.3616 209.551 43.8552C209.551 44.5701 209.288 45.1829 208.753 45.685C208.218 46.1616 207.539 46.4084 206.707 46.4084C206.41 46.4084 206.172 46.3914 205.985 46.3403C205.892 46.4765 205.841 46.6552 205.841 46.868C205.841 47.1148 205.909 47.3105 206.045 47.4467C206.452 47.4212 206.673 47.4127 206.715 47.4127C207.811 47.4127 208.685 47.6169 209.339 48.0254C209.993 48.434 210.315 48.9957 210.315 49.7276C210.315 50.4595 209.993 51.0042 209.339 51.4042C208.685 51.8042 207.811 52.0084 206.715 52.0084C205.62 52.0084 204.729 51.8127 204.084 51.4127C203.438 51.0212 203.116 50.4595 203.116 49.7276ZM203.965 49.7276C203.965 50.1957 204.211 50.5701 204.703 50.834C205.204 51.1148 205.875 51.251 206.715 51.251C207.556 51.251 208.21 51.1148 208.711 50.834C209.212 50.5531 209.466 50.1871 209.466 49.7276C209.466 49.268 209.22 48.8765 208.719 48.5957C208.227 48.3148 207.556 48.1701 206.715 48.1701C205.875 48.1701 205.221 48.3063 204.712 48.5871C204.211 48.868 203.965 49.2425 203.965 49.7276ZM205.264 42.5786C204.89 42.9191 204.703 43.3446 204.703 43.8637C204.703 44.3829 204.89 44.8084 205.264 45.1488C205.637 45.4893 206.113 45.6595 206.707 45.6595C207.301 45.6595 207.777 45.4893 208.15 45.1488C208.524 44.8084 208.711 44.3829 208.711 43.8637C208.711 43.3446 208.515 42.9276 208.133 42.5786C207.76 42.2382 207.284 42.068 206.707 42.068C206.13 42.068 205.663 42.2382 205.264 42.5786Z" fill="#9A937F"/>
<path d="M212.837 48.6723H212.005V41.4553H212.837V42.4681C213.134 42.1361 213.524 41.8638 214 41.651C214.475 41.4383 214.951 41.3276 215.435 41.3276C216.437 41.3276 217.192 41.5915 217.693 42.1106C218.194 42.6383 218.449 43.4468 218.449 44.5447V48.6638H217.617V44.7064C217.617 42.9787 216.827 42.1106 215.248 42.1106C214.789 42.1106 214.34 42.2127 213.907 42.4255C213.474 42.6383 213.117 42.9021 212.854 43.217V48.6723H212.837Z" fill="#9A937F"/>
<path fill-rule="evenodd" clip-rule="evenodd" d="M51.9166 24.9106C51.9166 22.2297 50.8299 19.7191 48.9026 17.9148C50.8553 16.1191 51.9166 13.6595 51.9166 10.902C51.9166 6.07651 48.3762 1.19141 41.6012 1.19141H0V6.61268H6.26565V15.1999H0V20.6637H6.26565V29.2084H0V34.6723H6.26565V43.2169H0V48.6808H41.6012C47.5782 48.6808 51.9166 44.5786 51.9166 38.9276C51.9166 36.2467 50.8299 33.7361 48.9026 31.9318C50.8553 30.1361 51.9166 27.6765 51.9166 24.9191V24.9106ZM11.5974 6.61268H41.6012C44.1057 6.61268 45.7953 8.34034 45.7953 10.902C45.7953 13.4637 44.1057 15.1914 41.6012 15.1914H11.5974V6.60417V6.61268ZM11.5974 20.6552H41.6012C41.6521 20.6552 41.7031 20.6552 41.737 20.6382C44.1652 20.7063 45.7953 22.4169 45.7953 24.902C45.7953 27.3872 44.1057 29.1914 41.6012 29.1914H11.5974V20.6467V20.6552ZM11.5974 34.6637H41.6012C41.6521 34.6637 41.7031 34.6637 41.737 34.6467C44.1652 34.7148 45.7953 36.4254 45.7953 38.9106C45.7953 41.3957 44.1057 43.1999 41.6012 43.1999H11.5974V34.6552V34.6637Z" fill="#9A937F"/>
<path d="M96.2431 26.8084H84.4674V0.757324H97.0921C100.276 0.808388 102.534 1.72754 103.859 3.53179C104.657 4.63818 105.056 5.96583 105.056 7.50626C105.056 9.04669 104.657 10.3743 103.859 11.3446C103.409 11.8892 102.755 12.3829 101.88 12.8254C103.205 13.3105 104.207 14.0765 104.886 15.1233C105.565 16.1701 105.896 17.4467 105.896 18.936C105.896 20.4254 105.506 21.8637 104.733 23.0892C104.241 23.9063 103.621 24.5871 102.882 25.1403C102.05 25.7786 101.065 26.2126 99.9278 26.4509C98.7901 26.6892 97.559 26.8084 96.2346 26.8084H96.2431ZM98.8241 10.3743C99.5287 9.94881 99.8853 9.19137 99.8853 8.09349C99.8853 6.87647 99.4184 6.07647 98.476 5.69349C97.6609 5.42115 96.6336 5.28498 95.3771 5.28498H89.6633V11.0297H96.0478C97.1855 11.0297 98.1194 10.8084 98.8326 10.3743H98.8241ZM96.1242 15.336H89.6548V22.2807H96.0393C97.177 22.2807 98.0685 22.1275 98.7052 21.8212C99.8599 21.2595 100.429 20.1701 100.429 18.5701C100.429 17.2169 99.8683 16.2807 98.7561 15.7786C98.1364 15.4978 97.2619 15.3531 96.1327 15.336H96.1242Z" fill="#9A937F"/>
<path d="M126.349 21.1487C126.221 22.2892 125.627 23.4551 124.566 24.6296C122.919 26.5019 120.618 27.4381 117.655 27.4381C115.21 27.4381 113.053 26.6466 111.186 25.0721C109.318 23.4977 108.384 20.9274 108.384 17.37C108.384 14.0338 109.224 11.4806 110.914 9.70192C112.603 7.92319 114.785 7.03809 117.477 7.03809C119.073 7.03809 120.516 7.33596 121.798 7.94021C123.08 8.54447 124.133 9.48915 124.973 10.7828C125.729 11.9232 126.213 13.2509 126.434 14.7572C126.561 15.6423 126.612 16.9104 126.595 18.57H113.444C113.512 20.5019 114.115 21.8551 115.261 22.6381C115.957 23.1232 116.789 23.3615 117.765 23.3615C118.801 23.3615 119.642 23.0636 120.287 22.4764C120.643 22.1615 120.949 21.7189 121.221 21.1487H126.349ZM121.374 15.2509C121.289 13.9232 120.89 12.9104 120.168 12.2211C119.446 11.5317 118.546 11.1913 117.477 11.1913C116.314 11.1913 115.414 11.5572 114.768 12.2891C114.123 13.0211 113.724 14.0083 113.563 15.2594H121.374V15.2509Z" fill="#9A937F"/>
<path d="M129.821 0.757324H134.847V26.7999H129.821V0.757324Z" fill="#9A937F"/>
<path d="M155.996 21.1487C155.869 22.2892 155.274 23.4551 154.213 24.6296C152.566 26.5019 150.265 27.4381 147.302 27.4381C144.857 27.4381 142.701 26.6466 140.833 25.0721C138.965 23.4977 138.031 20.9274 138.031 17.37C138.031 14.0338 138.872 11.4806 140.561 9.70192C142.251 7.92319 144.432 7.03809 147.124 7.03809C148.72 7.03809 150.163 7.33596 151.445 7.94021C152.727 8.54447 153.78 9.48915 154.621 10.7828C155.368 11.9232 155.86 13.2509 156.081 14.7572C156.208 15.6423 156.259 16.9104 156.242 18.57H143.091C143.159 20.5019 143.77 21.8551 144.908 22.6381C145.604 23.1232 146.436 23.3615 147.413 23.3615C148.448 23.3615 149.289 23.0636 149.934 22.4764C150.291 22.1615 150.596 21.7189 150.868 21.1487H155.996ZM151.021 15.2509C150.936 13.9232 150.537 12.9104 149.815 12.2211C149.094 11.5317 148.194 11.1913 147.124 11.1913C145.961 11.1913 145.061 11.5572 144.416 12.2891C143.779 13.0211 143.371 14.0083 143.21 15.2594H151.021V15.2509Z" fill="#9A937F"/>
<path d="M168.408 11.2766C166.702 11.2766 165.539 12 164.902 13.4468C164.571 14.2128 164.41 15.1915 164.41 16.383V26.8085H159.401V7.58297H164.248V10.3915C164.894 9.40425 165.505 8.68936 166.082 8.25531C167.118 7.48084 168.425 7.08936 170.013 7.08936C172 7.08936 173.621 7.6085 174.886 8.65531C176.151 9.70212 176.78 11.4298 176.78 13.8383V26.8085H171.635V15.0894C171.635 14.0766 171.499 13.3021 171.227 12.7574C170.735 11.7702 169.792 11.2766 168.408 11.2766Z" fill="#9A937F"/>
<path d="M198.573 26.8085H192.512L187.91 18.5702L185.83 20.7404V26.8H180.897V0.851074H185.83V14.8851L192.087 7.64256H198.31L191.595 15.0128L198.573 26.817V26.8085Z" fill="#9A937F"/>
<path d="M215.868 9.98305C217.489 12.0171 218.304 14.4341 218.304 17.2086C218.304 19.9831 217.489 22.4511 215.868 24.4596C214.246 26.4682 211.784 27.4724 208.481 27.4724C205.179 27.4724 202.717 26.4682 201.095 24.4596C199.473 22.4511 198.658 20.0341 198.658 17.2086C198.658 14.3831 199.473 12.0171 201.095 9.98305C202.717 7.94901 205.179 6.92773 208.481 6.92773C211.784 6.92773 214.246 7.94901 215.868 9.98305ZM208.464 11.1831C206.996 11.1831 205.866 11.7022 205.068 12.749C204.279 13.7958 203.88 15.2767 203.88 17.2086C203.88 19.1405 204.279 20.6299 205.068 21.6767C205.858 22.7235 206.996 23.2511 208.464 23.2511C209.933 23.2511 211.062 22.7235 211.852 21.6767C212.642 20.6299 213.032 19.1405 213.032 17.2086C213.032 15.2767 212.642 13.7873 211.852 12.749C211.062 11.7107 209.933 11.1831 208.464 11.1831Z" fill="#9A937F"/>
<path d="M241.762 23.0383C243.044 23.0383 244.08 22.8936 244.878 22.6127C246.398 22.0681 247.154 21.0638 247.154 19.5915C247.154 18.7319 246.78 18.0681 246.024 17.5915C245.277 17.1319 244.089 16.7234 242.484 16.3744L239.733 15.7532C237.033 15.1404 235.166 14.4766 234.13 13.7532C232.381 12.5532 231.506 10.6723 231.506 8.11912C231.506 5.7872 232.355 3.84677 234.045 2.30635C235.734 0.765923 238.222 -0.00854492 241.499 -0.00854492C244.241 -0.00854492 246.576 0.714859 248.503 2.17018C250.439 3.6255 251.45 5.73614 251.543 8.50209H246.322C246.228 6.93614 245.549 5.82124 244.275 5.16592C243.426 4.73188 242.374 4.5106 241.117 4.5106C239.716 4.5106 238.604 4.79146 237.764 5.36167C236.932 5.92337 236.516 6.71486 236.516 7.72763C236.516 8.65529 236.923 9.35316 237.747 9.81273C238.273 10.1191 239.402 10.4766 241.134 10.8936L245.608 11.9744C247.57 12.4425 249.047 13.0723 250.049 13.8638C251.602 15.0893 252.375 16.8595 252.375 19.1829C252.375 21.5064 251.466 23.5404 249.65 25.1149C247.833 26.6893 245.269 27.4723 241.958 27.4723C238.647 27.4723 235.913 26.6978 233.977 25.1489C232.033 23.6 231.065 21.4723 231.065 18.7574H236.244C236.405 19.9489 236.728 20.834 237.212 21.4298C238.095 22.5021 239.606 23.0383 241.745 23.0383H241.762Z" fill="#9A937F"/>
<path d="M264.626 23.217V26.9787L262.249 27.0638C259.872 27.1489 258.25 26.7319 257.384 25.8297C256.824 25.251 256.535 24.3659 256.535 23.1574V11.3021H253.852V7.71909H256.535V2.34888H261.51V7.71909H264.626V11.3021H261.51V21.4808C261.51 22.2723 261.612 22.7659 261.807 22.9531C262.011 23.1489 262.622 23.2425 263.641 23.2425C263.794 23.2425 263.955 23.2425 264.125 23.234C264.295 23.2255 264.465 23.217 264.626 23.2085V23.217Z" fill="#9A937F"/>
<path d="M279.653 24.0852C279.602 24.1448 279.492 24.3235 279.297 24.6129C279.11 24.9107 278.889 25.1661 278.626 25.3873C277.837 26.0937 277.081 26.5788 276.342 26.8341C275.604 27.0895 274.746 27.2256 273.761 27.2256C270.917 27.2256 268.998 26.2044 268.014 24.1533C267.462 23.0214 267.182 21.3533 267.182 19.149V7.54053H272.326V19.149C272.326 20.2469 272.454 21.0724 272.717 21.6256C273.175 22.6044 274.075 23.0895 275.417 23.0895C277.132 23.0895 278.312 22.3916 278.94 21.0044C279.271 20.2469 279.433 19.2512 279.433 18.0171V7.54053H284.527V26.8001H279.645V24.0767L279.653 24.0852Z" fill="#9A937F"/>
<path d="M306.507 0.791504V26.8H301.626V24.1277C300.904 25.2681 300.089 26.1021 299.172 26.6213C298.255 27.1404 297.117 27.3958 295.75 27.3958C293.509 27.3958 291.616 26.4851 290.079 24.6638C288.542 22.8426 287.778 20.5107 287.778 17.6596C287.778 14.3745 288.534 11.7872 290.045 9.9064C291.556 8.02555 293.577 7.08087 296.099 7.08087C297.262 7.08087 298.297 7.33619 299.197 7.84682C300.106 8.35746 300.836 9.07236 301.405 9.97448V0.791504H306.499H306.507ZM292.966 17.3021C292.966 19.0809 293.322 20.5021 294.027 21.5575C294.723 22.6298 295.776 23.166 297.202 23.166C298.629 23.166 299.707 22.6383 300.445 21.5745C301.184 20.5107 301.558 19.1404 301.558 17.4553C301.558 15.0979 300.963 13.4128 299.775 12.4C299.045 11.7872 298.204 11.4809 297.236 11.4809C295.767 11.4809 294.689 12.0341 294.002 13.149C293.314 14.2638 292.974 15.6426 292.974 17.2936L292.966 17.3021Z" fill="#9A937F"/>
<path d="M315.762 0.604248V5.25106H310.667V0.604248H315.762ZM315.762 7.54893V26.8085H310.667V7.54893H315.762Z" fill="#9A937F"/>
<path d="M336.222 9.98305C337.844 12.0171 338.659 14.4341 338.659 17.2086C338.659 19.9831 337.844 22.4511 336.222 24.4596C334.601 26.4682 332.139 27.4724 328.836 27.4724C325.534 27.4724 323.071 26.4682 321.45 24.4596C319.828 22.4511 319.013 20.0341 319.013 17.2086C319.013 14.3831 319.828 12.0171 321.45 9.98305C323.071 7.94901 325.534 6.92773 328.836 6.92773C332.139 6.92773 334.601 7.94901 336.222 9.98305ZM328.819 11.1831C327.35 11.1831 326.221 11.7022 325.423 12.749C324.634 13.7958 324.235 15.2767 324.235 17.2086C324.235 19.1405 324.634 20.6299 325.423 21.6767C326.221 22.7235 327.35 23.2511 328.819 23.2511C330.288 23.2511 331.417 22.7235 332.207 21.6767C332.996 20.6299 333.387 19.1405 333.387 17.2086C333.387 15.2767 332.996 13.7873 332.207 12.749C331.417 11.7107 330.288 11.1831 328.819 11.1831Z" fill="#9A937F"/>
<path d="M345.604 0.289272C347.514 0.289272 349.008 1.69353 349.008 3.59991C349.008 5.50629 347.489 6.94459 345.595 6.94459C343.702 6.94459 342.191 5.50629 342.191 3.61693C342.191 1.72757 343.711 0.280762 345.604 0.280762V0.289272ZM348.066 3.59991C348.066 2.22119 347.039 1.1914 345.612 1.1914C344.186 1.1914 343.133 2.24672 343.133 3.62544C343.133 5.00417 344.203 6.05098 345.587 6.05098C346.971 6.05098 348.066 4.97863 348.066 3.59991ZM344.364 5.14885V2.00842H345.842C346.538 2.00842 347.03 2.3148 347.03 3.02119C347.03 3.47225 346.894 3.87225 346.36 4.00842L347.2 5.14885H346.215L345.511 4.18715H345.196V5.14885H344.356H344.364ZM345.638 3.48076C345.969 3.48076 346.198 3.39566 346.198 3.06374C346.198 2.77438 345.977 2.72332 345.663 2.72332H345.205V3.48076H345.646H345.638Z" fill="#9A937F"/>
</g>
<defs>
<clipPath id="clip0_3427_93498">
<rect width="349" height="52" fill="white"/>
</clipPath>
</defs>
</svg>
