<svg width="166" height="72" viewBox="0 0 166 72" fill="none" xmlns="http://www.w3.org/2000/svg">
<path d="M102.54 40.684C101.871 40.788 101.753 40.9309 101.478 41.6196C101.071 42.6201 100.468 44.3224 99.8384 46.0376H99.445C98.8942 44.6732 98.3302 43.4128 97.8057 42.1524C97.2942 43.4258 96.7565 44.6732 96.2319 46.0376H95.8123C95.327 44.5303 94.8025 43.036 94.2648 41.5157C94.0287 40.866 93.9107 40.762 93.2812 40.684V40.3462H96.127V40.684C95.327 40.814 95.2615 40.8919 95.4582 41.4637C95.7598 42.3993 96.0877 43.3738 96.4155 44.2964H96.4418C96.9401 43.1139 97.4385 41.8275 97.9893 40.4112H98.3696C98.8679 41.6846 99.4187 43.023 99.9695 44.3484H99.9958C100.258 43.5557 100.651 42.4122 100.888 41.5157C101.058 40.8919 100.966 40.801 100.114 40.684V40.3462H102.54V40.684Z" fill="#023020"/>
<path d="M111.917 40.684C111.248 40.788 111.13 40.9309 110.855 41.6196C110.448 42.6201 109.845 44.3224 109.215 46.0376H108.822C108.271 44.6732 107.707 43.4128 107.182 42.1524C106.671 43.4258 106.133 44.6732 105.609 46.0376H105.189C104.704 44.5303 104.179 43.036 103.642 41.5157C103.406 40.866 103.288 40.762 102.658 40.684V40.3462H105.504V40.684C104.704 40.814 104.638 40.8919 104.835 41.4637C105.137 42.3993 105.465 43.3738 105.792 44.2964H105.819C106.317 43.1139 106.815 41.8275 107.366 40.4112H107.746C108.245 41.6846 108.796 43.023 109.346 44.3484H109.373C109.635 43.5557 110.028 42.4122 110.264 41.5157C110.435 40.8919 110.343 40.801 109.491 40.684V40.3462H111.917V40.684Z" fill="#023020"/>
<path d="M121.28 40.684C120.612 40.788 120.494 40.9309 120.218 41.6196C119.812 42.6201 119.208 44.3224 118.579 46.0376H118.185C117.635 44.6732 117.071 43.4128 116.546 42.1524C116.035 43.4258 115.497 44.6732 114.972 46.0376H114.553C114.068 44.5303 113.543 43.036 113.005 41.5157C112.769 40.866 112.651 40.762 112.022 40.684V40.3462H114.867V40.684C114.068 40.814 114.002 40.8919 114.199 41.4637C114.5 42.3993 114.828 43.3738 115.156 44.2964H115.182C115.681 43.1139 116.179 41.8275 116.73 40.4112H117.11C117.608 41.6846 118.159 43.023 118.71 44.3484H118.736C118.999 43.5557 119.392 42.4122 119.628 41.5157C119.799 40.8919 119.707 40.801 118.854 40.684V40.3462H121.28V40.684Z" fill="#023020"/>
<path d="M121.635 46.0377C121.189 46.0377 120.861 45.7388 120.861 45.2581C120.861 44.8292 121.189 44.5044 121.648 44.5044C122.107 44.5044 122.435 44.8292 122.435 45.2581C122.435 45.7518 122.107 46.0377 121.648 46.0377H121.635Z" fill="#023020"/>
<path d="M124.546 40.3333V40.0474C124.546 39.6446 124.598 39.2938 124.69 39.0209C124.782 38.735 125.018 38.1113 125.752 37.5266C126.225 37.1238 126.697 36.9029 127.248 36.8379C127.72 36.8379 128.1 37.0328 128.323 37.2667C128.467 37.4096 128.48 37.5915 128.388 37.7605C128.336 37.8644 128.244 37.9684 128.113 38.0593C127.969 38.1633 127.851 38.1633 127.733 38.0333C127.457 37.7865 127.064 37.5266 126.644 37.5266C126.303 37.5266 126.107 37.6825 125.962 37.9034C125.805 38.1243 125.674 38.722 125.7 39.7875V40.3203H127.274C127.352 40.4372 127.287 40.7621 127.129 40.8531H125.7V44.4524C125.7 45.388 125.805 45.4399 126.854 45.5439V45.8688H123.602V45.5309C124.441 45.4529 124.559 45.375 124.559 44.5434V40.8531H123.615L123.549 40.7101L123.93 40.3333H124.559H124.546Z" fill="#023020"/>
<path d="M131.169 41.8924C130.906 41.1387 130.447 40.6189 129.792 40.6189C129.306 40.6189 128.965 40.9698 128.965 41.4635C128.965 41.9833 129.464 42.2952 130.067 42.5161C131.077 42.9059 131.772 43.3737 131.772 44.2703C131.772 45.4657 130.644 46.0504 129.543 46.0504C128.847 46.0504 128.218 45.8166 127.995 45.6346C127.903 45.4657 127.785 44.5691 127.759 44.0624L128.126 44.0104C128.375 44.868 128.979 45.6216 129.765 45.6216C130.251 45.6216 130.683 45.2708 130.683 44.764C130.683 44.2573 130.329 43.9584 129.647 43.6595C128.874 43.3217 127.956 42.8799 127.956 41.8794C127.956 40.9698 128.769 40.2031 130.015 40.2031C130.592 40.2031 130.946 40.3201 131.221 40.424C131.339 40.6969 131.497 41.4895 131.523 41.7884L131.169 41.8924Z" fill="#023020"/>
<path d="M137.791 44.7124C137.188 45.466 136.283 46.0377 135.51 46.0377C133.765 46.0377 132.769 44.7383 132.769 43.387C132.769 42.4254 133.228 41.5548 134.119 40.9181C134.854 40.3983 135.667 40.1904 136.178 40.1904H136.192C136.742 40.1904 137.175 40.3464 137.398 40.5283C137.582 40.6712 137.608 40.7752 137.608 40.9181C137.608 41.217 137.306 41.5028 137.136 41.5028C137.057 41.5028 136.992 41.4638 136.873 41.3599C136.441 40.9831 135.982 40.8141 135.51 40.8141C134.683 40.8141 133.936 41.4638 133.936 42.8022C133.936 44.5564 135.247 45.1152 135.969 45.1152C136.519 45.1152 136.978 44.9722 137.569 44.4265L137.791 44.7124Z" fill="#023020"/>
<path d="M139.523 46.0377C139.077 46.0377 138.749 45.7388 138.749 45.2581C138.749 44.8292 139.077 44.5044 139.536 44.5044C139.995 44.5044 140.323 44.8292 140.323 45.2581C140.323 45.7518 139.995 46.0377 139.536 46.0377H139.523Z" fill="#023020"/>
<path d="M144.585 40.1904C146.29 40.1904 147.549 41.4638 147.549 43.0101C147.549 45.0632 145.936 46.0377 144.585 46.0377C142.67 46.0377 141.555 44.6474 141.555 43.244C141.555 41.165 143.313 40.1904 144.585 40.1904ZM144.414 40.6192C143.641 40.6192 142.919 41.3729 142.919 42.8152C142.919 44.4265 143.641 45.596 144.716 45.596C145.49 45.596 146.185 45.0892 146.185 43.309C146.185 41.7887 145.555 40.6192 144.441 40.6192H144.427H144.414Z" fill="#023020"/>
<path d="M150.408 41.5677C150.853 40.866 151.391 40.1904 152.008 40.1904C152.493 40.1904 152.821 40.5282 152.821 40.8401C152.821 41.1389 152.637 41.3988 152.348 41.5287C152.191 41.5937 152.073 41.5677 151.994 41.4898C151.785 41.3078 151.64 41.2299 151.417 41.2299C151.076 41.2299 150.67 41.6067 150.381 42.2824V44.5564C150.381 45.388 150.447 45.4659 151.483 45.5439V45.8817H148.296V45.5439C149.109 45.4659 149.214 45.388 149.214 44.5564V41.9186C149.214 41.1129 149.149 41.061 148.401 40.957V40.6711C149.07 40.5672 149.699 40.4242 150.381 40.1514V41.5677H150.408Z" fill="#023020"/>
<path d="M159.181 40.4374C159.076 40.6323 158.801 40.9832 158.578 41.0871L157.83 41.0481C158.053 41.321 158.211 41.7108 158.211 42.1656C158.211 43.517 157.004 44.1927 155.824 44.1927C155.575 44.1927 155.339 44.1537 155.129 44.1277C154.958 44.2447 154.788 44.4396 154.788 44.6085C154.788 44.8554 155.024 45.1023 155.627 45.1023C156.099 45.1023 156.545 45.0763 157.004 45.0763C157.817 45.0763 158.945 45.3232 158.945 46.5966C158.945 47.87 157.345 49.1564 155.562 49.1564C154.04 49.1564 153.24 48.3248 153.214 47.5971C153.214 47.2983 153.345 47.0514 153.568 46.8695C153.87 46.5966 154.329 46.2717 154.644 46.0249C154.145 45.8819 153.817 45.6091 153.647 45.3232C153.516 45.1413 153.463 44.8944 153.489 44.7514C154.04 44.5565 154.473 44.2317 154.67 43.9848C154.04 43.7379 153.489 43.1272 153.489 42.2826C153.489 40.8143 154.866 40.1646 155.916 40.1646H155.929C156.375 40.1646 156.794 40.2815 157.227 40.4894C157.909 40.4504 158.604 40.3725 159.089 40.3205L159.155 40.4244L159.181 40.4374ZM156.06 46.0768C155.443 46.0768 155.142 46.1548 154.906 46.3367C154.578 46.6096 154.342 46.9344 154.342 47.2723C154.342 47.948 155.076 48.5067 156.112 48.5067C157.319 48.5067 157.975 47.896 157.975 47.1294C157.975 46.6876 157.739 46.3627 157.358 46.2198C157.004 46.1028 156.637 46.0768 156.086 46.0768H156.073H156.06ZM155.811 40.5934C155.273 40.5934 154.748 41.1001 154.748 42.1007C154.748 43.1012 155.221 43.7899 155.955 43.7899C156.532 43.7899 157.017 43.2831 157.017 42.2826C157.017 41.282 156.558 40.5934 155.811 40.5934Z" fill="#023020"/>
<path d="M86.724 57.4466H92.0747V58.4341H87.9043V61.5267H91.4321V62.5143H87.9043V66.6204H86.724V57.4336V57.4466Z" fill="#023020"/>
<path d="M92.7435 65.4376L93.4517 64.632C94.1205 65.3207 95.0517 65.7754 96.009 65.7754C97.2287 65.7754 97.95 65.1777 97.95 64.2811C97.95 63.3456 97.2811 63.0467 96.4025 62.6699L95.0648 62.0851C94.1992 61.7213 93.1894 61.0716 93.1894 59.7202C93.1894 58.3688 94.4222 57.2773 96.1008 57.2773C97.2024 57.2773 98.1729 57.7451 98.8286 58.4208L98.1991 59.1745C97.6352 58.6417 96.9533 58.3169 96.1008 58.3169C95.0648 58.3169 94.3697 58.8366 94.3697 59.6553C94.3697 60.5388 95.1828 60.8767 95.9041 61.1756L97.2287 61.7473C98.304 62.2021 99.1434 62.8388 99.1434 64.2032C99.1434 65.6585 97.9368 66.815 95.9828 66.815C94.6845 66.815 93.5566 66.2952 92.7435 65.4506V65.4376Z" fill="#023020"/>
<path d="M100.429 62.0462C100.429 59.0835 102.186 57.2773 104.546 57.2773C105.674 57.2773 106.553 57.8231 107.091 58.4078L106.448 59.1745C105.963 58.6547 105.346 58.3039 104.56 58.3039C102.802 58.3039 101.648 59.7202 101.648 62.0072C101.648 64.2941 102.763 65.7625 104.52 65.7625C105.399 65.7625 106.081 65.3856 106.671 64.7359L107.314 65.4636C106.579 66.3082 105.674 66.789 104.468 66.789C102.16 66.789 100.429 65.0218 100.429 62.0332V62.0462Z" fill="#023020"/>
<path d="M107.812 59.4215C107.812 57.7843 109.005 56.6538 110.474 56.6538C111.943 56.6538 113.136 57.7843 113.136 59.4215C113.136 61.0588 111.943 62.1763 110.474 62.1763C109.005 62.1763 107.812 61.0588 107.812 59.4215ZM112.559 59.4215C112.559 58.0961 111.654 57.1606 110.461 57.1606C109.268 57.1606 108.363 58.0961 108.363 59.4215C108.363 60.7469 109.268 61.6565 110.461 61.6565C111.654 61.6565 112.559 60.7339 112.559 59.4215ZM109.438 57.9532H110.514C111.104 57.9532 111.615 58.1871 111.615 58.8628C111.615 59.2006 111.405 59.5255 111.077 59.6424L111.733 60.7989H111.091L110.592 59.8244H110.015V60.7989H109.438V57.9662V57.9532ZM110.382 59.3696C110.763 59.3696 110.999 59.2136 110.999 58.9018C110.999 58.6289 110.841 58.434 110.422 58.434H110.028V59.3696H110.395H110.382Z" fill="#023020"/>
<path d="M117.005 62.0462C117.005 59.0835 118.763 57.2773 121.123 57.2773C122.251 57.2773 123.13 57.8231 123.667 58.4078L123.025 59.1745C122.539 58.6547 121.923 58.3039 121.136 58.3039C119.379 58.3039 118.225 59.7202 118.225 62.0072C118.225 64.2941 119.34 65.7625 121.097 65.7625C121.976 65.7625 122.658 65.3856 123.248 64.7359L123.89 65.4636C123.156 66.3082 122.251 66.789 121.044 66.789C118.736 66.789 117.005 65.0218 117.005 62.0332V62.0462Z" fill="#023020"/>
<path d="M124.966 62.1375C124.966 59.1489 126.054 57.5376 127.851 57.5376C129.647 57.5376 130.736 59.1489 130.736 62.1375C130.736 65.1261 129.647 66.8024 127.851 66.8024C126.054 66.8024 124.966 65.1261 124.966 62.1375ZM129.608 62.1375C129.608 59.5257 128.9 58.4732 127.851 58.4732C126.802 58.4732 126.093 59.5257 126.093 62.1375C126.093 64.7493 126.802 65.8798 127.851 65.8798C128.9 65.8798 129.608 64.7623 129.608 62.1375Z" fill="#023020"/>
<path d="M131.982 62.1375C131.982 59.1489 133.07 57.5376 134.867 57.5376C136.664 57.5376 137.752 59.1489 137.752 62.1375C137.752 65.1261 136.664 66.8024 134.867 66.8024C133.07 66.8024 131.982 65.1261 131.982 62.1375ZM136.624 62.1375C136.624 59.5257 135.916 58.4732 134.867 58.4732C133.818 58.4732 133.11 59.5257 133.11 62.1375C133.11 64.7493 133.818 65.8798 134.867 65.8798C135.916 65.8798 136.624 64.7623 136.624 62.1375Z" fill="#023020"/>
<path d="M138.998 62.1375C138.998 59.1489 140.087 57.5376 141.883 57.5376C143.68 57.5376 144.768 59.1489 144.768 62.1375C144.768 65.1261 143.68 66.8024 141.883 66.8024C140.087 66.8024 138.998 65.1261 138.998 62.1375ZM143.641 62.1375C143.641 59.5257 142.932 58.4732 141.883 58.4732C140.834 58.4732 140.126 59.5257 140.126 62.1375C140.126 64.7493 140.834 65.8798 141.883 65.8798C142.932 65.8798 143.641 64.7623 143.641 62.1375Z" fill="#023020"/>
<path d="M146.014 62.1375C146.014 59.1489 147.103 57.5376 148.899 57.5376C150.696 57.5376 151.785 59.1489 151.785 62.1375C151.785 65.1261 150.696 66.8024 148.899 66.8024C147.103 66.8024 146.014 65.1261 146.014 62.1375ZM150.67 62.1375C150.67 59.5257 149.962 58.4732 148.913 58.4732C147.863 58.4732 147.155 59.5257 147.155 62.1375C147.155 64.7493 147.863 65.8798 148.913 65.8798C149.962 65.8798 150.67 64.7623 150.67 62.1375Z" fill="#023020"/>
<path d="M153.044 62.1375C153.044 59.1489 154.132 57.5376 155.929 57.5376C157.725 57.5376 158.814 59.1489 158.814 62.1375C158.814 65.1261 157.725 66.8024 155.929 66.8024C154.132 66.8024 153.044 65.1261 153.044 62.1375ZM157.686 62.1375C157.686 59.5257 156.978 58.4732 155.929 58.4732C154.88 58.4732 154.171 59.5257 154.171 62.1375C154.171 64.7493 154.88 65.8798 155.929 65.8798C156.978 65.8798 157.686 64.7623 157.686 62.1375Z" fill="#023020"/>
<path d="M160.06 62.1375C160.06 59.1489 161.148 57.5376 162.945 57.5376C164.742 57.5376 165.83 59.1489 165.83 62.1375C165.83 65.1261 164.742 66.8024 162.945 66.8024C161.148 66.8024 160.06 65.1261 160.06 62.1375ZM164.702 62.1375C164.702 59.5257 163.994 58.4732 162.945 58.4732C161.896 58.4732 161.188 59.5257 161.188 62.1375C161.188 64.7493 161.896 65.8798 162.945 65.8798C163.994 65.8798 164.702 64.7623 164.702 62.1375Z" fill="#023020"/>
<path d="M51.8133 71.2723C51.8133 71.2723 51.774 71.2723 51.7478 71.2723L42.7906 71.1553C41.5054 71.1423 40.2858 70.6356 39.3809 69.726C38.476 68.8294 37.9645 67.621 37.9383 66.3476L37.8203 58.0314L29.7287 58.5771C28.2992 58.6681 27.0664 57.6026 26.9615 56.1862C26.8697 54.7699 27.9451 53.5484 29.3746 53.4445L38.5809 52.8208C39.7087 52.7428 40.8235 53.1326 41.6628 53.8993C42.489 54.6529 42.9742 55.7314 42.9873 56.8489L43.1185 66.0097L51.5379 66.1267V56.4851C51.5379 55.1727 52.1936 53.9512 53.2821 53.2106C54.3838 52.4699 55.7608 52.327 56.9935 52.8078C58.8951 53.5484 61.7541 54.51 64.6392 54.8218C67.6949 55.1597 69.9112 54.6919 71.2227 53.4445C73.8324 50.9496 75.1439 47.5841 74.6586 44.6605C74.2127 42.0227 72.298 39.8527 69.1243 38.3714C68.2719 37.9816 67.6424 37.2799 67.3277 36.4093C67.0129 35.5387 67.0654 34.5901 67.4588 33.7455C68.1932 32.2252 69.7276 28.314 68.2457 24.8056C67.1834 22.2847 64.6786 20.3097 60.7967 18.9583C59.6557 18.5555 58.8427 17.5809 58.6853 16.3854C58.0296 11.4997 55.3542 5.5874 46.3184 5.15859C42.6988 4.98967 39.3415 6.84782 36.0498 10.824C33.1909 14.2804 30.5155 19.2311 28.1156 25.5333C23.9321 36.5002 22.0567 47.7791 22.0305 47.896L22.0043 48.0259L21.9649 48.1559L19.1716 58.4991C18.7912 59.9285 17.7027 61.02 16.2733 61.4228C14.8438 61.8256 13.3356 61.4748 12.2471 60.4612L0.824494 49.8971C-0.224659 48.9355 -0.277117 47.2983 0.69335 46.2588C1.66382 45.2192 3.31623 45.1673 4.36539 46.1288L14.5946 55.5755L16.929 46.9215C17.1651 45.5441 19.0798 34.6941 23.237 23.7791C25.8337 16.9312 28.7975 11.4867 32.0106 7.58848C36.3646 2.3129 41.2562 -0.233936 46.5544 0.0129511C49.9642 0.16888 52.9805 0.97451 55.4985 2.41685C57.623 3.6253 59.4066 5.27554 60.7836 7.3156C62.1737 9.38166 63.1311 11.7986 63.6425 14.5013C68.3506 16.3725 71.5112 19.1662 73.0456 22.8045C74.9078 27.2355 73.8062 31.7704 72.7833 34.4472C74.5537 35.4607 76.0356 36.6692 77.1766 38.0855C78.5536 39.7747 79.4323 41.7108 79.7864 43.8029C80.1798 46.1418 79.8913 48.6497 78.947 51.0536C78.0684 53.2885 76.652 55.3936 74.8422 57.1218C72.5734 59.2918 69.5571 60.0584 66.449 60.0584C63.0393 60.0584 59.5115 59.1488 56.7443 58.1873V66.3995C56.7443 67.7119 56.2198 68.9464 55.2755 69.8689C54.3444 70.7785 53.1248 71.2723 51.8264 71.2723H51.8133Z" fill="#023020"/>
<path d="M111.484 16.3202C111.117 15.1248 110.841 14.4621 110.225 13.8644C109.504 13.0198 108.612 12.7469 105.504 12.7469H102.461C101.15 12.7469 101.032 12.8248 101.032 13.7344V20.8032H105.215C109.045 20.8032 109.268 20.5173 109.792 18.5552H111.025V24.5065H109.766C109.268 22.4015 109.045 22.0636 105.215 22.0636H101.032V27.3262C101.032 30.016 101.399 30.1979 105.215 30.4058V31.2764H93.4648V30.4058C96.7827 30.2239 97.1499 30.016 97.1499 27.3262V15.5276C97.1499 12.8638 96.7827 12.6949 93.5828 12.539V11.6294H112.284C112.336 12.7469 112.533 14.67 112.73 16.1773L111.471 16.3202H111.484Z" fill="#023020"/>
<path d="M132.205 16.5413C131.431 14.6051 130.054 12.4092 126.29 12.4092C122.946 12.4092 121.359 14.0464 121.359 15.6966C121.359 17.8277 123.418 18.8542 127.064 20.0756C130.867 21.362 134.815 22.7784 134.815 26.1049C134.815 29.4314 130.802 31.9262 124.703 31.9262C122.854 31.9262 121.359 31.7053 120.218 31.4324C119.077 31.1855 118.448 30.9387 118.002 30.7957C117.7 30.198 117.045 27.4433 116.782 25.9879L118.133 25.7151C118.881 27.6382 121.058 30.7957 125.634 30.7957C128.9 30.7957 130.802 29.4184 130.802 27.2483C130.802 25.0783 128.415 24.0258 125.005 22.7914C121.897 21.7129 117.622 20.2056 117.622 16.8791C117.622 13.8645 121.149 11.3696 126.985 11.3696C129.11 11.3696 131.116 11.7205 132.782 12.0973C132.965 13.1758 133.175 14.4102 133.556 16.3983L132.205 16.5672V16.5413Z" fill="#023020"/>
<path d="M158.866 26.092C158.42 27.5343 157.489 29.9122 156.899 30.8868C155.902 31.0947 152.926 31.7574 150.434 31.7574C141.739 31.7574 137.857 26.4948 137.857 21.713C137.857 15.3459 143.47 11.1748 151.286 11.1748C154.171 11.1748 156.611 11.9025 157.555 12.0454C157.83 13.7606 158.079 15.06 158.276 16.7752L157.266 16.9831C156.348 13.6307 154.093 12.3183 150.408 12.3183C144.663 12.3183 141.595 16.5673 141.595 21.0763C141.595 26.7807 145.398 30.5749 150.696 30.5749C154.184 30.5749 156.112 28.8597 157.883 25.7411L158.853 26.092H158.866Z" fill="#023020"/>
<path d="M67.4851 2.44267H65.6622V1.79297H70.0949V2.44267H68.272V7.78322H67.4983V2.44267H67.4851Z" fill="#023020"/>
<path d="M71.1703 1.79297H72.1014L73.2555 4.9895C73.3997 5.40531 73.544 5.82112 73.6882 6.23693H73.7276C73.8718 5.82112 74.003 5.39232 74.1472 4.9895L75.2882 1.79297H76.2193V7.78322H75.498V4.48274C75.498 3.96297 75.5636 3.23531 75.5898 2.71555H75.5505L75.0653 4.07992L73.9243 7.1855H73.4128L72.2719 4.07992L71.7867 2.71555H71.7473C71.7866 3.2483 71.8391 3.96297 71.8391 4.48274V7.78322H71.144V1.79297H71.1703Z" fill="#023020"/>
</svg>
