<svg width="202" height="63" viewBox="0 0 202 63" fill="none" xmlns="http://www.w3.org/2000/svg">
<path d="M69.7707 52.3045C71.7918 52.6347 72.8824 54.7463 71.6117 56.4876C71.4116 56.7678 70.8913 56.5977 71.0514 57.068C73.8228 58.1988 72.9124 61.9816 70.231 62.532H65.5785C65.5585 62.532 65.2283 62.2118 65.2283 62.1818V52.6448C65.5485 51.9543 69.0904 52.2645 69.7707 52.2945V52.3045ZM69.5906 54.2159C69.1704 53.7856 67.9098 53.9557 67.3195 53.9257V56.4876C68.7802 57.078 70.8613 55.4868 69.5906 54.2159ZM70.0609 58.409C69.5406 57.9086 68.0398 58.1788 67.3294 58.1188C67.5195 59.6199 66.579 60.9809 68.6101 60.9208C70.211 60.8808 71.2515 59.5398 70.0609 58.409Z" fill="#023020"/>
<path d="M37.0536 62.5324V52.6452C37.0536 52.6452 37.3737 52.2949 37.4037 52.2949H41.8261C41.9061 52.2949 43.1268 52.7953 43.3169 52.8954C46.3084 54.5065 46.4385 60.0506 43.657 61.7919C43.4969 61.892 42.1463 62.5224 42.0562 62.5224H37.0536V62.5324ZM39.1547 53.9261V60.9012C41.636 61.0513 43.2368 60.4409 43.3569 57.7689C43.4869 54.8468 41.9661 53.776 39.1547 53.9261Z" fill="#023020"/>
<path d="M103.408 62.4219C103.228 63.0124 101.617 62.7622 101.537 62.3819C101.357 61.191 101.157 51.9843 101.577 51.634C101.647 51.574 103.338 51.554 103.398 51.624C103.648 51.8742 103.388 54.9264 103.408 55.5669C103.789 55.7771 105.419 53.7656 107.37 55.4468C107.661 55.697 108.291 56.5176 108.291 56.8478V62.542C108.291 62.6521 106.51 62.8322 106.2 62.542V57.7785C106.2 55.9172 103.408 56.8579 103.408 58.0087C103.408 58.9294 103.598 61.8215 103.408 62.4319V62.4219Z" fill="#023020"/>
<path d="M95.7243 57.6488C97.1951 56.7381 97.5953 53.906 99.8065 55.0769C100.357 55.8275 97.8154 57.5087 97.8154 58.2192C97.8154 58.7896 100.287 61.5917 100.157 62.3923C100.127 62.6024 99.3262 62.7625 99.0961 62.7625C97.4152 62.7525 96.985 59.8904 95.7243 59.0298V62.5224C95.4042 62.8126 93.6332 62.6325 93.6332 62.5224V51.9446C93.6332 51.4442 95.7243 51.4442 95.7243 51.9446V57.6388V57.6488Z" fill="#023020"/>
<path d="M78.8054 61.992C76.9845 60.2608 77.4647 55.8876 80.1161 54.9769C88.4805 52.8253 86.1493 66.4453 78.8054 61.992ZM82.8476 60.611C84.0782 59.16 83.0977 55.5773 80.8265 56.6081C78.4553 57.6889 80.6964 63.1529 82.8476 60.611Z" fill="#023020"/>
<path d="M120.167 60.0904C120.337 61.0611 122.188 61.0911 122.608 60.2105C123.029 59.3298 122.398 55.3969 122.859 55.0667C123.119 54.8866 124.72 54.7565 124.82 54.8565C124.75 56.2376 125.31 57.5986 124.82 58.9395C124.83 60.0604 125.66 63.2027 123.659 62.6723C122.749 62.4321 123.249 61.8717 123.199 61.8417C122.939 61.6816 121.948 62.6022 121.398 62.7223C120.167 62.9725 118.076 62.1519 118.076 60.8009V55.2168C118.076 54.7164 120.167 54.7164 120.167 55.2168C120.167 56.5878 119.957 58.8895 120.167 60.1004V60.0904Z" fill="#023020"/>
<path d="M114.664 62.452C114.584 62.4019 114.604 62.0617 114.454 62.0517C109.081 64.9338 107.3 57.5684 114.114 57.8786C114.554 54.9264 110.952 57.2682 110.512 57.1781C108.371 54.6663 116.155 53.2852 116.215 57.058C116.325 58.0087 116.365 61.3011 116.215 62.1818C116.075 62.9824 115.195 62.7522 114.664 62.452ZM114.084 59.3097C113.434 59.1696 112.013 59.4698 111.823 60.1403C111.272 61.9916 115.165 61.3411 114.084 59.3097Z" fill="#023020"/>
<path d="M53.122 62.4219C52.9319 63.0524 51.4911 62.8022 51.3811 62.0717C45.9882 64.9438 44.1673 57.4683 51.261 57.8786C51.181 55.637 48.7897 56.4475 47.419 57.1681C45.568 54.2059 53.122 54.1959 53.122 56.3675C53.122 57.5784 53.3621 61.6113 53.122 62.4119V62.4219ZM50.7307 61.0809C51.5712 60.4004 51.5512 58.9394 49.8002 59.3297C47.429 59.86 49.37 62.1918 50.7307 61.0809Z" fill="#023020"/>
<path d="M128.351 56.518C127.681 57.5888 130.132 57.9791 130.853 58.4894C134.105 61.4316 129.122 64.1836 126.581 62.0521C126.38 61.7819 126.23 60.8311 126.46 60.671C126.651 60.5309 129.972 62.012 129.852 60.5509C129.752 59.3501 126.741 59.4201 126.47 57.7489C126.05 55.177 129.002 53.9161 130.943 55.147C131.593 55.5573 131.963 56.538 131.213 56.7081C130.973 56.7682 128.842 55.7374 128.351 56.518Z" fill="#023020"/>
<path d="M59.6354 56.7181C58.905 56.4479 56.4138 55.6873 56.5939 57.0683C56.7039 57.899 59.2152 57.999 59.8456 59.1899C61.7866 62.8826 54.6929 64.0935 54.5528 61.2014C54.4927 60.0005 56.814 61.6917 57.7845 61.0313C59.2352 60.0405 55.6433 59.1299 55.2031 58.6395C52.3016 55.0469 60.2758 52.8853 59.6354 56.7181Z" fill="#023020"/>
<path d="M92.2325 57.1881C91.5622 57.3282 91.222 56.6677 90.6717 56.5376C87.6801 55.8471 87.9403 61.5413 90.3715 61.0509C90.7117 60.9809 92.0324 60.0002 92.2325 60.2203C92.4126 61.8715 92.3025 62.3419 90.6217 62.6721C86.9998 63.3926 85.639 59.6999 86.8397 56.7978C87.9102 54.2059 92.8528 53.7055 92.2425 57.1881H92.2325Z" fill="#023020"/>
<path d="M76.3942 51.8544V62.5322C76.004 62.6924 74.183 62.8525 74.053 62.3921C73.9329 61.9618 74.2231 61.3814 74.2131 60.9811C74.173 59.6201 73.6728 52.2747 74.5232 51.7043C74.9935 51.3841 75.8739 51.6943 76.3942 51.8544Z" fill="#023020"/>
<path d="M143.58 2.63851C149.583 8.03247 156.706 13.4364 162.069 19.2807C156.336 20.5417 156.316 16.8489 151.013 17.4194C148.682 17.6796 148.472 19.1006 146.631 19.9412L140.308 14.4572L130.002 23.4238C127.871 22.6632 125.78 24.1943 124.019 24.4045C121.718 24.4745 114.964 25.085 112.963 24.0542L139.667 0.216735C140.018 0.0165886 140.258 -0.083486 140.658 0.0866389C140.838 0.166698 143.149 2.25823 143.599 2.63851H143.58Z" fill="#023020"/>
<path d="M187.212 41.377L198.388 51.1441H181.74C181.509 51.1441 178.738 48.3421 178.368 47.8917C180.649 47.9818 183.951 48.3321 186.112 47.6516C186.282 47.5615 187.222 45.3399 187.222 45.2098V41.377H187.212Z" fill="#023020"/>
<path d="M176.947 46.4705C176.477 46.4505 173.045 44.0588 173.485 43.2382C174.376 43.2482 176.607 42.2775 177.207 42.6477C177.637 42.9079 178.258 44.5891 178.828 44.9794C178.168 45.5999 177.167 45.3897 176.947 46.4705Z" fill="#023020"/>
<path d="M159.048 44.8594C160.078 42.948 160.849 41.1167 161.119 38.9051C160.698 37.2238 161.449 35.9229 163.34 36.9736C164.41 37.7142 162.85 38.865 162.599 39.6856C161.909 42.0274 162.95 45.62 159.048 44.8594Z" fill="#023020"/>
<path d="M194.896 27.1867C195.116 28.0874 197.338 27.7771 197.458 27.8872C196.897 28.6178 197.328 30.6192 196.827 30.9395C192.565 30.4091 189.684 34.1819 185.351 32.5406C185.271 32.6207 185.531 33.3613 185.632 33.4313C185.752 33.5114 188.203 33.9717 188.503 33.9617C189.704 33.9217 189.423 33.2912 189.704 33.2211C190.324 33.081 191.084 33.7916 191.755 33.8216C193.686 33.3312 195.867 33.4913 197.818 33.6515C199.019 33.6815 200.469 32.8309 201.19 34.5121C199.739 35.2927 198.979 36.7838 197.568 37.6344C197.198 38.0047 197.308 38.5851 196.707 38.8853C192.485 40.7467 190.084 39.0354 186.552 40.2363C187.823 49.2329 184.571 48.0821 177.217 47.1814C177.137 45.7303 179.138 45.7503 179.288 45.5302C179.828 44.7496 177.647 42.3078 176.887 41.8275C176.026 42.578 174.986 42.3378 174.135 42.588C172.695 43.4587 170.023 43.7289 168.623 44.2993C167.672 44.8096 167.682 46.591 166.331 47.1314C165.501 47.4616 161.739 47.7718 160.818 47.6517C159.318 46.7811 159.888 47.4716 158.507 47.6717C158.347 47.6517 158.477 47.2114 158.027 47.1714C155.386 47.5917 152.664 47.3215 149.983 47.1914C149.753 46.5109 151.103 45.7303 150.893 45.24C148.432 42.8282 144.57 45.24 141.779 44.8997C141.478 44.9898 140.428 46.1206 139.818 46.4509C137.957 47.4716 133.814 48.032 135.315 44.8697C130.242 45.8204 124.579 44.8997 119.357 45.0899C116.255 45.7203 117.876 45.0298 115.635 44.1792C112.563 44.9297 109.281 44.9698 106.12 45.3601C100.527 45.7804 92.2025 47.1113 86.8197 45.4001C84.1083 46.0506 83.0177 46.4008 80.0161 45.5702C78.2952 45.4101 75.3937 45.5202 73.7829 45.0598C73.4327 44.9598 72.4021 43.7789 71.6818 43.4386C66.2389 41.3071 65.4585 46.1406 61.1662 46.2907C58.0446 45.9605 38.4343 46.7511 39.0346 42.9983C33.7419 42.9383 27.4786 44.6595 22.2859 43.2285C20.635 43.4086 20.7951 44.3793 19.2743 43.4687C19.0942 43.4687 18.824 44.5995 18.2738 44.8297C17.9136 44.9798 15.0921 45.32 14.6018 45.34C13.2311 45.4001 6.33749 44.9698 5.47704 44.4794C5.04681 44.2292 5.06683 43.8189 4.54655 43.5287C3.17584 42.7581 1.59502 43.5087 0.654529 41.8375C-0.185911 40.3364 0.414408 40.0361 0.534471 38.7252C0.68455 37.0139 0.254304 35.5829 0.0441935 34.0718C-0.0458537 33.4113 -0.00583029 32.0803 0.234296 31.4498C0.384374 31.0496 2.74561 27.4269 3.01575 27.1867C3.496 26.7664 4.26643 26.7664 4.7867 26.4662C6.25747 25.6256 6.82776 24.845 8.77878 24.6449C15.0421 23.9744 22.6861 24.915 29.0394 24.905C31.1805 24.1445 32.8914 24.5748 35.2827 24.6649C36.7334 24.6949 38.4643 25.4454 39.9751 25.5755C43.0167 25.8357 47.8193 25.8657 50.9009 25.8157C53.092 25.7857 55.1131 24.1745 56.9641 23.9443C64.3879 22.7735 71.8118 24.6649 79.1057 23.514C85.3489 22.9036 92.0525 24.5948 98.1757 23.474C100.877 23.7242 100.557 24.7649 104.059 24.0144C105.55 23.6942 106 24.4647 107.28 24.6248C108.661 24.795 110.732 24.7349 112.193 24.7549C116.915 24.815 121.798 24.865 126.36 23.9644C129.592 23.3239 130.122 24.4947 132.644 24.865C136.776 25.2053 133.894 22.8235 140.978 23.2238C146.481 22.9536 147.922 16.9892 153.595 17.8899C155.336 18.07 157.347 20.0215 158.928 20.1215C162.669 19.4911 170.424 19.2609 173.695 20.3717C178.248 23.6241 184.121 23.0437 189.654 22.7835C190.764 22.7535 195.477 22.5833 196.147 22.8235C196.667 23.0036 197.148 25.4655 196.947 26.1259C196.757 26.7464 195.487 27.0166 194.896 27.2167V27.1867ZM155.005 18.9006C149.202 16.3988 148.552 22.5633 140.208 24.5047C139.487 24.6348 138.167 23.3039 137.496 24.3947C137.116 25.0051 137.866 25.9158 137.736 26.5162C137.666 26.8565 137.016 27.577 136.806 28.1174C135.795 30.7693 137.346 31.2697 137.146 32.8609C137.056 33.5714 135.935 34.9824 136.015 35.4128C136.146 36.1233 138.847 36.7637 139.557 36.7037C140.058 36.6637 141.618 35.8231 141.578 36.6036C141.468 38.485 139.337 42.1177 138.147 43.6288C137.656 44.2592 135.555 45.5202 135.525 45.6903C135.505 45.8004 135.965 46.631 136.036 46.661C136.866 47.1514 139.497 45.8504 140.298 45.32C140.678 45.0598 141.128 44.2793 141.508 44.1892C141.919 44.0891 142.609 44.4894 143.309 44.3793C144.06 44.2592 146.941 42.2978 147.642 41.7174C149.322 40.3164 150.293 38.3549 151.944 36.9439L154.205 40.0462C154.675 41.3571 155.876 44.2292 154.385 45.1899C153.385 45.8304 151.263 45.1899 150.903 46.711L160.108 46.5209C161.609 47.1814 164.1 46.9212 165.631 46.661C167.102 46.3007 167.172 44.5595 167.732 43.9991C169.953 43.2885 170.704 40.7767 172.755 39.5958C174.316 38.6151 174.856 38.3049 176.277 39.6258C177.367 40.9368 180.289 43.9991 180.139 45.8004C179.778 46.2807 178.418 46.0005 178.138 46.7211C180.079 46.601 185.481 48.1421 185.802 45.4301C187.623 34.9324 181.239 21.5926 169.873 20.2016C166.291 19.8113 162.209 20.6119 158.687 20.6819C157.247 20.5218 156.056 19.341 155.005 18.9006ZM43.1168 31.6C42.3464 28.1174 44.6976 28.6078 39.8551 28.5777C39.9151 28.918 39.775 30.3691 39.8551 30.4391C39.9851 30.5592 41.1958 30.1089 41.2558 31.0195L40.7856 39.7459C41.9161 39.886 42.3964 39.0854 42.9967 38.3549C43.467 38.1648 43.3569 39.0554 43.9672 39.2356C45.0178 39.5558 47.5391 38.9954 47.8893 37.9046C49.3601 34.5921 47.309 29.0781 43.1068 31.61L43.1168 31.6ZM106.63 28.6178C106.1 28.2875 103.709 28.6478 103.498 29.4984C103.228 31.9602 108.241 31.1796 106.63 28.6178ZM108.761 39.2756C108.921 39.3757 111.913 39.2756 112.483 39.2756C112.713 38.7552 112.573 37.5043 112.273 37.084C112.093 36.8238 111.603 37.084 111.533 36.8138C111.483 36.6437 111.493 35.4428 111.543 35.2526C111.653 34.8323 113.174 34.332 113.174 34.9724V38.3449C113.174 38.3449 113.454 38.3049 113.554 38.425C114.504 39.6359 115.885 40.3664 117.006 38.7952C118.156 37.174 115.675 37.5443 115.485 37.2841C114.894 36.4735 115.855 35.1325 115.395 34.392C115.195 34.0718 114.364 33.9917 114.114 33.5814C115.965 32.5807 115.765 32.6007 116.905 30.9094C111.963 29.6485 114.754 33.3212 111.783 33.7015C111.463 32.8709 111.663 29.2282 111.283 28.8479C110.572 28.6778 108.161 28.0574 108.271 29.6285C108.121 31.2197 108.931 30.6493 109.241 31.0596C109.602 31.5299 109.582 36.5636 109.181 36.9139C108.111 36.3534 108.571 38.9954 108.751 39.2856L108.761 39.2756ZM31.2306 36.7237C31.1305 36.6236 30.2 36.8738 30.1 36.3334C29.7698 35.1826 30.0999 29.5485 29.7398 29.0281C29.5196 28.7078 26.7582 28.4476 26.5781 29.3883C26.1879 31.4999 27.0083 30.6392 27.4786 30.9295C27.7988 31.1296 27.8788 36.3534 27.7587 37.0439C27.7087 37.3442 26.7982 36.9639 26.5981 37.5543C26.4981 37.8345 26.7482 38.8253 26.9283 39.0354C27.3085 39.4757 30.6702 39.3556 31.2405 38.9153C31.4206 38.7752 31.3106 36.7938 31.2306 36.7137V36.7237ZM126.691 39.2756C126.821 39.4057 129.782 39.2756 130.303 39.2756C130.453 39.2756 131.193 38.9253 131.273 38.6952C131.303 38.6051 131.173 36.7938 131.103 36.7237C130.993 36.6136 130.072 36.8638 129.982 36.3334L129.682 29.1882C129.492 28.5978 126.841 28.6678 126.571 29.0381C126.491 29.1482 126.23 30.1689 126.24 30.339C126.26 31.1796 127.441 30.5492 127.631 31.4799C127.761 32.1103 127.761 36.3935 127.641 37.0439C127.591 37.3442 126.681 36.9739 126.48 37.5543C126.45 37.6544 126.641 39.2055 126.701 39.2656L126.691 39.2756ZM100.377 29.0481C98.906 28.6478 99.5264 30.309 98.6059 30.8894C97.9455 31.3097 96.7249 30.8094 97.4553 32.3105C97.6254 32.6507 98.2457 32.6807 98.2857 32.9309C98.0956 34.362 97.2752 38.6952 99.1362 39.2356C100.047 39.4957 103.588 39.6759 103.128 38.0547C102.748 36.7337 101.437 38.3549 100.857 37.8646C100.577 37.6344 100.517 33.9417 100.587 33.3412C100.717 32.2905 101.557 32.3905 102.468 32.3105C102.658 29.1682 100.037 32.9309 100.367 29.0581L100.377 29.0481ZM16.803 29.9788C16.6629 29.8387 13.4212 30.0788 12.8409 29.9788C12.921 30.4991 12.7208 31.2097 12.8409 31.68C12.9109 31.9502 13.8614 31.9002 13.5213 33.1011C13.3812 33.5914 10.8599 33.3412 10.7598 33.2312C10.7298 33.2011 10.7098 32.4306 10.7998 32.3405C10.9699 32.1404 12.4207 32.2404 11.4202 30.5992C11.0199 29.9387 8.6187 30.4991 7.83829 30.6693C8.0484 31.2997 7.65819 32.3005 7.95835 32.8409C8.13844 33.1511 8.70874 32.9509 8.86883 33.3813C8.98889 33.7015 8.94888 36.2834 8.7888 36.5136C8.63872 36.7237 8.18847 36.6637 8.02839 36.7938C7.44809 37.2641 8.12844 38.6251 7.95835 39.2956C8.88883 39.4757 9.7893 39.1155 10.6397 39.0654C12.8009 39.5558 12.4707 38.9153 12.3907 37.084C12.2406 36.3234 11.6303 36.6236 11.4902 36.4735C11.4102 36.3835 11.4202 35.6129 11.4502 35.5729C11.5502 35.4628 14.0115 35.6529 14.4818 35.5729C15.0421 37.3342 12.6308 35.4528 13.5513 39.5258H17.2732C17.3333 38.8853 17.4233 37.3742 17.2432 36.8738C17.0831 36.4035 16.4028 36.6336 16.3227 36.3534C16.2627 36.1333 16.2627 32.7508 16.3227 32.4406C16.3728 32.1604 16.9931 32.4606 17.0531 32.1904C17.0931 31.9702 16.883 30.0688 16.803 29.9888V29.9788ZM25.0873 32.4105C24.557 31.8802 23.4865 30.9995 22.7561 30.8994C21.7956 30.7693 19.2843 31.2097 18.5639 31.8501C17.4733 32.8108 17.4733 36.2534 18.0236 37.4843C19.4043 40.5465 21.4454 39.3757 24.2169 39.2456C25.2774 37.4242 26.8482 34.1818 25.0873 32.4105ZM32.4012 39.2756H39.1547C39.3148 39.2756 39.645 36.4535 39.1747 36.1233C38.0942 35.3727 38.1442 36.8938 37.844 36.9639C37.1136 37.144 35.7929 36.8138 34.9725 36.9539C34.6523 36.7137 38.8546 33.4213 39.0447 33.001C39.1947 32.6707 39.2848 31.3998 39.1347 31.1696C38.9446 30.8794 36.0331 31.1396 35.5428 31.1496C32.8014 31.2297 31.6608 30.319 31.7108 34.1618C32.091 34.0918 33.7019 34.2619 33.8019 34.1618C33.5818 32.4005 35.1926 33.1411 36.3732 33.011C36.4033 34.1118 32.7213 35.8331 32.4712 36.3134C32.2011 36.7738 32.5613 38.6151 32.4212 39.2856L32.4012 39.2756ZM61.5064 30.9094C61.3763 30.7794 58.4148 30.9094 57.8945 30.9094C57.6444 30.9094 57.2542 32.6007 57.3342 32.8609C57.5143 33.4713 58.6249 33.1511 58.715 33.2412C59.0151 33.5214 57.2842 38.1848 60.1157 39.1655C61.4964 39.6459 64.6781 39.6959 65.4185 38.1848C66.1088 36.7838 65.5085 35.1926 65.4685 33.8216C66.0288 30.9695 65.7787 30.7193 62.9172 30.9295C62.2768 34.0718 62.7971 32.2204 63.6476 34.5021C63.9377 35.9732 63.6876 38.2548 61.6565 37.6744C61.0862 37.5143 60.9161 34.0217 61.0562 33.4013C62.0667 32.8208 61.7065 31.9402 61.5164 30.9094H61.5064ZM72.5622 39.2756C73.5127 39.5358 75.5438 39.0854 76.6344 39.2756C76.4943 38.8253 76.5043 37.2041 76.3642 36.9839C76.2642 36.8238 75.4437 36.8638 75.2736 36.3334C74.9235 35.2626 75.0035 33.021 76.6344 33.2312C76.6544 35.6729 78.6054 34.9924 80.1262 34.1618C80.2863 33.4413 79.3158 33.5714 79.0757 33.2412C78.8355 32.9009 78.9055 31.6 78.6854 31.4198C77.4348 30.8994 75.8639 30.6092 75.1136 32.0803C74.6333 32.2004 74.6733 31.4498 74.3732 31.3798C74.2331 31.3498 72.4522 31.1897 72.3521 31.2097C71.8319 31.2997 71.4216 32.981 71.5317 33.3412C71.7118 33.9417 72.5922 33.5814 72.8824 33.7515C73.1125 33.8816 72.9924 36.5836 72.9224 36.8438C72.8524 37.104 72.2621 36.9539 72.082 37.1941C71.7618 37.6444 71.9619 39.1355 72.5622 39.3056V39.2756ZM84.3184 30.9094H80.3563C80.2363 30.9094 80.0361 33.1511 80.1262 33.2312C80.2162 33.3112 81.2068 33.1411 81.2968 33.2312C81.0067 37.5543 80.5664 40.4064 87.1299 39.1755C89.0609 38.2348 88.0103 35.2726 88.0704 33.8016C88.9308 31.3998 88.6807 30.5492 85.7491 30.9395C85.6491 30.9995 85.1888 32.8309 85.2389 33.081C85.2789 33.2712 85.8792 33.3713 86.1394 33.8716C86.7897 35.1025 86.3995 38.2849 84.4685 37.6344C83.668 37.4142 83.2778 33.4513 84.3084 33.081C84.4484 32.4706 84.2283 31.5799 84.3084 30.9195L84.3184 30.9094ZM96.1746 33.4513C96.6749 32.1704 97.1251 29.4984 94.8639 31.8101C94.4037 31.9302 93.9835 31.4498 93.5032 31.3898C92.0624 31.1997 89.3911 31.3398 89.201 33.1211C88.8508 36.4135 91.9124 35.4428 94.0935 36.1533C94.9139 36.4235 95.6943 36.8938 94.4637 37.4442C93.103 38.0547 92.4426 36.7737 91.3721 36.5436C91.0719 36.4835 89.7812 36.4135 89.6912 36.5036C89.6012 36.5936 89.321 39.0855 89.4711 39.2556C89.6012 39.3957 90.6817 39.4957 90.9318 39.3056C91.222 39.0854 90.9319 38.5951 91.192 38.5851C91.7023 38.5551 92.8829 39.1855 93.5332 39.2656C95.8945 39.5758 97.6754 39.0554 96.875 36.3935C96.0345 33.5914 94.2436 34.432 92.1025 34.1819C90.6317 34.0117 91.3121 32.9109 92.3826 32.8309C92.9029 32.7908 95.7944 33.7115 96.1746 33.4513ZM57.2842 39.2556C57.9946 38.405 56.3137 37.6844 56.1836 37.2541C55.8535 34.9424 56.944 34.1819 55.5833 31.8101C54.7129 30.7493 49.9604 31.0796 49.4101 31.8501C49.4301 33.7716 50.0304 32.7008 51.3911 32.5507C52.6318 32.5006 54.2026 32.8309 53.8124 34.392C52.6418 33.8016 49.1399 33.9517 48.9198 35.4528C48.7097 38.1548 49.5101 39.7659 52.5217 39.2656C53.7824 38.485 53.7824 38.9353 55.1231 39.4157C55.5033 39.4957 57.1141 39.4457 57.2742 39.2556H57.2842ZM125.69 37.9446C122.699 36.9939 128.972 28.5877 118.086 31.8501C118.066 33.5914 119.317 32.5807 120.287 32.5807C121.228 32.5807 122.919 32.7408 122.719 34.0317C122.638 34.5221 120.067 34.0718 119.377 34.1819C119.047 34.2319 118.116 34.6122 117.966 34.8624C117.776 35.1626 117.776 37.5543 117.856 37.9946C118.116 39.3456 119.907 39.4557 121.008 39.2856C121.628 39.1955 121.948 38.7552 122.628 38.7852C122.919 38.7952 123.149 39.4657 124.049 39.4958C124.299 39.4958 125.93 39.3456 126 39.2756C126.13 39.1455 125.91 38.1948 125.7 37.9446H125.69ZM103.869 39.2756C103.999 39.4057 106.96 39.2756 107.481 39.2756C107.951 39.2756 107.861 37.5143 107.681 37.174C107.481 36.8038 107.02 36.7237 106.9 36.1333C106.58 34.5621 108.121 31.7 106.06 31.3898C104.229 31.1096 103.098 31.0696 103.398 33.2312H104.559V36.9539C104.559 37.0039 103.689 37.0139 103.609 37.3442C103.578 37.4843 103.789 39.2155 103.859 39.2856L103.869 39.2756Z" fill="#023020"/>
<path d="M46.2985 33.3011C47.4791 34.7622 45.7482 38.2948 44.0973 36.9037C44.0072 36.8337 43.3569 34.8923 43.3469 34.7321C43.2468 33.4112 45.2379 31.9901 46.2985 33.3011Z" fill="#023020"/>
<path d="M53.8524 36.7238C53.8724 38.2949 51.4111 38.2949 51.4312 36.7238C51.4111 35.1526 53.8724 35.1526 53.8524 36.7238Z" fill="#023020"/>
<path d="M122.548 36.724C122.568 38.3051 120.087 38.3051 120.107 36.724C120.087 35.1428 122.568 35.1428 122.548 36.724Z" fill="#023020"/>
<path d="M20.8051 37.8447C19.7945 37.2243 20.1347 31.6602 22.4659 32.3507C25.0273 33.2914 23.4865 38.9556 20.8051 37.8447Z" fill="#023020"/>
</svg>
