<svg width="174" height="70" viewBox="0 0 174 70" fill="none" xmlns="http://www.w3.org/2000/svg">
<path d="M55.9894 59.9742C55.8693 63.5869 50.8967 64.9479 50.6065 61.2952C50.6866 60.965 51.2369 60.955 51.457 60.7548C52.2774 60.0143 52.4475 57.2623 52.2574 56.2415C51.477 54.9406 50.6666 56.1014 50.5865 53.3594C62.943 52.6088 59.8314 49.6667 61.5723 62.1058C60.7118 62.1458 58.7808 63.2967 58.0905 62.6262C57.23 61.7956 57.25 57.0621 57.0799 55.7111C56.8998 55.1607 55.9894 55.4309 55.9894 55.6811C55.9894 56.972 56.1394 58.7534 55.9894 59.9742Z" fill="#023020"/>
<path d="M114.04 64.5375C111.639 64.9478 110.138 65.5583 110.498 62.2959L106.286 61.9756C105.615 62.0957 106.426 63.6969 106.186 63.9671C105.996 64.1873 103.554 64.5275 103.104 64.1873C102.404 63.6569 102.674 60.8448 102.964 60.1043C103.134 59.6539 103.774 59.794 104.135 59.5839C104.635 59.3037 105.695 56.7518 105.645 56.2514C105.635 56.1113 103.554 55.3207 104.145 54.0898C106.856 54.1899 110.388 53.9998 112.919 54.7403C113.71 55.5609 112.749 59.1035 112.999 60.2544C114.82 60.6346 113.309 63.2165 114.03 64.5375H114.04ZM109.367 56.3315L108.607 56.4416L107.506 60.0642C107.797 60.0142 109.117 60.1343 109.187 60.0642C109.317 59.9341 109.277 56.8218 109.367 56.3315Z" fill="#023020"/>
<path d="M98.1815 54.2902C105.295 52.1386 101.013 57.5126 102.474 61.3654C99.3321 61.8357 97.8813 62.6363 98.3716 58.5634C95.9303 58.2231 96.7207 59.5341 97.0609 61.1753C91.0678 62.4762 93.509 60.6249 92.9287 56.2516C92.8587 56.0615 90.8877 55.2709 91.7281 54.07C92.6586 53.7798 95.2299 53.5697 96.2605 53.6597C97.7212 54.1901 95.7802 56.9522 98.0814 56.5118C99.092 56.3217 98.1014 54.9607 98.1815 54.2802V54.2902Z" fill="#023020"/>
<path d="M72.7782 55.9712C71.6876 56.1013 71.3474 55.0105 71.4775 53.9097C73.6886 54.27 79.1915 52.7388 80.6223 54.7503C81.7028 56.2614 80.2521 56.982 80.2521 57.1721C84.9445 60.8348 76.4301 62.8463 73.6586 61.5153C72.2679 60.7847 73.0183 56.2014 72.7682 55.9612L72.7782 55.9712ZM77.6107 55.9912C77.5207 55.8411 76.5802 55.631 76.4201 55.9612L76.5201 57.082C77.2405 57.2321 78.0709 56.7418 77.6107 55.9912ZM76.5201 59.6939C78.181 59.8641 78.251 58.2629 76.5201 58.383V59.6939Z" fill="#023020"/>
<path d="M91.7981 58.9733C92.9788 61.6152 88.6565 62.686 87.626 60.4344C87.2958 60.3443 87.1557 61.0048 86.8355 61.1749C80.1821 63.6567 80.2621 55.2205 86.9756 56.8918C87.5059 56.2513 85.885 56.0612 85.4548 56.0712C84.7845 56.0812 83.2937 56.7016 83.1736 56.6816C82.4132 56.5415 82.2331 54.9103 82.9835 54.3099C84.4043 53.159 89.1868 53.149 90.3274 54.7502C91.598 56.4314 89.8871 59.0934 91.7881 58.9833L91.7981 58.9733ZM86.9456 59.2835C87.786 56.8317 84.8945 58.4829 85.845 59.4236C86.0751 59.5838 86.8455 59.4436 86.9456 59.2835Z" fill="#023020"/>
<path d="M124.085 61.025C124.956 63.827 120.603 64.2974 119.723 61.9356C114.4 66.2188 110.778 56.6418 119.112 58.2529C119.283 58.273 119.553 58.5932 119.443 58.1028C119.122 56.6718 116.171 57.9627 115.711 57.7426C113.099 54.4502 120.273 54.6103 121.924 55.621C123.575 56.4816 123.385 57.7826 123.365 59.4138C123.195 60.3445 122.964 60.8649 124.075 61.015L124.085 61.025ZM119.453 59.5039C118.722 58.7933 116.861 61.1951 118.762 60.9649C119.453 60.8749 119.633 59.684 119.453 59.5039Z" fill="#023020"/>
<path d="M71.1373 59.2936C71.5475 59.5338 72.3279 58.8033 72.1879 60.4845C72.0278 62.486 68.7861 62.6761 67.8456 60.9949C62.6829 65.8885 58.6508 56.9319 66.5449 57.4523C67.4354 57.3922 66.9551 56.9519 66.4549 56.7918C65.0741 56.3515 63.8535 57.5323 63.2232 57.4123C62.1026 57.2021 62.2226 55.641 62.983 55.0205C64.2137 54.0098 67.8256 53.9197 69.2964 54.5101C71.6276 55.4508 70.617 58.9934 71.1373 59.2936ZM67.1953 58.5731C66.3948 58.433 65.0641 59.6739 66.0847 60.1643C67.0152 60.6146 67.4154 59.3337 67.1953 58.5731Z" fill="#023020"/>
<path d="M66.4448 66.2189L66.725 68.2704C66.675 65.4683 67.8956 65.4683 67.8456 68.2704C68.2658 67.5298 67.7255 65.9887 68.9662 66.2089C69.8566 66.369 69.0862 67.6899 69.8066 68.0802C69.8666 67.6299 69.6365 66.5491 69.9867 66.2989C71.0172 65.5384 70.637 68.2704 70.8372 68.2704C71.1573 67.9601 71.0473 66.2889 71.1173 66.2189C71.1573 66.1788 72.2679 66.2789 72.3379 66.389C72.6181 66.8393 72.0978 67.83 72.6981 67.9001C72.9583 67.5098 72.6181 66.7893 72.8782 66.399C73.6586 65.2581 73.7787 67.9802 73.8187 68.4605L74.0989 66.2189C74.2489 66.2389 74.6191 66.1788 74.6592 66.2189C74.8092 66.369 74.2689 69.091 74.289 69.5813C72.9683 69.7915 73.4185 68.6106 73.3585 67.72L72.9883 69.5813C71.5075 69.8715 72.2279 67.6999 71.7776 66.7793C71.5275 66.7793 71.5075 69.3912 71.2874 69.5613C70.2268 70.4119 70.4169 67.5298 70.2769 67.5298C70.0767 68.1503 70.3069 70.1718 69.2763 69.5613C69.0262 69.4112 68.9762 67.2096 68.7861 66.7893C68.5359 66.7893 68.5159 69.4012 68.2958 69.5713C67.2353 70.4219 67.4254 67.5398 67.2853 67.5398C67.1952 68.0102 67.2253 70.3319 66.2748 69.5713C66.1147 69.4412 65.8745 66.6992 65.8845 66.2389H66.4448V66.2189Z" fill="#023020"/>
<path d="M91.6381 66.2188C91.7681 66.3189 91.8782 67.9501 91.8282 68.2704L92.1984 66.2188C92.3784 66.2489 92.8987 66.1788 92.9387 66.2188C93.0088 66.2889 92.9688 67.9201 93.1288 68.2704L93.499 66.2188C94.4695 65.5383 93.509 69.2511 93.6891 69.5813C92.1683 69.8515 93.0888 68.9909 92.4785 68.0902L92.3884 69.5813C92.1783 69.5513 91.508 69.6313 91.458 69.5813C91.3379 69.4612 91.2278 66.6792 91.0878 66.2188C91.2378 66.2389 91.588 66.1788 91.6381 66.2188Z" fill="#023020"/>
<path d="M108.997 69.5812H108.437V66.7792H107.877V69.5812H107.316V66.7792C106.246 66.7091 106.996 69.351 106.756 69.5812H106.196V66.2188C110.098 66.4489 108.767 65.6283 108.997 69.5812Z" fill="#023020"/>
<path d="M86.9756 64.7277V69.5613C86.9156 69.6013 85.775 69.6213 85.6049 69.5813C85.2047 69.4912 85.2147 67.1195 85.3348 66.7192C85.5249 66.0687 86.3353 66.2889 86.4053 66.2088C86.5454 66.0687 86.0751 64.6076 86.9756 64.7277ZM86.0451 66.7792V69.0209H86.4153V66.7792H86.0451Z" fill="#023020"/>
<path d="M100.223 69.5815H98.5417V66.4992C98.5417 66.119 99.6222 66.2591 99.6623 66.219C99.7323 66.159 99.6122 64.9981 99.6623 64.7279C99.8324 64.6479 100.223 64.8981 100.223 65.0081V69.5815ZM99.6723 66.7794H99.102V69.0211H99.6723V66.7794Z" fill="#023020"/>
<path d="M81.2126 69.5514C80.9425 69.3813 80.8324 68.0803 81.3727 67.8101C81.983 67.5099 82.2631 68.1203 82.1131 66.7894C81.3126 66.7894 82.2431 67.4899 81.0925 67.3498C80.7724 67.3098 81.1226 65.8187 82.3732 66.259C82.8835 66.4391 82.8735 69.2812 82.7834 69.4113C82.6133 69.6415 81.4027 69.6815 81.2126 69.5614V69.5514Z" fill="#023020"/>
<path d="M96.8008 66.2487C97.0209 66.1787 97.4611 66.1687 97.6812 66.2487C98.1615 66.4189 98.5217 69.2609 97.6812 69.5512C95.7502 70.2116 96.0904 66.4989 96.8108 66.2487H96.8008ZM97.4311 66.7791C96.9108 66.1086 96.8808 69.1409 97.341 69.2009L97.4311 66.7791Z" fill="#023020"/>
<path d="M78.7613 66.409V69.5813C77.6407 69.5513 77.0104 69.9416 77.0704 68.5505C77.1204 67.3597 77.5307 67.9601 78.0209 67.6299C78.3311 67.4197 78.3111 66.5691 77.9209 66.7893C77.6407 66.9494 77.7608 67.5498 77.0804 67.3497C76.9704 66.1388 77.8108 66.0587 78.7613 66.419V66.409Z" fill="#023020"/>
<path d="M89.2168 69.5811C88.0962 69.551 87.4659 69.9413 87.5259 68.5503C87.5759 67.2193 88.6665 68.0099 88.6665 67.2494L88.1062 66.779C88.2363 67.9799 87.0857 67.2294 87.5759 66.4288C87.786 66.0785 89.2268 66.1986 89.2268 66.6789V69.5711L89.2168 69.5811Z" fill="#023020"/>
<path d="M104.145 66.4992C104.285 66.0589 105.585 66.0489 105.785 66.7194C105.886 67.0596 105.886 68.5407 105.815 68.911C105.625 69.9117 104.145 69.6115 104.145 69.2912C104.145 68.6808 104.015 66.8995 104.145 66.4892V66.4992ZM105.075 66.7794C104.555 66.1089 104.525 69.1411 104.985 69.2012L105.075 66.7794Z" fill="#023020"/>
<path d="M94.4695 66.2491C96.3105 65.6387 96.0204 68.0004 95.9403 69.1112C95.8102 69.8417 94.4295 69.7216 94.2894 69.2713C94.1694 68.901 94.2294 66.3992 94.4795 66.2491H94.4695ZM95.37 66.7795H94.8097C94.5796 69.9318 95.6001 69.9318 95.37 66.7795Z" fill="#023020"/>
<path d="M84.9245 69.5812H84.3642V66.7792H83.804V69.5812H83.2437V66.2188C83.5938 66.3689 84.9245 66.0686 84.9245 66.499V69.5812Z" fill="#023020"/>
<path d="M103.584 67.5298C102.484 67.76 103.564 66.5491 102.464 66.7792C102.644 67.0494 102.274 69.5613 102.834 69.111C103.234 68.7907 102.674 68.0402 103.574 68.2703C103.985 69.3011 102.904 70.0717 102.074 69.4912C101.823 69.3211 101.833 67.4397 101.893 67.0494C102.074 65.6684 104.055 65.9186 103.584 67.5298Z" fill="#023020"/>
<path d="M79.8819 68.6408L80.2521 66.219H80.8124C80.7924 66.6593 80.5522 69.4514 80.4422 69.5715C80.4122 69.6015 79.7418 69.6015 79.6218 69.5815C79.4417 69.5514 79.0815 66.6493 79.1415 66.209C80.012 66.289 79.7718 68.0003 79.8919 68.6308L79.8819 68.6408Z" fill="#023020"/>
<path d="M75.9598 65.008C76.0799 64.5877 76.7102 64.7678 76.7102 65.008V69.3011C76.7102 69.6214 75.9598 69.6214 75.9598 69.3011C75.9598 68.3905 75.7797 65.6485 75.9598 65.008Z" fill="#023020"/>
<path d="M89.599 67.7179L89.5981 68.2783L90.9088 68.2804L90.9097 67.72L89.599 67.7179Z" fill="#023020"/>
<path d="M107.827 1.17086C108.197 1.86137 110.818 1.9114 111.158 2.5919C111.659 3.80279 111.128 10.2675 111.799 10.7279C142.615 17.5829 135.751 15.4513 150.919 42.1509C151.72 43.7021 152.49 45.1932 150.009 45.5034C136.522 43.1016 122.814 41.8607 109.317 39.519C95.9603 38.178 93.389 21.9561 86.0151 13.1897C84.2642 10.7679 82.7834 12.209 81.3927 13.9502C77.6107 18.6937 73.1283 24.6581 69.8066 29.7118C65.8045 35.9464 72.498 41.2102 60.0015 40.85C57.6002 40.87 56.0394 41.3003 54.1384 39.2688C51.0668 35.9864 48.6255 31.0828 45.6539 27.6003C44.9436 26.8897 43.4528 26.8497 42.6524 27.4201C38.4101 32.3638 35.0084 38.3582 30.8962 43.4719C29.5455 45.013 23.6424 46.4341 24.5629 42.9215C29.0152 37.2673 32.8672 31.1429 37.3496 25.5187C41.1816 19.3942 49.1558 21.3757 55.1389 21.0755C55.9193 20.8453 55.0389 18.3735 55.4991 17.9732C55.5992 17.8831 57.22 17.1826 57.4001 17.1626C57.6302 17.1426 59.6613 17.4828 59.9815 17.5529C60.6418 17.713 61.8424 18.3335 62.6929 18.3234C63.0931 18.7337 62.8029 20.8053 62.913 20.9053C62.973 20.9654 64.2737 20.8453 64.5939 21.0955L60.1115 27.1599C60.4317 27.27 61.1921 27.3301 61.4822 27.26C61.7124 27.2 61.6523 26.7997 61.7924 26.6396C66.8651 21.6659 76.8203 3.04223 82.7734 3.0022C88.5464 4.40323 95.9803 6.61486 101.543 7.85577C101.893 6.42472 100.893 2.83208 101.463 1.70125C101.593 1.44106 103.524 0.0200147 103.884 0C105.135 0.45033 106.606 0.760557 107.837 1.20088L107.827 1.17086Z" fill="#023020"/>
<path d="M173.571 57.0821C115.26 47.2149 58.5207 47.7653 0 57.1722C54.9488 37.1575 118.632 36.9874 173.571 57.0821Z" fill="#023020"/>
<path d="M87.9061 28.721C83.5238 28.5109 84.2041 29.9019 84.1741 25.2685C84.1741 25.2485 84.4343 24.9883 84.4543 24.9883H87.6259C87.6259 24.9883 87.9061 25.2485 87.9061 25.2685V28.721Z" fill="#023020"/>
<path d="M83.4337 28.721H79.8919V24.9883H83.3437C83.824 24.9883 83.4237 26.0991 83.4237 26.3893C83.4237 27.1699 83.5738 27.9404 83.4438 28.721H83.4337Z" fill="#023020"/>
<path d="M87.9061 29.6519H84.1741V33.1945H87.9061V29.6519Z" fill="#023020"/>
<path d="M83.4337 33.1945H79.8919V29.6519C84.7344 29.852 83.2837 28.481 83.4337 33.1945Z" fill="#023020"/>
<path d="M43.1126 32.8242H40.3111V35.6263H43.1126V32.8242Z" fill="#023020"/>
<path d="M46.4744 32.8242H43.6729V35.6263H46.4744V32.8242Z" fill="#023020"/>
<path d="M43.1126 36.3667H40.3111V39.1688H43.1126V36.3667Z" fill="#023020"/>
<path d="M46.4744 36.3667H43.6729V39.1688H46.4744V36.3667Z" fill="#023020"/>
</svg>
